<?xml version="1.0" standalone="no"?>
<!DOCTYPE svg PUBLIC "-//W3C//DTD SVG 1.1//EN" "http://www.w3.org/Graphics/SVG/1.1/DTD/svg11.dtd" >
<svg xmlns="http://www.w3.org/2000/svg" xmlns:xlink="http://www.w3.org/1999/xlink" version="1.1">
<metadata></metadata>
<defs>
<font id="cart_o_grapherregular" horiz-adv-x="1937" >
<font-face units-per-em="2048" ascent="1638" descent="-410" />
<missing-glyph horiz-adv-x="1024" />
<glyph horiz-adv-x="0" />
<glyph unicode="&#xd;" horiz-adv-x="1024" />
<glyph unicode=" "  horiz-adv-x="1024" />
<glyph unicode="&#x09;" horiz-adv-x="1024" />
<glyph unicode="&#xa0;" horiz-adv-x="1024" />
<glyph unicode="!" horiz-adv-x="2199" d="M334 1567l-303 71l-31 -125l238 -57l376 -1028h1258l223 954h-1694zM877 322q-66 0 -114 -47.5t-48 -112.5q0 -68 48 -115t114 -47q68 0 114.5 47t46.5 115q0 66 -46.5 113t-114.5 47zM1573 322q-66 0 -113 -47.5t-47 -112.5q0 -68 47 -115t113 -47q68 0 115 47t47 115 q0 66 -47 113t-115 47z" />
<glyph unicode="&#x22;" horiz-adv-x="6727" d="M6232 662l-135 16l-141 -29l-142 6l-137 -34l-141 26l-135 -10l-152 31l43 -140l59 -116l144 -4l135 -13l137 37l133 -43l138 23l135 16l2 -123l-158 41l-152 -29l-149 13l-147 -17l-150 31l-147 -41l-52 121l-28 123l-68 98l4 2l-61 139l-56 144l-43 145l-63 135 l-39 148l-49 141l-203 49l25 90h139l137 -36l27 -191l168 21l147 16l150 -8l147 -37l148 41l149 -29l148 10h147l145 5l115 -17l-2 -108l-51 -129l-6 -140l-27 -133l-63 -121zM5018 1309l12 -95l-12 -6l86 -118l90 -17l-17 137l9 150zM5167 915l6 121l-76 -2zM5394 1313 l-168 12l-28 -121l39 -96l178 -37v141zM5226 788l162 -6l19 117l14 156l-195 -25l-16 -133l39 -129zM5317 248l-37 -101l39 -100l106 -47l86 66l25 81l-17 89l-94 14zM5458 1081l182 11l-26 118l12 93l-148 2l13 -101zM5478 1012l-41 -117l17 -145l192 8l17 141l-19 133z M5863 1300l-157 23l-23 -119l4 -137l213 -6l-20 149zM5708 772l172 -8v135l4 135l-180 -6l28 -133zM5886 256l-12 -109l10 -114l117 -2l118 2l43 114l-81 70l-80 33zM5939 1090l166 18l21 102l10 144l-213 -2l10 -148zM5933 754l195 -2l-29 147l16 127l-188 23zM6296 1333 l-127 4l-5 -133l17 -117h47l61 115zM6177 905l6 129l24 -10zM8 653l-8 84l25 353zM55 518l-37 86l54 -88zM86 518l-66 111l21 487l111 80l167 -25l7 -241l-226 -2l-16 -72l20 -74l220 -12l2 -244zM43 1145l37 55l53 6zM117 889l-6 -41l8 -19l160 -26l-164 6l-15 39l13 59 h204zM254 475l-150 23l215 2zM317 1219l2 -23l-161 16zM621 471l-7 74l-108 -13l-144 64l-18 172l29 145l133 35l98 2v29l-82 25l-143 -23l-6 229l45 15l209 -25l45 -160v-551zM356 985l-6 168l8 41l4 -199zM600 498l-98 -6l-72 28l-55 41l125 -53l102 10zM381 936l2 22 l147 21zM483 840l-51 -37q2 -2 10 -19l162 -22q0 55 2 72zM432 1247l49 10l74 -4l57 -30zM455 803l53 12l86 -10v-14zM645 1196l31 -66l2 -63zM707 1108l10 74l2 -418zM713 610l8 133v-233zM823 911l-16 -237l6 -158l-80 -10l2 170l-8 516l76 6l12 -37l139 37l4 -280z M735 1212l41 27l17 -25zM848 864l-29 -180l19 199l112 6zM823 524l-4 133l10 -57zM825 1188l-6 24l123 7zM1217 510h-37q-66 0 -103 -2q-10 31 -43 154l-2 253q-25 0 -55 7l2 249l2 5q0 -6 4 -7l55 11l7 180l65 6l2 -209q49 -6 119 -16v-213h-127l2 -164l41 -39l55 33 l-8 129l61 -4l9 -203zM1028 1204l-45 -10l37 31l12 123zM1020 684l-8 197l-29 20l39 -4zM1036 565l-8 78l31 -123zM1147 756l-33 35l2 108l10 4l-4 -96l29 -35l37 10l4 -12zM1126 1180l-4 174l13 -158l63 -12l23 -23zM1257 580l-26 -68l33 131zM1245 948l-2 189l8 -101z M1294 944l9 66v-117zM1315 885l-2 145l213 4v-155zM1323 1051l90 24l94 -24h-184zM1417 829l-90 29l174 -2zM1573 631l-14 239l30 -282zM1882 580l-70 -50l-180 11l-28 26l-39 336l47 266l180 45l74 -26l53 -434zM1567 989l18 162l12 10zM1845 971l-53 10l-31 4l-78 -10 l-45 -27l-6 -117l74 -43l143 25l17 59zM1634 1200l66 39l74 -8zM1769 494l-96 8l-31 16l168 -6zM1704 811l-55 45l12 4l43 -33l68 7zM1849 852l-18 76l-53 18l-49 -12l-60 4l111 20l53 -14l18 -67zM1808 1227l35 6l21 -25zM1882 1165l16 -57l23 -254zM1913 614l-17 -22 l27 119zM1944 944l6 66l2 -117zM1964 885l-2 145l211 4l2 -155zM1972 1051l90 24l92 -24h-182zM2066 829l-92 29l176 -2zM2548 418l-41 -133l-150 -19l-139 8l-10 222l92 -19l172 10l8 27q-4 16 -8 43l-164 -25q-49 51 -70 68l-6 371l52 182l204 47h72zM2208 846l10 53 l8 -276zM2296 498l-84 20l90 -4l156 18l6 -18zM2228 1014l6 65l33 70zM2363 221l-127 27l127 -4l125 18zM2294 1180l43 39l127 4zM2480 948l-100 6l-86 -55l10 -108l145 -21l31 14v164zM2460 821l-2 90l-68 -8l-78 -35l2 21l82 35l68 4l4 -129zM2331 809l45 12l53 -24z M2488 1219l45 20l27 -20h-72zM2589 1108l10 74l2 -418zM2595 610l8 133v-233zM2705 911l-16 -237l4 -158l-80 -10l4 170l-8 516l74 6l12 -37l141 37l5 -280zM2617 1212l41 27l17 -25zM2730 864l-31 -180l21 199l112 6zM2703 524l-4 133l13 -57zM2705 1188l-4 24l121 7z M3127 471l-6 74l-108 -13l-144 64l-20 172l30 145l134 35l98 2v29l-82 25l-145 -23l-5 229l46 15l208 -25l45 -160v-551zM2863 985l-6 168l8 41l4 -199zM3107 498l-98 -6l-72 28l-55 41l124 -53l103 10zM2886 936l4 22l147 21zM2990 840l-51 -37q2 -2 10 -19l162 -22 q0 55 2 72zM2939 1247l49 10l74 -4l57 -30zM2961 803l54 12l86 -10v-14zM3152 1196l31 -66l2 -63zM3219 352l-6 174l19 260zM3232 834l-17 155l4 221zM3308 1184l167 47l64 -29l22 -33l29 -196l-24 -350l-115 -91h-45l-94 29l-4 -24l10 -195l-86 -4l10 483l-10 406l61 8z M3287 1253l-53 -6l28 21zM3318 1227l139 20l-143 -37l-11 35l9 2zM3318 958l-10 -73l4 -90l59 -4l141 34l4 105l-71 31zM3330 922l-4 -48l2 -43l41 -8l102 11l-104 -29l-47 6l-2 70l8 57h117zM3400 514l-70 8l-2 -12l-2 -162l-6 172l4 19zM3504 915l-2 -79l-6 71l-35 25z M3547 555l-72 -29l89 70zM3539 1219l-57 22l39 2zM3594 1081l2 -71l-24 147zM3598 764l-20 -115l20 289v-174zM3637 551l-10 59l8 338l4 -63zM3637 969l-8 139l8 274l8 -45zM3893 524l8 168l-20 246q-20 6 -61 25l-86 -72l-7 -367l-80 4l11 863l76 4l-3 -211l187 16l55 -227 l4 -441zM3664 1411l57 27l13 -21zM3748 553q-2 -16 -8 -29l4 318l10 -82q-6 -109 -6 -207zM3824 915l-19 -8l-47 -45l-14 4l53 49l29 21l37 -12zM3750 1210l47 21l111 -12zM3879 532l-2 150l-10 203l24 -201zM3932 1200l27 -53l8 -41l10 -92zM4006 868l20 279l13 2z M4024 639l-16 156l45 -234zM4299 514l-230 27l-51 274l35 340l217 45l31 -18l43 -279l-4 -125l-37 -6l-17 2l-190 -4l8 -61l58 -11l188 15l18 -13v-178zM4061 1184l4 24l187 6zM4182 483l-88 31l192 -22zM4250 1055l-9 6l-135 -21l-8 -63l57 -6h99l8 8zM4200 727l-63 4 l-18 12l204 9zM4123 999l2 13l112 12v-18zM4344 483l-41 15l65 6zM4315 1176l19 -48l14 -184zM4379 1108l10 74l2 -418zM4385 610l8 133v-233zM4495 911l-16 -237l6 -158l-80 -10l2 170l-8 516l76 6l12 -37l139 37l5 -280zM4407 1212l41 27l17 -25zM4520 864l-29 -180 l19 199l112 6zM4495 524l-4 133l11 -57zM4495 1188l-4 24l123 7zM3428 356l-2 21v16h15v-16l-4 -21h-9zM3453 356l-4 21v16h14v-16l-4 -21h-6zM3482 291v63h-11v11h11v8q0 20 20 20h12l-2 -10h-8q-10 0 -10 -12v-6h14v-11h-14v-63h-12zM3514 328q0 39 33 39q35 0 35 -37 q0 -41 -35 -41q-33 0 -33 39zM3527 328q0 -27 20 -27q23 0 23 27q0 29 -23 28q-20 1 -20 -28zM3596 291v74h13v-11q8 12 22 13q20 0 25 -19v-12v-45h-13v45q0 20 -14 20q-20 0 -20 -24v-41h-13zM3703 303l2 -12h-10q-18 0 -19 22v41h-8v11h8v18l14 8v-26h13v-11h-13v-43 q0 -10 7 -10q2 2 6 2zM3801 291v10q-8 -12 -20 -12q-31 0 -31 39t31 39q12 0 18 -11v37h14v-102h-12zM3762 328q0 -27 21 -27q18 0 18 27q0 29 -20 28q-19 1 -19 -28zM3883 315l12 -2q-6 -25 -32 -24q-35 0 -35 39t35 39q33 0 32 -39v-2h-55q2 -25 23 -25q14 0 20 14z M3842 336h41q-2 20 -20 20q-21 0 -21 -20zM3906 313l12 2q2 -14 18 -14q18 0 19 10q0 6 -17 11q-31 8 -30 24q0 20 26 21q27 0 29 -21l-12 -2q0 12 -15 12q-16 0 -16 -10q0 -6 16 -10q31 -8 31 -23q0 -25 -31 -24q-26 -1 -30 24zM3981 379v14h13v-14h-13zM3981 291v74h13 v-74h-13zM4010 285h12q2 -12 17 -13q16 0 20 13v16q-8 -10 -20 -10q-31 0 -31 37q0 39 31 39q14 0 22 -11v9h10v-64q0 -39 -32 -39q-29 0 -29 23zM4020 330q0 -29 21 -29q20 0 20 29q0 27 -20 26q-21 1 -21 -26zM4092 291v74h10v-11q8 12 23 13q23 0 24 -19q2 -2 2 -12v-45 h-12v45q0 20 -16 20q-18 0 -19 -24v-41h-12zM4219 315l14 -2q-6 -25 -33 -24q-35 0 -34 39q0 39 34 39q33 0 33 -39v-2h-55q2 -25 22 -25q15 0 19 14zM4178 336h43q-2 20 -21 20q-20 0 -22 -20zM4248 291v74h12v-11q6 12 14 13q8 0 15 -5l-5 -12q-6 4 -10 4q-14 0 -14 -24 v-39h-12zM4291 313l12 2q2 -14 18 -14t17 10q0 6 -17 11q-29 8 -28 24q0 20 26 21q27 0 29 -21l-12 -2q-2 12 -17 12q-14 0 -14 -10q0 -6 16 -10q31 -8 31 -23q0 -25 -31 -24q-26 -1 -30 24zM3475 121v10q-6 -12 -20 -12q-31 0 -31 39t31 39q12 0 20 -11v35h13v-100h-13z M3437 158q0 -29 20 -29q18 0 18 27q0 31 -18 30q-20 1 -20 -28zM3502 158q0 39 35 39t35 -39t-35 -39t-35 39zM3514 158q0 -29 23 -29q20 0 20 29t-20 28q-23 1 -23 -28zM3586 121v74h10v-11q8 12 25 13q20 0 24 -19v-12v-45h-12v45q0 18 -16 18q-18 0 -19 -22v-41h-12z M3664 186l-2 19v16h14v-16l-4 -19h-8zM3719 131v-10h-8q-18 0 -18 20v43h-9v11h9v18l12 6v-24h14v-11h-14v-43q0 -10 8 -10h6zM3770 121v74h11v-11q8 12 22 13q16 0 21 -15q8 14 22 15q23 0 23 -25v-51h-13v47q0 16 -12 16q-18 0 -18 -20v-43h-13v47q0 16 -12 16 q-18 0 -18 -24v-39h-13zM3934 129q-12 -10 -26 -10q-25 0 -25 20t29 25q16 0 22 4v2q0 16 -18 16q-14 0 -19 -14l-12 2q4 23 33 23q25 0 28 -17v-12v-16q0 -25 5 -31h-13zM3934 158q-12 -2 -24.5 -5t-12.5 -12q0 -12 15 -12q25 0 22 25v4zM3965 121v100h14v-57l29 31h16 l-28 -29l30 -45h-14l-25 37l-8 -8v-29h-14zM4086 145l14 -2q-6 -25 -33 -24q-35 0 -34 39q0 39 34 39q33 0 33 -39v-4h-55q2 -25 22 -25q15 0 19 16zM4045 164h41q0 23 -19 22q-20 1 -22 -22zM4202 147l13 -2q-4 -27 -31 -26q-33 0 -33 39t33 39q25 0 29 -25l-13 -2 q-2 16 -16 16q-20 0 -20 -28q0 -29 20 -29q16 0 18 18zM4272 129q-12 -10 -26 -10q-25 0 -25 20t29 25q14 0 22 4v2q0 16 -18 16q-14 0 -19 -14l-12 2q4 23 33 23q25 0 28 -17v-12v-16q0 -25 5 -31h-13q-4 4 -4 8zM4272 158q-12 -2 -22 -4q-16 -4 -17 -13q0 -12 17 -12 q25 0 22 25v4zM4303 121v74h12v-13q6 14 14 15q8 0 15 -4l-4 -13q-6 2 -11 2q-14 0 -14 -22v-39h-12zM4377 131l2 -10h-9q-18 0 -18 20v43h-8v11h8v18l12 6v-24h13v-11h-13v-43q0 -10 8 -10h5zM4385 143l12 2q2 -16 18 -16t17 12q0 6 -17 11q-29 8 -28 22q0 23 26 23 q27 0 29 -21l-12 -2q-2 12 -15 12q-16 0 -16 -10q0 -6 16 -10q31 -8 31 -23q0 -25 -31 -24q-26 -1 -30 24zM4461 186l-5 19v16h15v-16l-2 -19h-8zM4483 186l-2 19v16h12v-16l-2 -19h-8z" />
<glyph unicode="#" horiz-adv-x="1808" d="M274 1579l-249 59l-25 -102l195 -47l311 -846h2l125 -340h840v107h-766l-86 233h917l184 784h-1392zM903 133q0 55 -39 93t-94 38t-94 -38t-39 -93t39 -94t94 -39t94 39t39 94zM1448 133q0 55 -39 93t-94 38t-94 -38t-39 -93t39 -94t94 -39t94 39t39 94z" />
<glyph unicode="$" horiz-adv-x="1703" d="M340 680l133 -358h885v110h-807l-90 248h969l192 827h-1468l-50 131l-104 -39l338 -919h2zM477 139q0 -57 41 -98t100 -41q57 0 98.5 41t41.5 98q0 59 -41 100.5t-99 41.5q-59 0 -100 -41.5t-41 -100.5zM1053 139q0 -57 41 -98t98 -41t98 41t41 98q0 59 -41 100.5 t-98 41.5t-98 -41.5t-41 -100.5z" />
<glyph unicode="%" horiz-adv-x="2041" d="M311 1571l-282 67l-29 -116l219 -52l352 -956h2l80 -215q-47 -51 -47 -119q0 -76 52.5 -128t127.5 -52q61 0 108.5 37t63.5 94h365q16 -57 64.5 -94t109.5 -37q74 0 126 52t52 128q0 35 -14 70v2v0q-47 106 -164 106q-119 0 -166 -106h-381q-47 106 -164 106 q-12 0 -26 -2l-60 158h1037l209 887h-1573z" />
<glyph unicode="&#x26;" horiz-adv-x="1411" d="M795 1638l-748 -198l457 -127q68 18 291 78v247zM842 1638v-235l452 121zM1343 371l-20 1110l-795 -211v-1207h-49v1207l-479 133v-1231l502 -172zM406 72l-177 229l-172 -111l-26 39l194 127h-14v674h47v-674h-10l196 -256z" />
<glyph unicode="'" horiz-adv-x="1703" d="M1622 1507h-1468l-50 131l-104 -39l338 -919h2l133 -358h885v110h-807l-90 248h969zM1479 1386v9h2zM238 1280v0v0v0zM342 999h18v168h-79l-41 113h120v115h113v-115h168v115h111v-115h168v115h112v-115h168v115h111v-115h143l-27 -113h-116v-168h78l-27 -110h-51v-98 h-111v98h-168v-98h-112v98h-168v-98h-111v98h-168v-98h-53zM618 281q-59 0 -100 -41t-41 -101q0 -57 41 -98t100 -41q57 0 98.5 41t41.5 98q0 59 -41.5 100.5t-98.5 41.5zM1192 281q-57 0 -98 -41t-41 -101q0 -57 41 -98t98 -41t98 41t41 98q0 59 -41 100.5t-98 41.5z M1200 1167h-168v-168h168v168zM920 1167h-168v-168h168v168zM641 1167h-168v-168h168v168z" />
<glyph unicode="(" horiz-adv-x="1419" d="M807 1636l-807 -215v-1245l518 -176l834 369l-23 1136zM518 1280q-16 4 -430 119l703 186v-231zM836 1585l424 -106l-424 -115v221zM516 49q-76 25 -471 160v1155l451 -125v-1130h45v1130l745 199l21 -1041zM287 383v631h-45v-631h14l-182 -119l24 -37l162 105l166 -215 l35 26l-185 240h11z" />
<glyph unicode=")" horiz-adv-x="2334" d="M1874 0l350 1071h-647q0 236 -136 401.5t-329 165.5q-190 0 -326.5 -165.5t-136.5 -401.5h-649l389 -1071h1485zM641 977v-174h-172v174h172zM1413 94v174h174v-174h-174zM1352 567h-174v174h174v-174zM1413 741h174v-174h-174v174zM1178 504h174v-172h-174v172z M1114 332h-172v172h172v-172zM1114 567h-172v174h172v-174zM879 567h-174v174h174v-174zM879 504v-172h-174v172h174zM879 268v-174h-174v174h174zM942 268h172v-174h-172v174zM1178 268h174v-174h-174v174zM1413 332v172h174v-172h-174zM1651 504h172v-172h-172v172z M1651 567v174h172v-174h-172zM1651 803v174h172v-174h-172zM1587 803h-174v174h174v-174zM1352 803h-174v174h174v-174zM1114 803h-172v174h172v-174zM879 803h-174v174h174v-174zM641 741v-174h-172v174h172zM641 504v-172h-172v172h172zM641 268v-174h-172v174h172z M1806 94h-155v174h172v-118zM1886 504h53l-53 -162v162zM1886 567v174h131l-57 -174h-74zM1886 803v174h174v-105l-22 -69h-152zM406 977v-174h-175v174h175zM231 741h175v-174h-123l-52 142v32zM406 504v-172h-37l-62 172h99zM406 268v-37l-15 37h15zM1112 1544 q154 0 262.5 -138t108.5 -335h-740q0 197 108.5 335t260.5 138zM170 977v-94l-35 94h35z" />
<glyph unicode="*" horiz-adv-x="1419" d="M807 1636l-807 -215v-1245l518 -176l834 369l-23 1136zM1253 1477l-90 26l97 -24zM791 1585l22 6q6 0 23 -6v-221l-45 -10v231zM516 49q-78 27 -471 160v1155l451 -125v-1130h45v1130l30 8l715 191l21 -1041zM287 383v631h-45v-631h14l-182 -119l24 -37l162 105l166 -215 l35 26l-185 240h11z" />
<glyph unicode="+" horiz-adv-x="2260" d="M1077 1638q-193 0 -336 -189t-143 -443h-598l365 -1006h1460l327 1006h-598q0 254 -143.5 443t-333.5 189zM696 1006q0 211 116 372.5t265 161.5q150 0 265.5 -161.5t115.5 -372.5h-762z" />
<glyph unicode="," horiz-adv-x="1808" d="M274 1579l-249 59l-25 -102l195 -47l311 -846h2l125 -340h840v107h-766l-86 233h917l184 784h-1392zM582 750l-117 319q4 10 4 21q0 37 -33 55l-24 67h-2l-19 50q6 -2 15 -2q61 0 63 61h104q2 -61 64 -61q63 0 63 61h107q2 -61 63 -61q63 0 64 61h106q2 -61 64 -61 q61 0 63 61h107q2 -61 63 -61t64 61h106q2 -61 64 -61h4l-27 -111q-41 -14 -41 -59q0 -25 17 -43l-70 -297h-872zM770 264q-55 0 -94 -38t-39 -93t39 -94t94 -39t94 39t39 94t-39 93t-94 38zM1315 264q-55 0 -94 -38t-39 -93t39 -94t94 -39t94 39t39 94t-39 93t-94 38z M1337 922q-63 0 -63 -66q0 -63 63 -63t64 63q-1 66 -64 66zM1104 922q-63 0 -64 -66q0 -63 64 -63q63 0 63 63q0 66 -63 66zM870 922q-63 0 -63 -66q0 -63 63 -63t64 63q-1 66 -64 66zM637 922q-63 0 -64 -66q0 -63 64 -63q63 0 63 63q0 66 -63 66zM1337 1153q-63 0 -63 -63 t63 -64q63 0 64 64q-1 63 -64 63zM1104 1153q-63 0 -64 -63q0 -63 64 -64q63 0 63 64q0 63 -63 63zM870 1153q-63 0 -63 -63t63 -64q63 0 64 64q-1 63 -64 63zM637 1153q-63 0 -64 -63q0 -63 64 -64q63 0 63 64q0 63 -63 63z" />
<glyph unicode="-" d="M119 1638l-119 -43l385 -1048h2l84 -228q-49 -55 -49 -129q0 -78 56.5 -134t135.5 -56q63 0 114.5 39t68.5 100h387q18 -61 68.5 -100t115.5 -39q80 0 135.5 56.5t55.5 133.5q0 39 -15 74v4v0q-51 113 -176 113t-174 -113h-406q-51 113 -174 113q-14 0 -28 -2l-64 168 h1102l221 942h-1671zM1686 1362l-162 -688h-1047l-205 557h-2l-49 131h1465zM1491 1057q49 0 82 33.5t33 80.5t-33 81t-82 34q-47 0 -81 -33.5t-34 -81.5q0 -47 34 -80.5t81 -33.5zM1149 1057q47 0 80 33.5t33 80.5t-33 81t-80 34q-49 0 -82 -33.5t-33 -81.5q0 -47 33 -80.5 t82 -33.5zM805 1057q47 0 81 33.5t34 80.5t-34 81t-81 34t-81 -33.5t-34 -81.5q0 -47 34 -80.5t81 -33.5zM461 1057q47 0 80.5 33.5t33.5 80.5t-33.5 81t-80.5 34t-81 -33.5t-34 -81.5q0 -47 34 -80.5t81 -33.5zM1206 866q0 -49 33 -81.5t80 -32.5q49 0 82 32.5t33 81.5 q0 47 -33 81t-82 34q-47 0 -80 -34t-33 -81zM862 866q0 -49 33 -81.5t82 -32.5q47 0 81 32.5t34 81.5q0 47 -34 81t-81 34q-49 0 -82 -34t-33 -81zM518 866q0 -49 34 -81.5t81 -32.5t81 32.5t34 81.5q0 47 -34 81t-81 34t-81 -34t-34 -81z" />
<glyph unicode="." horiz-adv-x="1703" d="M104 1638l-104 -39l338 -919h2l133 -358h885v110h-807l-90 248h969l192 827h-1468zM420 791l-131 356q4 12 4 27q0 41 -37 59l-16 47h-2l-29 74q8 -2 16 -2q47 0 64 43h121q16 -43 63 -43q45 0 62 43h120q16 -43 64 -43q45 0 61 43h121q18 -43 64 -43q45 0 63 43h121 q16 -43 61 -43q47 0 64 43h121q16 -43 61 -43q8 0 17 2l-27 -115q-55 -10 -55 -65q0 -33 26 -54l-78 -329h-919zM618 281q-59 0 -100 -41t-41 -101q0 -57 41 -98t100 -41q57 0 98.5 41t41.5 98q0 59 -41.5 100.5t-98.5 41.5zM1192 281q-57 0 -98 -41t-41 -101q0 -57 41 -98 t98 -41t98 41t41 98q0 59 -41 100.5t-98 41.5zM1210 993q-68 0 -67 -65q0 -68 67 -68q68 0 68 68q0 65 -68 65zM965 993q-68 0 -68 -65q0 -68 68 -68t67 68q1 65 -67 65zM719 993q-68 0 -68 -65q0 -68 68 -68t67 68q1 65 -67 65zM473 993q-68 0 -67 -65q0 -68 67 -68 q66 0 66 68q0 65 -66 65zM1210 1241q-68 0 -67 -67q0 -68 67 -68q68 0 68 68q0 67 -68 67zM965 1241q-68 0 -68 -67q0 -68 68 -68t67 68q1 67 -67 67zM719 1241q-68 0 -68 -67q0 -68 68 -68t67 68q1 67 -67 67zM473 1241q-68 0 -67 -67q0 -68 67 -68q66 0 66 68q0 67 -66 67 z" />
<glyph unicode="/" horiz-adv-x="1792" d="M1708 1362l-53 12q-18 29 -51 29q-66 0 -66 -64q0 -43 41 -59l-125 -530h-872l-111 303q29 18 29 53q0 63 -64 63h-8l-16 43h-2l-136 367l-249 59l-25 -102l195 -47l311 -846h2l125 -340h840v107h-766l-86 233h917zM770 264q-55 0 -94 -38t-39 -93t39 -94t94 -39t94 39 t39 94t-39 93t-94 38zM1315 264q-55 0 -94 -38t-39 -93t39 -94t94 -39t94 39t39 94t-39 93t-94 38zM1370 809q63 0 64 63q0 63 -64 64q-63 0 -63 -64q0 -63 63 -63zM1137 809q63 0 63 63t-63 64q-63 0 -64 -64q1 -63 64 -63zM903 809q63 0 64 63q0 63 -64 64q-63 0 -63 -64 q0 -63 63 -63zM670 809q63 0 63 63t-63 64q-63 0 -64 -64q1 -63 64 -63zM1370 1042q63 0 64 64q0 63 -64 63q-63 0 -63 -63q0 -64 63 -64zM1137 1042q63 0 63 64q0 63 -63 63t-64 -63q1 -64 64 -64zM903 1042q63 0 64 64q0 63 -64 63q-63 0 -63 -63q0 -64 63 -64zM670 1042 q63 0 63 64q0 63 -63 63t-64 -63q1 -64 64 -64zM1370 1276q63 0 64 63q0 63 -64 64q-63 0 -63 -64q0 -63 63 -63zM1137 1276q63 0 63 63t-63 64q-63 0 -64 -64q1 -63 64 -63zM903 1276q63 0 64 63q0 63 -64 64q-63 0 -63 -64q0 -63 63 -63zM670 1276q63 0 63 63t-63 64 q-63 0 -64 -64q1 -63 64 -63zM436 1276q63 0 64 63q0 63 -64 64q-63 0 -63 -64q0 -63 63 -63z" />
<glyph unicode="0" horiz-adv-x="2041" d="M311 1571l-282 67l-29 -116l219 -52l352 -956h2l80 -215q-47 -51 -47 -119q0 -76 52.5 -128t127.5 -52q61 0 108.5 37t63.5 94h365q16 -57 64.5 -94t109.5 -37q74 0 126 52t52 128q0 35 -14 70v2v0q-47 106 -164 106q-119 0 -166 -106h-381q-47 106 -164 106 q-12 0 -26 -2l-60 158h1037l209 887h-1573zM1794 1280l-152 -645h-985l-192 522h-2l-45 123h1376zM1597 993q45 0 76 32t31 77t-31 75.5t-76 30.5t-76.5 -30.5t-31.5 -75.5t31.5 -77t76.5 -32zM1274 993q45 0 76.5 32t31.5 77t-31.5 75.5t-76.5 30.5t-77 -30.5t-32 -75.5 t32 -77t77 -32zM950 993q45 0 77 32t32 77t-32 75.5t-77 30.5t-75.5 -30.5t-30.5 -75.5t30.5 -77t75.5 -32zM627 993q45 0 76.5 32t31.5 77t-31.5 75.5t-76.5 30.5q-43 0 -75 -30.5t-32 -75.5t32 -77t75 -32zM1327 813q0 -43 32 -74.5t77 -31.5t75.5 31.5t30.5 74.5 q0 45 -30.5 77t-75.5 32t-77 -32t-32 -77zM1004 813q0 -43 31.5 -74.5t76.5 -31.5t77 31.5t32 74.5q0 45 -32 77t-77 32t-76.5 -32t-31.5 -77zM682 813q0 -43 30.5 -74.5t75.5 -31.5t77 31.5t32 74.5q0 45 -31.5 77t-77.5 32q-45 0 -75.5 -32t-30.5 -77z" />
<glyph unicode="1" horiz-adv-x="2041" d="M311 1571l-282 67l-29 -116l219 -52l352 -956h2l80 -215q-47 -51 -47 -119q0 -76 52.5 -128t127.5 -52q61 0 108.5 37t63.5 94h365q16 -57 64.5 -94t109.5 -37q74 0 126 52t52 128q0 35 -14 70v2v0q-47 106 -164 106q-119 0 -166 -106h-381q-47 106 -164 106 q-12 0 -26 -2l-60 158h1037l209 887h-1573zM657 635l-133 360q16 20 17 47q0 59 -60 70l-16 45h-2l-33 88q18 -12 39 -12q51 0 68 47h127q18 -47 67 -47q51 0 70 47h127q16 -47 67 -47t68 47h129q16 -47 68 -47q49 0 67 47h127q16 -47 68 -47q51 0 67 47h129q16 -45 64 -47 l-29 -127q-39 -20 -39 -64q0 -25 15 -43l-87 -364h-985zM1522 850q-29 0 -50.5 -21.5t-21.5 -50.5q0 -31 21.5 -51t50.5 -20q31 0 51 20.5t20 50.5q0 29 -20 50.5t-51 21.5zM1260 850q-31 0 -51.5 -21.5t-20.5 -50.5q0 -31 20.5 -51t51.5 -20q29 0 50 20.5t21 50.5 q0 29 -21 50.5t-50 21.5zM995 850q-29 0 -50 -21.5t-21 -50.5q0 -31 21.5 -51t49.5 -20q31 0 51.5 20.5t20.5 50.5q0 29 -20.5 50.5t-51.5 21.5zM731 850q-29 0 -50.5 -21.5t-21.5 -50.5q0 -31 21.5 -51t50.5 -20q31 0 52.5 20.5t21.5 50.5q0 29 -21.5 50.5t-52.5 21.5z M1522 1114q-29 0 -50.5 -21.5t-21.5 -50.5q0 -31 21.5 -52t50.5 -21q31 0 51 21.5t20 51.5q0 29 -20 50.5t-51 21.5zM1260 1114q-31 0 -51.5 -21.5t-20.5 -50.5q0 -31 20.5 -52t51.5 -21q29 0 50 21.5t21 51.5q0 29 -21 50.5t-50 21.5zM995 1114q-29 0 -50 -21.5t-21 -50.5 q0 -31 21.5 -52t49.5 -21q31 0 51.5 21.5t20.5 51.5q0 29 -20.5 50.5t-51.5 21.5zM731 1114q-29 0 -50.5 -21.5t-21.5 -50.5q0 -31 21.5 -52t50.5 -21q31 0 52.5 21.5t21.5 51.5q0 29 -21.5 50.5t-52.5 21.5z" />
<glyph unicode="2" d="M119 1638l-119 -43l385 -1048h2l84 -228q-49 -55 -49 -129q0 -78 56.5 -134t135.5 -56q63 0 114.5 39t68.5 100h387q18 -61 68.5 -100t115.5 -39q80 0 135.5 56.5t55.5 133.5q0 39 -15 74v4v0q-51 113 -176 113t-174 -113h-406q-51 113 -174 113q-14 0 -28 -2l-64 168 h1102l221 942h-1671zM477 674l-147 399q16 20 16 47q0 61 -61 74l-13 37h-2l-39 104q18 -12 39 -12q43 0 66 39h147q23 -39 66 -39q45 0 67 39h148q23 -39 65 -39q45 0 66 39h149q20 -39 66 -39q43 0 66 39h147q23 -39 68 -39q43 0 65 39h148q23 -39 65 -39h6l-30 -131 q-51 -16 -52 -72q0 -31 23 -53l-92 -393h-1047zM1391 915q-33 0 -55.5 -21.5t-22.5 -53.5q0 -31 22.5 -53.5t55.5 -22.5q31 0 53 22.5t22 53.5q0 33 -22 54t-53 21zM1110 915q-33 0 -54.5 -21.5t-21.5 -53.5q0 -31 21.5 -53.5t54.5 -22.5q31 0 53.5 22.5t22.5 53.5 q0 33 -22.5 54t-53.5 21zM829 915q-31 0 -53 -21.5t-22 -53.5q0 -31 22.5 -53.5t52.5 -22.5q33 0 54.5 22.5t21.5 53.5q0 33 -21.5 54t-54.5 21zM549 915q-31 0 -53.5 -21.5t-22.5 -53.5q0 -31 22.5 -53.5t53.5 -22.5q33 0 55.5 22.5t22.5 53.5q0 33 -22.5 54t-55.5 21z M1391 1196q-33 0 -55.5 -22.5t-22.5 -53.5q0 -33 22.5 -54.5t55.5 -21.5q31 0 53 21.5t22 54.5q0 31 -22 53.5t-53 22.5zM1110 1196q-33 0 -54.5 -22.5t-21.5 -53.5q0 -33 21.5 -54.5t54.5 -21.5q31 0 53.5 21.5t22.5 54.5q0 31 -22.5 53.5t-53.5 22.5zM829 1196 q-31 0 -53 -22.5t-22 -53.5q0 -33 22.5 -54.5t52.5 -21.5q33 0 54.5 21.5t21.5 54.5q0 31 -21.5 53.5t-54.5 22.5zM549 1196q-31 0 -53.5 -22.5t-22.5 -53.5q0 -33 22.5 -54.5t53.5 -21.5q33 0 55.5 21.5t22.5 54.5q0 31 -22.5 53.5t-55.5 22.5z" />
<glyph unicode="3" horiz-adv-x="2023" d="M1737 514l190 813l-39 8q-16 47 -67 47q-29 0 -50.5 -20.5t-21.5 -50.5q0 -41 37 -62l-144 -614h-985l-127 346q45 16 45 66q0 31 -20 52t-51 21q-16 0 -17 -10q0 -6 8.5 -25.5t8.5 -33.5l-39 106h-2l-152 414l-282 67l-29 -116l219 -52l352 -956h2l80 -215 q-47 -51 -47 -119q0 -76 52.5 -128t127.5 -52q61 0 108.5 37t63.5 94h365q16 -57 64.5 -94t109.5 -37q74 0 126 52t52 128q0 35 -14 70v2v0q-47 106 -164 106q-119 0 -166 -106h-381q-47 106 -164 106q-12 0 -26 -2l-60 158h1037zM1559 713q29 0 50 20.5t21 50.5 q0 29 -21.5 50.5t-49.5 21.5q-31 0 -51.5 -21.5t-20.5 -50.5q0 -31 20.5 -51t51.5 -20zM1294 713q31 0 51.5 20.5t20.5 50.5q0 29 -20.5 50.5t-51.5 21.5q-29 0 -50 -21.5t-21 -50.5q0 -31 21 -51t50 -20zM1032 713q29 0 50.5 20.5t21.5 50.5q0 29 -21.5 50.5t-50.5 21.5 q-31 0 -51 -21.5t-20 -50.5q0 -31 20 -51t51 -20zM768 713q31 0 51.5 20.5t20.5 50.5q0 29 -20.5 50.5t-51.5 21.5t-51.5 -21.5t-20.5 -50.5q0 -31 20.5 -51t51.5 -20zM1559 975q29 0 50 21.5t21 50.5q0 31 -21.5 52t-49.5 21q-31 0 -51.5 -21.5t-20.5 -51.5 q0 -29 20.5 -50.5t51.5 -21.5zM1294 975q31 0 51.5 21.5t20.5 50.5q0 31 -20.5 52t-51.5 21q-29 0 -50 -21.5t-21 -51.5q0 -29 21 -50.5t50 -21.5zM1032 975q29 0 50.5 21.5t21.5 50.5q0 31 -21.5 52t-50.5 21q-31 0 -51 -21.5t-20 -51.5q0 -29 20 -50.5t51 -21.5zM768 975 q31 0 51.5 21.5t20.5 50.5q0 31 -20.5 52t-51.5 21t-51.5 -21.5t-20.5 -51.5q0 -29 20.5 -50.5t51.5 -21.5zM1559 1239q29 0 50 21.5t21 50.5q0 31 -21.5 51t-49.5 20q-31 0 -51.5 -20.5t-20.5 -50.5q0 -29 20.5 -50.5t51.5 -21.5zM1294 1239q31 0 51.5 21.5t20.5 50.5 q0 31 -20.5 51t-51.5 20q-29 0 -50 -20.5t-21 -50.5q0 -29 21 -50.5t50 -21.5zM1032 1239q29 0 50.5 21.5t21.5 50.5q0 31 -21.5 51t-50.5 20q-31 0 -51 -20.5t-20 -50.5q0 -29 20 -50.5t51 -21.5zM768 1239q31 0 51.5 21.5t20.5 50.5q0 31 -20.5 51t-51.5 20t-51.5 -20.5 t-20.5 -50.5q0 -29 20.5 -50.5t51.5 -21.5zM504 1239q31 0 51 21.5t20 50.5q0 31 -20 51t-51 20q-29 0 -50.5 -20.5t-21.5 -50.5q0 -29 21.5 -50.5t50.5 -21.5z" />
<glyph unicode="4" horiz-adv-x="2199" d="M334 1567l-303 71l-31 -125l238 -57l376 -1028h1258l223 954h-1694zM1933 1253l-164 -696h-1064l-256 696h1484zM877 322q-66 0 -114 -47.5t-48 -112.5q0 -68 48 -115t114 -47q68 0 114.5 47t46.5 115q0 66 -46.5 113t-114.5 47zM1573 322q-66 0 -113 -47.5t-47 -112.5 q0 -68 47 -115t113 -47q68 0 115 47t47 115q0 66 -47 113t-115 47zM1731 944q47 0 81.5 34t34.5 81q0 49 -34.5 83t-81.5 34q-49 0 -83 -34t-34 -83q0 -47 34 -81t83 -34zM1382 944q47 0 82 34t35 81q0 49 -34.5 83t-82.5 34q-49 0 -82.5 -34t-33.5 -83q0 -47 33.5 -81 t82.5 -34zM1034 944q47 0 81 34t34 81q0 49 -34 83t-81 34q-49 0 -82.5 -34t-33.5 -83q0 -47 33.5 -81t82.5 -34zM801 1059q0 49 -34 83t-81 34q-49 0 -83 -34t-34 -83q0 -47 34 -81t83 -34q47 0 81 34t34 81zM1440 750q0 -47 33.5 -81t82.5 -34q47 0 82 33.5t35 81.5 q0 49 -34.5 82.5t-82.5 33.5q-49 0 -82.5 -33.5t-33.5 -82.5zM1092 750q0 -47 33.5 -81t82.5 -34q47 0 82 33.5t35 81.5q0 49 -35 82.5t-82 33.5q-49 0 -82.5 -33.5t-33.5 -82.5zM743 750q0 -47 34 -81t83 -34q47 0 81 33.5t34 81.5q0 49 -34 82.5t-81 33.5q-49 0 -83 -33.5 t-34 -82.5z" />
<glyph unicode="5" horiz-adv-x="2097" d="M129 1638l-129 -47l416 -1134h1343l240 1020h-1811zM1825 1339l-174 -745h-1139l-272 745h1585zM696 344q-72 0 -122 -50t-50 -122t50.5 -122t121.5 -50q72 0 122 50t50 122t-50 122t-122 50zM1440 344q-70 0 -121 -50t-51 -122t50 -122t122 -50t122 50t50 122t-50 122 t-122 50zM1606 1022q51 0 87 37t36 88t-36 87t-87 36q-53 0 -89 -36t-36 -87t36 -88t89 -37zM1233 1022q51 0 87 37t36 88t-36 87t-87 36t-88 -36t-37 -87t37 -88t88 -37zM860 1022q51 0 88 37t37 88t-37 87t-88 36t-87 -36t-36 -87t36 -88t87 -37zM612 1147q0 51 -35.5 87 t-89.5 36q-51 0 -86.5 -36t-35.5 -87t35.5 -88t86.5 -37q53 0 89 37t36 88zM1294 815q0 -51 37 -87t88 -36t87 36t36 87t-36 88t-87 37t-88 -37t-37 -88zM922 815q0 -51 36.5 -87t88.5 -36q51 0 87.5 36t36.5 87t-36.5 88t-87.5 37t-88 -37t-37 -88zM551 815q0 -51 36 -87 t87 -36t88 36t37 87t-37 88t-88 37t-87 -37t-36 -88z" />
<glyph unicode="6" horiz-adv-x="2181" d="M1952 1333l-183 -776h-1064l-371 1010l-303 71l-31 -125l238 -57l376 -1028h1258l205 875zM877 322q-66 0 -114 -47.5t-48 -112.5q0 -68 48 -115t114 -47q68 0 114.5 47t46.5 115q0 66 -46.5 113t-114.5 47zM1573 322q-66 0 -113 -47.5t-47 -112.5q0 -68 47 -115t113 -47 q68 0 115 47t47 115q0 66 -47 113t-115 47zM1747 989q47 0 81 34t34 81q0 49 -34 83t-81 34q-49 0 -83 -34t-34 -83q0 -47 34 -81t83 -34zM1399 989q47 0 80.5 34t33.5 81q0 49 -33.5 83t-80.5 34q-49 0 -83 -34t-34 -83q0 -47 34 -81t83 -34zM1051 989q47 0 80.5 34 t33.5 81q0 49 -33.5 83t-80.5 34q-49 0 -83 -34t-34 -83q0 -47 34 -81t83 -34zM702 989q47 0 81 34t34 81q0 49 -33.5 83t-81.5 34q-49 0 -82.5 -34t-33.5 -83q0 -47 33.5 -81t82.5 -34zM1456 795q0 -47 34 -81t83 -34q47 0 81 34t34 81q0 49 -34 82.5t-81 33.5 q-49 0 -83 -33.5t-34 -82.5zM1108 795q0 -47 34 -81t83 -34q47 0 80.5 34t33.5 81q0 49 -33.5 82.5t-80.5 33.5q-49 0 -83 -33.5t-34 -82.5zM760 795q0 -47 33.5 -81t83.5 -34q47 0 80.5 34t33.5 81q0 49 -33.5 82.5t-80.5 33.5q-49 0 -83 -33.5t-34 -82.5z" />
<glyph unicode="7" horiz-adv-x="1808" d="M274 1579l-249 59l-25 -102l195 -47l311 -846h2l125 -340h840v107h-766l-86 233h917l184 784h-1392zM1589 1321l-135 -571h-872l-170 462h-2l-41 109h1220zM770 264q-55 0 -94 -38t-39 -93t39 -94t94 -39t94 39t39 94t-39 93t-94 38zM1315 264q-55 0 -94 -38t-39 -93 t39 -94t94 -39t94 39t39 94t-39 93t-94 38zM1423 1069q39 0 67 27.5t28 68.5q0 39 -28 67t-67 28q-41 0 -68.5 -28t-27.5 -67q0 -41 27.5 -68.5t68.5 -27.5zM1137 1069q39 0 66.5 27.5t27.5 68.5q0 39 -27.5 67t-66.5 28q-41 0 -69 -28t-28 -67q0 -41 28 -68.5t69 -27.5z M850 1069q39 0 67.5 27.5t28.5 68.5q0 39 -28.5 67t-67.5 28t-67.5 -28t-28.5 -67q0 -41 28.5 -68.5t67.5 -27.5zM563 1069q39 0 67.5 27.5t28.5 68.5q0 39 -28.5 67t-67.5 28t-66.5 -28t-27.5 -67q0 -41 27.5 -68.5t66.5 -27.5zM1184 909q0 -39 27.5 -66.5t68.5 -27.5 q39 0 66.5 27.5t27.5 66.5q0 41 -27.5 69t-66.5 28q-41 0 -68.5 -28t-27.5 -69zM897 909q0 -39 28.5 -66.5t67.5 -27.5t66.5 27.5t27.5 66.5q0 41 -27.5 69t-66.5 28t-67.5 -28t-28.5 -69zM610 909q0 -39 29 -66.5t68 -27.5t67.5 27.5t28.5 66.5q0 41 -29 69t-67 28 q-39 0 -68 -28t-29 -69z" />
<glyph unicode="8" horiz-adv-x="1703" d="M104 1638l-104 -39l338 -919h2l133 -358h885v110h-807l-90 248h969l192 827h-1468zM1481 1395l-142 -604h-919l-180 489h-2l-43 115h1286zM618 281q-59 0 -100 -41t-41 -101q0 -57 41 -98t100 -41q57 0 98.5 41t41.5 98q0 59 -41.5 100.5t-98.5 41.5zM1192 281 q-57 0 -98 -41t-41 -101q0 -57 41 -98t98 -41t98 41t41 98q0 59 -41 100.5t-98 41.5zM1303 1141q43 0 72.5 28.5t29.5 71.5q0 41 -29.5 70.5t-72.5 29.5q-41 0 -71 -29.5t-30 -70.5q0 -43 30 -71.5t71 -28.5zM1001 1141q41 0 71 28.5t30 71.5q0 41 -30 70.5t-71 29.5 q-43 0 -71.5 -29.5t-28.5 -70.5q0 -43 28.5 -71.5t71.5 -28.5zM698 1141q43 0 72 28.5t29 71.5q0 41 -29 70.5t-72 29.5q-41 0 -70.5 -29.5t-29.5 -70.5q0 -43 29.5 -71.5t70.5 -28.5zM397 1141q41 0 71 28.5t30 71.5q0 41 -30 70.5t-71 29.5q-43 0 -71.5 -29.5t-28.5 -70.5 q0 -43 28.5 -71.5t71.5 -28.5zM1051 973q0 -43 29.5 -73t72.5 -30q41 0 70.5 30t29.5 73q0 41 -29.5 70.5t-70.5 29.5q-43 0 -72.5 -29.5t-29.5 -70.5zM750 973q0 -43 29.5 -73t70.5 -30t70.5 30t29.5 73q0 41 -29.5 70.5t-70.5 29.5t-70.5 -29.5t-29.5 -70.5zM446 973 q0 -43 30 -73t71 -30q43 0 72.5 30t29.5 73q0 41 -29.5 70.5t-72.5 29.5q-41 0 -71 -29.5t-30 -70.5z" />
<glyph unicode="9" horiz-adv-x="1792" d="M1708 1362l-104 24l-150 -636h-872l-170 462h-2l-136 367l-249 59l-25 -102l195 -47l311 -846h2l125 -340h840v107h-766l-86 233h917zM770 264q-55 0 -94 -38t-39 -93t39 -94t94 -39t94 39t39 94t-39 93t-94 38zM1315 264q-55 0 -94 -38t-39 -93t39 -94t94 -39t94 39 t39 94t-39 93t-94 38zM1434 1075q39 0 66.5 27.5t27.5 66.5t-27.5 68t-66.5 29q-41 0 -69 -29t-28 -68t28 -66.5t69 -27.5zM1147 1075q39 0 67.5 27.5t28.5 66.5t-28.5 68t-67.5 29t-67.5 -29t-28.5 -68t28.5 -66.5t67.5 -27.5zM860 1075q39 0 67.5 27.5t28.5 66.5t-28.5 68 t-67.5 29t-66.5 -29t-27.5 -68t27.5 -66.5t66.5 -27.5zM573 1075q41 0 69 27.5t28 66.5t-28 68t-69 29q-39 0 -66.5 -29t-27.5 -68t27.5 -66.5t66.5 -27.5zM1194 915q0 -39 28.5 -67.5t67.5 -28.5t66.5 29t27.5 67q0 39 -27.5 68t-66.5 29t-67.5 -29t-28.5 -68zM907 915 q0 -39 29 -67.5t68 -28.5t67.5 29t28.5 67q0 39 -29 68t-67 29q-39 0 -68 -29t-29 -68zM623 915q0 -39 27.5 -67.5t66.5 -28.5q41 0 68.5 29t27.5 67q0 39 -27.5 68t-68.5 29q-39 0 -66.5 -29t-27.5 -68z" />
<glyph unicode=":" horiz-adv-x="6727" d="M6232 662l-135 16l-141 -29l-142 6l-137 -34l-141 26l-135 -10l-152 31l43 -140l59 -116l144 -4l135 -13l137 37l133 -43l138 23l135 16l2 -123l-158 41l-152 -29l-149 13l-147 -17l-150 31l-147 -41l-52 121l-28 123l-68 98l4 2l-61 139l-56 144l-43 145l-63 135 l-39 148l-49 141l-203 49l25 90h139l137 -36l27 -191l168 21l147 16l150 -8l147 -37l148 41l149 -29l148 10h147l145 5l115 -17l-2 -108l-51 -129l-6 -140l-27 -133l-63 -121zM5018 1309l12 -95l-12 -6l86 -118l90 -17l-17 137l9 150zM5167 915l6 121l-76 -2zM5394 1313 l-168 12l-28 -121l39 -96l178 -37v141zM5226 788l162 -6l19 117l14 156l-195 -25l-16 -133l39 -129zM5317 248l-37 -101l39 -100l106 -47l86 66l25 81l-17 89l-94 14zM5458 1081l182 11l-26 118l12 93l-148 2l13 -101zM5478 1012l-41 -117l17 -145l192 8l17 141l-19 133z M5863 1300l-157 23l-23 -119l4 -137l213 -6l-20 149zM5708 772l172 -8v135l4 135l-180 -6l28 -133zM5886 256l-12 -109l10 -114l117 -2l118 2l43 114l-81 70l-80 33zM5939 1090l166 18l21 102l10 144l-213 -2l10 -148zM5933 754l195 -2l-29 147l16 127l-188 23zM6296 1333 l-127 4l-5 -133l17 -117h47l61 115zM6177 905l6 129l24 -10zM8 653l-8 84l25 353zM55 518l-37 86l54 -88zM86 518l-66 111l21 487l111 80l167 -25l7 -241l-226 -2l-16 -72l20 -74l220 -12l2 -244zM43 1145l37 55l53 6zM117 889l-6 -41l8 -19l160 -26l-164 6l-15 39l13 59 h204zM254 475l-150 23l215 2zM317 1219l2 -23l-161 16zM621 471l-7 74l-108 -13l-144 64l-18 172l29 145l133 35l98 2v29l-82 25l-143 -23l-6 229l45 15l209 -25l45 -160v-551zM356 985l-6 168l8 41l4 -199zM600 498l-98 -6l-72 28l-55 41l125 -53l102 10zM381 936l2 22 l147 21zM483 840l-51 -37q2 -2 10 -19l162 -22q0 55 2 72zM432 1247l49 10l74 -4l57 -30zM455 803l53 12l86 -10v-14zM645 1196l31 -66l2 -63zM707 1108l10 74l2 -418zM713 610l8 133v-233zM823 911l-16 -237l6 -158l-80 -10l2 170l-8 516l76 6l12 -37l139 37l4 -280z M735 1212l41 27l17 -25zM848 864l-29 -180l19 199l112 6zM823 524l-4 133l10 -57zM825 1188l-6 24l123 7zM1217 510h-37q-66 0 -103 -2q-10 31 -43 154l-2 253q-25 0 -55 7l2 249l2 5q0 -6 4 -7l55 11l7 180l65 6l2 -209q49 -6 119 -16v-213h-127l2 -164l41 -39l55 33 l-8 129l61 -4l9 -203zM1028 1204l-45 -10l37 31l12 123zM1020 684l-8 197l-29 20l39 -4zM1036 565l-8 78l31 -123zM1147 756l-33 35l2 108l10 4l-4 -96l29 -35l37 10l4 -12zM1126 1180l-4 174l13 -158l63 -12l23 -23zM1257 580l-26 -68l33 131zM1245 948l-2 189l8 -101z M1294 944l9 66v-117zM1315 885l-2 145l213 4v-155zM1323 1051l90 24l94 -24h-184zM1417 829l-90 29l174 -2zM1573 631l-14 239l30 -282zM1882 580l-70 -50l-180 11l-28 26l-39 336l47 266l180 45l74 -26l53 -434zM1567 989l18 162l12 10zM1845 971l-53 10l-31 4l-78 -10 l-45 -27l-6 -117l74 -43l143 25l17 59zM1634 1200l66 39l74 -8zM1769 494l-96 8l-31 16l168 -6zM1704 811l-55 45l12 4l43 -33l68 7zM1849 852l-18 76l-53 18l-49 -12l-60 4l111 20l53 -14l18 -67zM1808 1227l35 6l21 -25zM1882 1165l16 -57l23 -254zM1913 614l-17 -22 l27 119zM1944 944l6 66l2 -117zM1964 885l-2 145l211 4l2 -155zM1972 1051l90 24l92 -24h-182zM2066 829l-92 29l176 -2zM2548 418l-41 -133l-150 -19l-139 8l-10 222l92 -19l172 10l8 27q-4 16 -8 43l-164 -25q-49 51 -70 68l-6 371l52 182l204 47h72zM2208 846l10 53 l8 -276zM2296 498l-84 20l90 -4l156 18l6 -18zM2228 1014l6 65l33 70zM2363 221l-127 27l127 -4l125 18zM2294 1180l43 39l127 4zM2480 948l-100 6l-86 -55l10 -108l145 -21l31 14v164zM2460 821l-2 90l-68 -8l-78 -35l2 21l82 35l68 4l4 -129zM2331 809l45 12l53 -24z M2488 1219l45 20l27 -20h-72zM2589 1108l10 74l2 -418zM2595 610l8 133v-233zM2705 911l-16 -237l4 -158l-80 -10l4 170l-8 516l74 6l12 -37l141 37l5 -280zM2617 1212l41 27l17 -25zM2730 864l-31 -180l21 199l112 6zM2703 524l-4 133l13 -57zM2705 1188l-4 24l121 7z M3127 471l-6 74l-108 -13l-144 64l-20 172l30 145l134 35l98 2v29l-82 25l-145 -23l-5 229l46 15l208 -25l45 -160v-551zM2863 985l-6 168l8 41l4 -199zM3107 498l-98 -6l-72 28l-55 41l124 -53l103 10zM2886 936l4 22l147 21zM2990 840l-51 -37q2 -2 10 -19l162 -22 q0 55 2 72zM2939 1247l49 10l74 -4l57 -30zM2961 803l54 12l86 -10v-14zM3152 1196l31 -66l2 -63zM3219 352l-6 174l19 260zM3232 834l-17 155l4 221zM3308 1184l167 47l64 -29l22 -33l29 -196l-24 -350l-115 -91h-45l-94 29l-4 -24l10 -195l-86 -4l10 483l-10 406l61 8z M3287 1253l-53 -6l28 21zM3318 1227l139 20l-143 -37l-11 35l9 2zM3318 958l-10 -73l4 -90l59 -4l141 34l4 105l-71 31zM3330 922l-4 -48l2 -43l41 -8l102 11l-104 -29l-47 6l-2 70l8 57h117zM3400 514l-70 8l-2 -12l-2 -162l-6 172l4 19zM3504 915l-2 -79l-6 71l-35 25z M3547 555l-72 -29l89 70zM3539 1219l-57 22l39 2zM3594 1081l2 -71l-24 147zM3598 764l-20 -115l20 289v-174zM3637 551l-10 59l8 338l4 -63zM3637 969l-8 139l8 274l8 -45zM3893 524l8 168l-20 246q-20 6 -61 25l-86 -72l-7 -367l-80 4l11 863l76 4l-3 -211l187 16l55 -227 l4 -441zM3664 1411l57 27l13 -21zM3748 553q-2 -16 -8 -29l4 318l10 -82q-6 -109 -6 -207zM3824 915l-19 -8l-47 -45l-14 4l53 49l29 21l37 -12zM3750 1210l47 21l111 -12zM3879 532l-2 150l-10 203l24 -201zM3932 1200l27 -53l8 -41l10 -92zM4006 868l20 279l13 2z M4024 639l-16 156l45 -234zM4299 514l-230 27l-51 274l35 340l217 45l31 -18l43 -279l-4 -125l-37 -6l-17 2l-190 -4l8 -61l58 -11l188 15l18 -13v-178zM4061 1184l4 24l187 6zM4182 483l-88 31l192 -22zM4250 1055l-9 6l-135 -21l-8 -63l57 -6h99l8 8zM4200 727l-63 4 l-18 12l204 9zM4123 999l2 13l112 12v-18zM4344 483l-41 15l65 6zM4315 1176l19 -48l14 -184zM4379 1108l10 74l2 -418zM4385 610l8 133v-233zM4495 911l-16 -237l6 -158l-80 -10l2 170l-8 516l76 6l12 -37l139 37l5 -280zM4407 1212l41 27l17 -25zM4520 864l-29 -180 l19 199l112 6zM4495 524l-4 133l11 -57zM4495 1188l-4 24l123 7zM3428 356l-2 21v16h15v-16l-4 -21h-9zM3453 356l-4 21v16h14v-16l-4 -21h-6zM3482 291v63h-11v11h11v8q0 20 20 20h12l-2 -10h-8q-10 0 -10 -12v-6h14v-11h-14v-63h-12zM3514 328q0 39 33 39q35 0 35 -37 q0 -41 -35 -41q-33 0 -33 39zM3527 328q0 -27 20 -27q23 0 23 27q0 29 -23 28q-20 1 -20 -28zM3596 291v74h13v-11q8 12 22 13q20 0 25 -19v-12v-45h-13v45q0 20 -14 20q-20 0 -20 -24v-41h-13zM3703 303l2 -12h-10q-18 0 -19 22v41h-8v11h8v18l14 8v-26h13v-11h-13v-43 q0 -10 7 -10q2 2 6 2zM3801 291v10q-8 -12 -20 -12q-31 0 -31 39t31 39q12 0 18 -11v37h14v-102h-12zM3762 328q0 -27 21 -27q18 0 18 27q0 29 -20 28q-19 1 -19 -28zM3883 315l12 -2q-6 -25 -32 -24q-35 0 -35 39t35 39q33 0 32 -39v-2h-55q2 -25 23 -25q14 0 20 14z M3842 336h41q-2 20 -20 20q-21 0 -21 -20zM3906 313l12 2q2 -14 18 -14q18 0 19 10q0 6 -17 11q-31 8 -30 24q0 20 26 21q27 0 29 -21l-12 -2q0 12 -15 12q-16 0 -16 -10q0 -6 16 -10q31 -8 31 -23q0 -25 -31 -24q-26 -1 -30 24zM3981 379v14h13v-14h-13zM3981 291v74h13 v-74h-13zM4010 285h12q2 -12 17 -13q16 0 20 13v16q-8 -10 -20 -10q-31 0 -31 37q0 39 31 39q14 0 22 -11v9h10v-64q0 -39 -32 -39q-29 0 -29 23zM4020 330q0 -29 21 -29q20 0 20 29q0 27 -20 26q-21 1 -21 -26zM4092 291v74h10v-11q8 12 23 13q23 0 24 -19q2 -2 2 -12v-45 h-12v45q0 20 -16 20q-18 0 -19 -24v-41h-12zM4219 315l14 -2q-6 -25 -33 -24q-35 0 -34 39q0 39 34 39q33 0 33 -39v-2h-55q2 -25 22 -25q15 0 19 14zM4178 336h43q-2 20 -21 20q-20 0 -22 -20zM4248 291v74h12v-11q6 12 14 13q8 0 15 -5l-5 -12q-6 4 -10 4q-14 0 -14 -24 v-39h-12zM4291 313l12 2q2 -14 18 -14t17 10q0 6 -17 11q-29 8 -28 24q0 20 26 21q27 0 29 -21l-12 -2q-2 12 -17 12q-14 0 -14 -10q0 -6 16 -10q31 -8 31 -23q0 -25 -31 -24q-26 -1 -30 24zM3475 121v10q-6 -12 -20 -12q-31 0 -31 39t31 39q12 0 20 -11v35h13v-100h-13z M3437 158q0 -29 20 -29q18 0 18 27q0 31 -18 30q-20 1 -20 -28zM3502 158q0 39 35 39t35 -39t-35 -39t-35 39zM3514 158q0 -29 23 -29q20 0 20 29t-20 28q-23 1 -23 -28zM3586 121v74h10v-11q8 12 25 13q20 0 24 -19v-12v-45h-12v45q0 18 -16 18q-18 0 -19 -22v-41h-12z M3664 186l-2 19v16h14v-16l-4 -19h-8zM3719 131v-10h-8q-18 0 -18 20v43h-9v11h9v18l12 6v-24h14v-11h-14v-43q0 -10 8 -10h6zM3770 121v74h11v-11q8 12 22 13q16 0 21 -15q8 14 22 15q23 0 23 -25v-51h-13v47q0 16 -12 16q-18 0 -18 -20v-43h-13v47q0 16 -12 16 q-18 0 -18 -24v-39h-13zM3934 129q-12 -10 -26 -10q-25 0 -25 20t29 25q16 0 22 4v2q0 16 -18 16q-14 0 -19 -14l-12 2q4 23 33 23q25 0 28 -17v-12v-16q0 -25 5 -31h-13zM3934 158q-12 -2 -24.5 -5t-12.5 -12q0 -12 15 -12q25 0 22 25v4zM3965 121v100h14v-57l29 31h16 l-28 -29l30 -45h-14l-25 37l-8 -8v-29h-14zM4086 145l14 -2q-6 -25 -33 -24q-35 0 -34 39q0 39 34 39q33 0 33 -39v-4h-55q2 -25 22 -25q15 0 19 16zM4045 164h41q0 23 -19 22q-20 1 -22 -22zM4202 147l13 -2q-4 -27 -31 -26q-33 0 -33 39t33 39q25 0 29 -25l-13 -2 q-2 16 -16 16q-20 0 -20 -28q0 -29 20 -29q16 0 18 18zM4272 129q-12 -10 -26 -10q-25 0 -25 20t29 25q14 0 22 4v2q0 16 -18 16q-14 0 -19 -14l-12 2q4 23 33 23q25 0 28 -17v-12v-16q0 -25 5 -31h-13q-4 4 -4 8zM4272 158q-12 -2 -22 -4q-16 -4 -17 -13q0 -12 17 -12 q25 0 22 25v4zM4303 121v74h12v-13q6 14 14 15q8 0 15 -4l-4 -13q-6 2 -11 2q-14 0 -14 -22v-39h-12zM4377 131l2 -10h-9q-18 0 -18 20v43h-8v11h8v18l12 6v-24h13v-11h-13v-43q0 -10 8 -10h5zM4385 143l12 2q2 -16 18 -16t17 12q0 6 -17 11q-29 8 -28 22q0 23 26 23 q27 0 29 -21l-12 -2q-2 12 -15 12q-16 0 -16 -10q0 -6 16 -10q31 -8 31 -23q0 -25 -31 -24q-26 -1 -30 24zM4461 186l-5 19v16h15v-16l-2 -19h-8zM4483 186l-2 19v16h12v-16l-2 -19h-8z" />
<glyph unicode=";" horiz-adv-x="1808" d="M770 264q-55 0 -94 -38t-39 -93t39 -94t94 -39t94 39t39 94t-39 93t-94 38zM1315 264q-55 0 -94 -38t-39 -93t39 -94t94 -39t94 39t39 94t-39 93t-94 38zM1722 1427h-1392l-56 152l-249 59l-25 -102l195 -47l311 -846h2l125 -340h840v107h-766l-86 233h917zM1577 1268v53 h12zM410 1212v0v0v0zM582 750l-72 196h6v160h-65l-39 106h104v109h107v-109h157v109h107v-109h160v109h106v-109h158v109h106v-109h146l-25 -106h-121v-160h84l-24 -104h-60v-92h-106v92h-158v-92h-106v92h-160v-92h-107v92h-157v-92h-41zM1311 1106h-158v-160h158v160z M1047 1106h-160v-160h160v160zM780 1106h-157v-160h157v160z" />
<glyph unicode="&#x3c;" horiz-adv-x="6727" d="M6232 662l-135 16l-141 -29l-142 6l-137 -34l-141 26l-135 -10l-152 31l43 -140l59 -116l144 -4l135 -13l137 37l133 -43l138 23l135 16l2 -123l-158 41l-152 -29l-149 13l-147 -17l-150 31l-147 -41l-52 121l-28 123l-68 98l4 2l-61 139l-56 144l-43 145l-63 135 l-39 148l-49 141l-203 49l25 90h139l137 -36l27 -191l168 21l147 16l150 -8l147 -37l148 41l149 -29l148 10h147l145 5l115 -17l-2 -108l-51 -129l-6 -140l-27 -133l-63 -121zM5018 1309l12 -95l-12 -6l86 -118l90 -17l-17 137l9 150zM5167 915l6 121l-76 -2zM5394 1313 l-168 12l-28 -121l39 -96l178 -37v141zM5226 788l162 -6l19 117l14 156l-195 -25l-16 -133l39 -129zM5317 248l-37 -101l39 -100l106 -47l86 66l25 81l-17 89l-94 14zM5458 1081l182 11l-26 118l12 93l-148 2l13 -101zM5478 1012l-41 -117l17 -145l192 8l17 141l-19 133z M5863 1300l-157 23l-23 -119l4 -137l213 -6l-20 149zM5708 772l172 -8v135l4 135l-180 -6l28 -133zM5886 256l-12 -109l10 -114l117 -2l118 2l43 114l-81 70l-80 33zM5939 1090l166 18l21 102l10 144l-213 -2l10 -148zM5933 754l195 -2l-29 147l16 127l-188 23zM6296 1333 l-127 4l-5 -133l17 -117h47l61 115zM6177 905l6 129l24 -10zM8 653l-8 84l25 353zM55 518l-37 86l54 -88zM86 518l-66 111l21 487l111 80l167 -25l7 -241l-226 -2l-16 -72l20 -74l220 -12l2 -244zM43 1145l37 55l53 6zM117 889l-6 -41l8 -19l160 -26l-164 6l-15 39l13 59 h204zM254 475l-150 23l215 2zM317 1219l2 -23l-161 16zM621 471l-7 74l-108 -13l-144 64l-18 172l29 145l133 35l98 2v29l-82 25l-143 -23l-6 229l45 15l209 -25l45 -160v-551zM356 985l-6 168l8 41l4 -199zM600 498l-98 -6l-72 28l-55 41l125 -53l102 10zM381 936l2 22 l147 21zM483 840l-51 -37q2 -2 10 -19l162 -22q0 55 2 72zM432 1247l49 10l74 -4l57 -30zM455 803l53 12l86 -10v-14zM645 1196l31 -66l2 -63zM707 1108l10 74l2 -418zM713 610l8 133v-233zM823 911l-16 -237l6 -158l-80 -10l2 170l-8 516l76 6l12 -37l139 37l4 -280z M735 1212l41 27l17 -25zM848 864l-29 -180l19 199l112 6zM823 524l-4 133l10 -57zM825 1188l-6 24l123 7zM1217 510h-37q-66 0 -103 -2q-10 31 -43 154l-2 253q-25 0 -55 7l2 249l2 5q0 -6 4 -7l55 11l7 180l65 6l2 -209q49 -6 119 -16v-213h-127l2 -164l41 -39l55 33 l-8 129l61 -4l9 -203zM1028 1204l-45 -10l37 31l12 123zM1020 684l-8 197l-29 20l39 -4zM1036 565l-8 78l31 -123zM1147 756l-33 35l2 108l10 4l-4 -96l29 -35l37 10l4 -12zM1126 1180l-4 174l13 -158l63 -12l23 -23zM1257 580l-26 -68l33 131zM1245 948l-2 189l8 -101z M1294 944l9 66v-117zM1315 885l-2 145l213 4v-155zM1323 1051l90 24l94 -24h-184zM1417 829l-90 29l174 -2zM1573 631l-14 239l30 -282zM1882 580l-70 -50l-180 11l-28 26l-39 336l47 266l180 45l74 -26l53 -434zM1567 989l18 162l12 10zM1845 971l-53 10l-31 4l-78 -10 l-45 -27l-6 -117l74 -43l143 25l17 59zM1634 1200l66 39l74 -8zM1769 494l-96 8l-31 16l168 -6zM1704 811l-55 45l12 4l43 -33l68 7zM1849 852l-18 76l-53 18l-49 -12l-60 4l111 20l53 -14l18 -67zM1808 1227l35 6l21 -25zM1882 1165l16 -57l23 -254zM1913 614l-17 -22 l27 119zM1944 944l6 66l2 -117zM1964 885l-2 145l211 4l2 -155zM1972 1051l90 24l92 -24h-182zM2066 829l-92 29l176 -2zM2548 418l-41 -133l-150 -19l-139 8l-10 222l92 -19l172 10l8 27q-4 16 -8 43l-164 -25q-49 51 -70 68l-6 371l52 182l204 47h72zM2208 846l10 53 l8 -276zM2296 498l-84 20l90 -4l156 18l6 -18zM2228 1014l6 65l33 70zM2363 221l-127 27l127 -4l125 18zM2294 1180l43 39l127 4zM2480 948l-100 6l-86 -55l10 -108l145 -21l31 14v164zM2460 821l-2 90l-68 -8l-78 -35l2 21l82 35l68 4l4 -129zM2331 809l45 12l53 -24z M2488 1219l45 20l27 -20h-72zM2589 1108l10 74l2 -418zM2595 610l8 133v-233zM2705 911l-16 -237l4 -158l-80 -10l4 170l-8 516l74 6l12 -37l141 37l5 -280zM2617 1212l41 27l17 -25zM2730 864l-31 -180l21 199l112 6zM2703 524l-4 133l13 -57zM2705 1188l-4 24l121 7z M3127 471l-6 74l-108 -13l-144 64l-20 172l30 145l134 35l98 2v29l-82 25l-145 -23l-5 229l46 15l208 -25l45 -160v-551zM2863 985l-6 168l8 41l4 -199zM3107 498l-98 -6l-72 28l-55 41l124 -53l103 10zM2886 936l4 22l147 21zM2990 840l-51 -37q2 -2 10 -19l162 -22 q0 55 2 72zM2939 1247l49 10l74 -4l57 -30zM2961 803l54 12l86 -10v-14zM3152 1196l31 -66l2 -63zM3219 352l-6 174l19 260zM3232 834l-17 155l4 221zM3308 1184l167 47l64 -29l22 -33l29 -196l-24 -350l-115 -91h-45l-94 29l-4 -24l10 -195l-86 -4l10 483l-10 406l61 8z M3287 1253l-53 -6l28 21zM3318 1227l139 20l-143 -37l-11 35l9 2zM3318 958l-10 -73l4 -90l59 -4l141 34l4 105l-71 31zM3330 922l-4 -48l2 -43l41 -8l102 11l-104 -29l-47 6l-2 70l8 57h117zM3400 514l-70 8l-2 -12l-2 -162l-6 172l4 19zM3504 915l-2 -79l-6 71l-35 25z M3547 555l-72 -29l89 70zM3539 1219l-57 22l39 2zM3594 1081l2 -71l-24 147zM3598 764l-20 -115l20 289v-174zM3637 551l-10 59l8 338l4 -63zM3637 969l-8 139l8 274l8 -45zM3893 524l8 168l-20 246q-20 6 -61 25l-86 -72l-7 -367l-80 4l11 863l76 4l-3 -211l187 16l55 -227 l4 -441zM3664 1411l57 27l13 -21zM3748 553q-2 -16 -8 -29l4 318l10 -82q-6 -109 -6 -207zM3824 915l-19 -8l-47 -45l-14 4l53 49l29 21l37 -12zM3750 1210l47 21l111 -12zM3879 532l-2 150l-10 203l24 -201zM3932 1200l27 -53l8 -41l10 -92zM4006 868l20 279l13 2z M4024 639l-16 156l45 -234zM4299 514l-230 27l-51 274l35 340l217 45l31 -18l43 -279l-4 -125l-37 -6l-17 2l-190 -4l8 -61l58 -11l188 15l18 -13v-178zM4061 1184l4 24l187 6zM4182 483l-88 31l192 -22zM4250 1055l-9 6l-135 -21l-8 -63l57 -6h99l8 8zM4200 727l-63 4 l-18 12l204 9zM4123 999l2 13l112 12v-18zM4344 483l-41 15l65 6zM4315 1176l19 -48l14 -184zM4379 1108l10 74l2 -418zM4385 610l8 133v-233zM4495 911l-16 -237l6 -158l-80 -10l2 170l-8 516l76 6l12 -37l139 37l5 -280zM4407 1212l41 27l17 -25zM4520 864l-29 -180 l19 199l112 6zM4495 524l-4 133l11 -57zM4495 1188l-4 24l123 7zM3428 356l-2 21v16h15v-16l-4 -21h-9zM3453 356l-4 21v16h14v-16l-4 -21h-6zM3482 291v63h-11v11h11v8q0 20 20 20h12l-2 -10h-8q-10 0 -10 -12v-6h14v-11h-14v-63h-12zM3514 328q0 39 33 39q35 0 35 -37 q0 -41 -35 -41q-33 0 -33 39zM3527 328q0 -27 20 -27q23 0 23 27q0 29 -23 28q-20 1 -20 -28zM3596 291v74h13v-11q8 12 22 13q20 0 25 -19v-12v-45h-13v45q0 20 -14 20q-20 0 -20 -24v-41h-13zM3703 303l2 -12h-10q-18 0 -19 22v41h-8v11h8v18l14 8v-26h13v-11h-13v-43 q0 -10 7 -10q2 2 6 2zM3801 291v10q-8 -12 -20 -12q-31 0 -31 39t31 39q12 0 18 -11v37h14v-102h-12zM3762 328q0 -27 21 -27q18 0 18 27q0 29 -20 28q-19 1 -19 -28zM3883 315l12 -2q-6 -25 -32 -24q-35 0 -35 39t35 39q33 0 32 -39v-2h-55q2 -25 23 -25q14 0 20 14z M3842 336h41q-2 20 -20 20q-21 0 -21 -20zM3906 313l12 2q2 -14 18 -14q18 0 19 10q0 6 -17 11q-31 8 -30 24q0 20 26 21q27 0 29 -21l-12 -2q0 12 -15 12q-16 0 -16 -10q0 -6 16 -10q31 -8 31 -23q0 -25 -31 -24q-26 -1 -30 24zM3981 379v14h13v-14h-13zM3981 291v74h13 v-74h-13zM4010 285h12q2 -12 17 -13q16 0 20 13v16q-8 -10 -20 -10q-31 0 -31 37q0 39 31 39q14 0 22 -11v9h10v-64q0 -39 -32 -39q-29 0 -29 23zM4020 330q0 -29 21 -29q20 0 20 29q0 27 -20 26q-21 1 -21 -26zM4092 291v74h10v-11q8 12 23 13q23 0 24 -19q2 -2 2 -12v-45 h-12v45q0 20 -16 20q-18 0 -19 -24v-41h-12zM4219 315l14 -2q-6 -25 -33 -24q-35 0 -34 39q0 39 34 39q33 0 33 -39v-2h-55q2 -25 22 -25q15 0 19 14zM4178 336h43q-2 20 -21 20q-20 0 -22 -20zM4248 291v74h12v-11q6 12 14 13q8 0 15 -5l-5 -12q-6 4 -10 4q-14 0 -14 -24 v-39h-12zM4291 313l12 2q2 -14 18 -14t17 10q0 6 -17 11q-29 8 -28 24q0 20 26 21q27 0 29 -21l-12 -2q-2 12 -17 12q-14 0 -14 -10q0 -6 16 -10q31 -8 31 -23q0 -25 -31 -24q-26 -1 -30 24zM3475 121v10q-6 -12 -20 -12q-31 0 -31 39t31 39q12 0 20 -11v35h13v-100h-13z M3437 158q0 -29 20 -29q18 0 18 27q0 31 -18 30q-20 1 -20 -28zM3502 158q0 39 35 39t35 -39t-35 -39t-35 39zM3514 158q0 -29 23 -29q20 0 20 29t-20 28q-23 1 -23 -28zM3586 121v74h10v-11q8 12 25 13q20 0 24 -19v-12v-45h-12v45q0 18 -16 18q-18 0 -19 -22v-41h-12z M3664 186l-2 19v16h14v-16l-4 -19h-8zM3719 131v-10h-8q-18 0 -18 20v43h-9v11h9v18l12 6v-24h14v-11h-14v-43q0 -10 8 -10h6zM3770 121v74h11v-11q8 12 22 13q16 0 21 -15q8 14 22 15q23 0 23 -25v-51h-13v47q0 16 -12 16q-18 0 -18 -20v-43h-13v47q0 16 -12 16 q-18 0 -18 -24v-39h-13zM3934 129q-12 -10 -26 -10q-25 0 -25 20t29 25q16 0 22 4v2q0 16 -18 16q-14 0 -19 -14l-12 2q4 23 33 23q25 0 28 -17v-12v-16q0 -25 5 -31h-13zM3934 158q-12 -2 -24.5 -5t-12.5 -12q0 -12 15 -12q25 0 22 25v4zM3965 121v100h14v-57l29 31h16 l-28 -29l30 -45h-14l-25 37l-8 -8v-29h-14zM4086 145l14 -2q-6 -25 -33 -24q-35 0 -34 39q0 39 34 39q33 0 33 -39v-4h-55q2 -25 22 -25q15 0 19 16zM4045 164h41q0 23 -19 22q-20 1 -22 -22zM4202 147l13 -2q-4 -27 -31 -26q-33 0 -33 39t33 39q25 0 29 -25l-13 -2 q-2 16 -16 16q-20 0 -20 -28q0 -29 20 -29q16 0 18 18zM4272 129q-12 -10 -26 -10q-25 0 -25 20t29 25q14 0 22 4v2q0 16 -18 16q-14 0 -19 -14l-12 2q4 23 33 23q25 0 28 -17v-12v-16q0 -25 5 -31h-13q-4 4 -4 8zM4272 158q-12 -2 -22 -4q-16 -4 -17 -13q0 -12 17 -12 q25 0 22 25v4zM4303 121v74h12v-13q6 14 14 15q8 0 15 -4l-4 -13q-6 2 -11 2q-14 0 -14 -22v-39h-12zM4377 131l2 -10h-9q-18 0 -18 20v43h-8v11h8v18l12 6v-24h13v-11h-13v-43q0 -10 8 -10h5zM4385 143l12 2q2 -16 18 -16t17 12q0 6 -17 11q-29 8 -28 22q0 23 26 23 q27 0 29 -21l-12 -2q-2 12 -15 12q-16 0 -16 -10q0 -6 16 -10q31 -8 31 -23q0 -25 -31 -24q-26 -1 -30 24zM4461 186l-5 19v16h15v-16l-2 -19h-8zM4483 186l-2 19v16h12v-16l-2 -19h-8z" />
<glyph unicode="=" horiz-adv-x="2023" d="M1737 514l190 813l-117 27l-168 -719h-985l-192 522h-2l-152 414l-282 67l-29 -116l219 -52l352 -956h2l80 -215q-47 -51 -47 -119q0 -76 52.5 -128t127.5 -52q61 0 108.5 37t63.5 94h365q16 -57 64.5 -94t109.5 -37q74 0 126 52t52 128q0 35 -14 70v2v0 q-47 106 -164 106q-119 0 -166 -106h-381q-47 106 -164 106q-12 0 -26 -2l-60 158h1037zM1606 999q45 0 76.5 32t31.5 77q0 43 -31.5 74.5t-76.5 31.5t-76 -31.5t-31 -74.5q0 -45 31 -77t76 -32zM1282 999q45 0 77 32t32 77q0 43 -32 74.5t-77 31.5q-43 0 -74.5 -31.5 t-31.5 -74.5q0 -45 31.5 -77t74.5 -32zM961 999q43 0 74.5 32t31.5 77q0 43 -31.5 74.5t-74.5 31.5q-45 0 -77 -31.5t-32 -74.5q0 -45 32 -77t77 -32zM637 999q45 0 75.5 32t30.5 77q0 43 -30.5 74.5t-75.5 31.5t-77 -31.5t-32 -74.5q0 -45 32 -77t77 -32zM1337 819 q0 -43 31 -74.5t76 -31.5t76.5 31.5t31.5 74.5q0 45 -31.5 77t-76.5 32t-76 -32t-31 -77zM1014 819q0 -43 31.5 -74.5t74.5 -31.5q45 0 77 31.5t32 74.5q0 45 -32 77t-77 32q-43 0 -74.5 -32t-31.5 -77zM690 819q0 -43 32 -74.5t77 -31.5q43 0 74.5 31.5t31.5 74.5 q0 45 -31.5 77t-74.5 32q-45 0 -77 -32t-32 -77z" />
<glyph unicode="&#x3e;" horiz-adv-x="6727" d="M6232 662l-135 16l-141 -29l-142 6l-137 -34l-141 26l-135 -10l-152 31l43 -140l59 -116l144 -4l135 -13l137 37l133 -43l138 23l135 16l2 -123l-158 41l-152 -29l-149 13l-147 -17l-150 31l-147 -41l-52 121l-28 123l-68 98l4 2l-61 139l-56 144l-43 145l-63 135 l-39 148l-49 141l-203 49l25 90h139l137 -36l27 -191l168 21l147 16l150 -8l147 -37l148 41l149 -29l148 10h147l145 5l115 -17l-2 -108l-51 -129l-6 -140l-27 -133l-63 -121zM5018 1309l12 -95l-12 -6l86 -118l90 -17l-17 137l9 150zM5167 915l6 121l-76 -2zM5394 1313 l-168 12l-28 -121l39 -96l178 -37v141zM5226 788l162 -6l19 117l14 156l-195 -25l-16 -133l39 -129zM5317 248l-37 -101l39 -100l106 -47l86 66l25 81l-17 89l-94 14zM5458 1081l182 11l-26 118l12 93l-148 2l13 -101zM5478 1012l-41 -117l17 -145l192 8l17 141l-19 133z M5863 1300l-157 23l-23 -119l4 -137l213 -6l-20 149zM5708 772l172 -8v135l4 135l-180 -6l28 -133zM5886 256l-12 -109l10 -114l117 -2l118 2l43 114l-81 70l-80 33zM5939 1090l166 18l21 102l10 144l-213 -2l10 -148zM5933 754l195 -2l-29 147l16 127l-188 23zM6296 1333 l-127 4l-5 -133l17 -117h47l61 115zM6177 905l6 129l24 -10zM8 653l-8 84l25 353zM55 518l-37 86l54 -88zM86 518l-66 111l21 487l111 80l167 -25l7 -241l-226 -2l-16 -72l20 -74l220 -12l2 -244zM43 1145l37 55l53 6zM117 889l-6 -41l8 -19l160 -26l-164 6l-15 39l13 59 h204zM254 475l-150 23l215 2zM317 1219l2 -23l-161 16zM621 471l-7 74l-108 -13l-144 64l-18 172l29 145l133 35l98 2v29l-82 25l-143 -23l-6 229l45 15l209 -25l45 -160v-551zM356 985l-6 168l8 41l4 -199zM600 498l-98 -6l-72 28l-55 41l125 -53l102 10zM381 936l2 22 l147 21zM483 840l-51 -37q2 -2 10 -19l162 -22q0 55 2 72zM432 1247l49 10l74 -4l57 -30zM455 803l53 12l86 -10v-14zM645 1196l31 -66l2 -63zM707 1108l10 74l2 -418zM713 610l8 133v-233zM823 911l-16 -237l6 -158l-80 -10l2 170l-8 516l76 6l12 -37l139 37l4 -280z M735 1212l41 27l17 -25zM848 864l-29 -180l19 199l112 6zM823 524l-4 133l10 -57zM825 1188l-6 24l123 7zM1217 510h-37q-66 0 -103 -2q-10 31 -43 154l-2 253q-25 0 -55 7l2 249l2 5q0 -6 4 -7l55 11l7 180l65 6l2 -209q49 -6 119 -16v-213h-127l2 -164l41 -39l55 33 l-8 129l61 -4l9 -203zM1028 1204l-45 -10l37 31l12 123zM1020 684l-8 197l-29 20l39 -4zM1036 565l-8 78l31 -123zM1147 756l-33 35l2 108l10 4l-4 -96l29 -35l37 10l4 -12zM1126 1180l-4 174l13 -158l63 -12l23 -23zM1257 580l-26 -68l33 131zM1245 948l-2 189l8 -101z M1294 944l9 66v-117zM1315 885l-2 145l213 4v-155zM1323 1051l90 24l94 -24h-184zM1417 829l-90 29l174 -2zM1573 631l-14 239l30 -282zM1882 580l-70 -50l-180 11l-28 26l-39 336l47 266l180 45l74 -26l53 -434zM1567 989l18 162l12 10zM1845 971l-53 10l-31 4l-78 -10 l-45 -27l-6 -117l74 -43l143 25l17 59zM1634 1200l66 39l74 -8zM1769 494l-96 8l-31 16l168 -6zM1704 811l-55 45l12 4l43 -33l68 7zM1849 852l-18 76l-53 18l-49 -12l-60 4l111 20l53 -14l18 -67zM1808 1227l35 6l21 -25zM1882 1165l16 -57l23 -254zM1913 614l-17 -22 l27 119zM1944 944l6 66l2 -117zM1964 885l-2 145l211 4l2 -155zM1972 1051l90 24l92 -24h-182zM2066 829l-92 29l176 -2zM2548 418l-41 -133l-150 -19l-139 8l-10 222l92 -19l172 10l8 27q-4 16 -8 43l-164 -25q-49 51 -70 68l-6 371l52 182l204 47h72zM2208 846l10 53 l8 -276zM2296 498l-84 20l90 -4l156 18l6 -18zM2228 1014l6 65l33 70zM2363 221l-127 27l127 -4l125 18zM2294 1180l43 39l127 4zM2480 948l-100 6l-86 -55l10 -108l145 -21l31 14v164zM2460 821l-2 90l-68 -8l-78 -35l2 21l82 35l68 4l4 -129zM2331 809l45 12l53 -24z M2488 1219l45 20l27 -20h-72zM2589 1108l10 74l2 -418zM2595 610l8 133v-233zM2705 911l-16 -237l4 -158l-80 -10l4 170l-8 516l74 6l12 -37l141 37l5 -280zM2617 1212l41 27l17 -25zM2730 864l-31 -180l21 199l112 6zM2703 524l-4 133l13 -57zM2705 1188l-4 24l121 7z M3127 471l-6 74l-108 -13l-144 64l-20 172l30 145l134 35l98 2v29l-82 25l-145 -23l-5 229l46 15l208 -25l45 -160v-551zM2863 985l-6 168l8 41l4 -199zM3107 498l-98 -6l-72 28l-55 41l124 -53l103 10zM2886 936l4 22l147 21zM2990 840l-51 -37q2 -2 10 -19l162 -22 q0 55 2 72zM2939 1247l49 10l74 -4l57 -30zM2961 803l54 12l86 -10v-14zM3152 1196l31 -66l2 -63zM3219 352l-6 174l19 260zM3232 834l-17 155l4 221zM3308 1184l167 47l64 -29l22 -33l29 -196l-24 -350l-115 -91h-45l-94 29l-4 -24l10 -195l-86 -4l10 483l-10 406l61 8z M3287 1253l-53 -6l28 21zM3318 1227l139 20l-143 -37l-11 35l9 2zM3318 958l-10 -73l4 -90l59 -4l141 34l4 105l-71 31zM3330 922l-4 -48l2 -43l41 -8l102 11l-104 -29l-47 6l-2 70l8 57h117zM3400 514l-70 8l-2 -12l-2 -162l-6 172l4 19zM3504 915l-2 -79l-6 71l-35 25z M3547 555l-72 -29l89 70zM3539 1219l-57 22l39 2zM3594 1081l2 -71l-24 147zM3598 764l-20 -115l20 289v-174zM3637 551l-10 59l8 338l4 -63zM3637 969l-8 139l8 274l8 -45zM3893 524l8 168l-20 246q-20 6 -61 25l-86 -72l-7 -367l-80 4l11 863l76 4l-3 -211l187 16l55 -227 l4 -441zM3664 1411l57 27l13 -21zM3748 553q-2 -16 -8 -29l4 318l10 -82q-6 -109 -6 -207zM3824 915l-19 -8l-47 -45l-14 4l53 49l29 21l37 -12zM3750 1210l47 21l111 -12zM3879 532l-2 150l-10 203l24 -201zM3932 1200l27 -53l8 -41l10 -92zM4006 868l20 279l13 2z M4024 639l-16 156l45 -234zM4299 514l-230 27l-51 274l35 340l217 45l31 -18l43 -279l-4 -125l-37 -6l-17 2l-190 -4l8 -61l58 -11l188 15l18 -13v-178zM4061 1184l4 24l187 6zM4182 483l-88 31l192 -22zM4250 1055l-9 6l-135 -21l-8 -63l57 -6h99l8 8zM4200 727l-63 4 l-18 12l204 9zM4123 999l2 13l112 12v-18zM4344 483l-41 15l65 6zM4315 1176l19 -48l14 -184zM4379 1108l10 74l2 -418zM4385 610l8 133v-233zM4495 911l-16 -237l6 -158l-80 -10l2 170l-8 516l76 6l12 -37l139 37l5 -280zM4407 1212l41 27l17 -25zM4520 864l-29 -180 l19 199l112 6zM4495 524l-4 133l11 -57zM4495 1188l-4 24l123 7zM3428 356l-2 21v16h15v-16l-4 -21h-9zM3453 356l-4 21v16h14v-16l-4 -21h-6zM3482 291v63h-11v11h11v8q0 20 20 20h12l-2 -10h-8q-10 0 -10 -12v-6h14v-11h-14v-63h-12zM3514 328q0 39 33 39q35 0 35 -37 q0 -41 -35 -41q-33 0 -33 39zM3527 328q0 -27 20 -27q23 0 23 27q0 29 -23 28q-20 1 -20 -28zM3596 291v74h13v-11q8 12 22 13q20 0 25 -19v-12v-45h-13v45q0 20 -14 20q-20 0 -20 -24v-41h-13zM3703 303l2 -12h-10q-18 0 -19 22v41h-8v11h8v18l14 8v-26h13v-11h-13v-43 q0 -10 7 -10q2 2 6 2zM3801 291v10q-8 -12 -20 -12q-31 0 -31 39t31 39q12 0 18 -11v37h14v-102h-12zM3762 328q0 -27 21 -27q18 0 18 27q0 29 -20 28q-19 1 -19 -28zM3883 315l12 -2q-6 -25 -32 -24q-35 0 -35 39t35 39q33 0 32 -39v-2h-55q2 -25 23 -25q14 0 20 14z M3842 336h41q-2 20 -20 20q-21 0 -21 -20zM3906 313l12 2q2 -14 18 -14q18 0 19 10q0 6 -17 11q-31 8 -30 24q0 20 26 21q27 0 29 -21l-12 -2q0 12 -15 12q-16 0 -16 -10q0 -6 16 -10q31 -8 31 -23q0 -25 -31 -24q-26 -1 -30 24zM3981 379v14h13v-14h-13zM3981 291v74h13 v-74h-13zM4010 285h12q2 -12 17 -13q16 0 20 13v16q-8 -10 -20 -10q-31 0 -31 37q0 39 31 39q14 0 22 -11v9h10v-64q0 -39 -32 -39q-29 0 -29 23zM4020 330q0 -29 21 -29q20 0 20 29q0 27 -20 26q-21 1 -21 -26zM4092 291v74h10v-11q8 12 23 13q23 0 24 -19q2 -2 2 -12v-45 h-12v45q0 20 -16 20q-18 0 -19 -24v-41h-12zM4219 315l14 -2q-6 -25 -33 -24q-35 0 -34 39q0 39 34 39q33 0 33 -39v-2h-55q2 -25 22 -25q15 0 19 14zM4178 336h43q-2 20 -21 20q-20 0 -22 -20zM4248 291v74h12v-11q6 12 14 13q8 0 15 -5l-5 -12q-6 4 -10 4q-14 0 -14 -24 v-39h-12zM4291 313l12 2q2 -14 18 -14t17 10q0 6 -17 11q-29 8 -28 24q0 20 26 21q27 0 29 -21l-12 -2q-2 12 -17 12q-14 0 -14 -10q0 -6 16 -10q31 -8 31 -23q0 -25 -31 -24q-26 -1 -30 24zM3475 121v10q-6 -12 -20 -12q-31 0 -31 39t31 39q12 0 20 -11v35h13v-100h-13z M3437 158q0 -29 20 -29q18 0 18 27q0 31 -18 30q-20 1 -20 -28zM3502 158q0 39 35 39t35 -39t-35 -39t-35 39zM3514 158q0 -29 23 -29q20 0 20 29t-20 28q-23 1 -23 -28zM3586 121v74h10v-11q8 12 25 13q20 0 24 -19v-12v-45h-12v45q0 18 -16 18q-18 0 -19 -22v-41h-12z M3664 186l-2 19v16h14v-16l-4 -19h-8zM3719 131v-10h-8q-18 0 -18 20v43h-9v11h9v18l12 6v-24h14v-11h-14v-43q0 -10 8 -10h6zM3770 121v74h11v-11q8 12 22 13q16 0 21 -15q8 14 22 15q23 0 23 -25v-51h-13v47q0 16 -12 16q-18 0 -18 -20v-43h-13v47q0 16 -12 16 q-18 0 -18 -24v-39h-13zM3934 129q-12 -10 -26 -10q-25 0 -25 20t29 25q16 0 22 4v2q0 16 -18 16q-14 0 -19 -14l-12 2q4 23 33 23q25 0 28 -17v-12v-16q0 -25 5 -31h-13zM3934 158q-12 -2 -24.5 -5t-12.5 -12q0 -12 15 -12q25 0 22 25v4zM3965 121v100h14v-57l29 31h16 l-28 -29l30 -45h-14l-25 37l-8 -8v-29h-14zM4086 145l14 -2q-6 -25 -33 -24q-35 0 -34 39q0 39 34 39q33 0 33 -39v-4h-55q2 -25 22 -25q15 0 19 16zM4045 164h41q0 23 -19 22q-20 1 -22 -22zM4202 147l13 -2q-4 -27 -31 -26q-33 0 -33 39t33 39q25 0 29 -25l-13 -2 q-2 16 -16 16q-20 0 -20 -28q0 -29 20 -29q16 0 18 18zM4272 129q-12 -10 -26 -10q-25 0 -25 20t29 25q14 0 22 4v2q0 16 -18 16q-14 0 -19 -14l-12 2q4 23 33 23q25 0 28 -17v-12v-16q0 -25 5 -31h-13q-4 4 -4 8zM4272 158q-12 -2 -22 -4q-16 -4 -17 -13q0 -12 17 -12 q25 0 22 25v4zM4303 121v74h12v-13q6 14 14 15q8 0 15 -4l-4 -13q-6 2 -11 2q-14 0 -14 -22v-39h-12zM4377 131l2 -10h-9q-18 0 -18 20v43h-8v11h8v18l12 6v-24h13v-11h-13v-43q0 -10 8 -10h5zM4385 143l12 2q2 -16 18 -16t17 12q0 6 -17 11q-29 8 -28 22q0 23 26 23 q27 0 29 -21l-12 -2q-2 12 -15 12q-16 0 -16 -10q0 -6 16 -10q31 -8 31 -23q0 -25 -31 -24q-26 -1 -30 24zM4461 186l-5 19v16h15v-16l-2 -19h-8zM4483 186l-2 19v16h12v-16l-2 -19h-8z" />
<glyph unicode="?" horiz-adv-x="6727" d="M6232 662l-135 16l-141 -29l-142 6l-137 -34l-141 26l-135 -10l-152 31l43 -140l59 -116l144 -4l135 -13l137 37l133 -43l138 23l135 16l2 -123l-158 41l-152 -29l-149 13l-147 -17l-150 31l-147 -41l-52 121l-28 123l-68 98l4 2l-61 139l-56 144l-43 145l-63 135 l-39 148l-49 141l-203 49l25 90h139l137 -36l27 -191l168 21l147 16l150 -8l147 -37l148 41l149 -29l148 10h147l145 5l115 -17l-2 -108l-51 -129l-6 -140l-27 -133l-63 -121zM5018 1309l12 -95l-12 -6l86 -118l90 -17l-17 137l9 150zM5167 915l6 121l-76 -2zM5394 1313 l-168 12l-28 -121l39 -96l178 -37v141zM5226 788l162 -6l19 117l14 156l-195 -25l-16 -133l39 -129zM5317 248l-37 -101l39 -100l106 -47l86 66l25 81l-17 89l-94 14zM5458 1081l182 11l-26 118l12 93l-148 2l13 -101zM5478 1012l-41 -117l17 -145l192 8l17 141l-19 133z M5863 1300l-157 23l-23 -119l4 -137l213 -6l-20 149zM5708 772l172 -8v135l4 135l-180 -6l28 -133zM5886 256l-12 -109l10 -114l117 -2l118 2l43 114l-81 70l-80 33zM5939 1090l166 18l21 102l10 144l-213 -2l10 -148zM5933 754l195 -2l-29 147l16 127l-188 23zM6296 1333 l-127 4l-5 -133l17 -117h47l61 115zM6177 905l6 129l24 -10zM8 653l-8 84l25 353zM55 518l-37 86l54 -88zM86 518l-66 111l21 487l111 80l167 -25l7 -241l-226 -2l-16 -72l20 -74l220 -12l2 -244zM43 1145l37 55l53 6zM117 889l-6 -41l8 -19l160 -26l-164 6l-15 39l13 59 h204zM254 475l-150 23l215 2zM317 1219l2 -23l-161 16zM621 471l-7 74l-108 -13l-144 64l-18 172l29 145l133 35l98 2v29l-82 25l-143 -23l-6 229l45 15l209 -25l45 -160v-551zM356 985l-6 168l8 41l4 -199zM600 498l-98 -6l-72 28l-55 41l125 -53l102 10zM381 936l2 22 l147 21zM483 840l-51 -37q2 -2 10 -19l162 -22q0 55 2 72zM432 1247l49 10l74 -4l57 -30zM455 803l53 12l86 -10v-14zM645 1196l31 -66l2 -63zM707 1108l10 74l2 -418zM713 610l8 133v-233zM823 911l-16 -237l6 -158l-80 -10l2 170l-8 516l76 6l12 -37l139 37l4 -280z M735 1212l41 27l17 -25zM848 864l-29 -180l19 199l112 6zM823 524l-4 133l10 -57zM825 1188l-6 24l123 7zM1217 510h-37q-66 0 -103 -2q-10 31 -43 154l-2 253q-25 0 -55 7l2 249l2 5q0 -6 4 -7l55 11l7 180l65 6l2 -209q49 -6 119 -16v-213h-127l2 -164l41 -39l55 33 l-8 129l61 -4l9 -203zM1028 1204l-45 -10l37 31l12 123zM1020 684l-8 197l-29 20l39 -4zM1036 565l-8 78l31 -123zM1147 756l-33 35l2 108l10 4l-4 -96l29 -35l37 10l4 -12zM1126 1180l-4 174l13 -158l63 -12l23 -23zM1257 580l-26 -68l33 131zM1245 948l-2 189l8 -101z M1294 944l9 66v-117zM1315 885l-2 145l213 4v-155zM1323 1051l90 24l94 -24h-184zM1417 829l-90 29l174 -2zM1573 631l-14 239l30 -282zM1882 580l-70 -50l-180 11l-28 26l-39 336l47 266l180 45l74 -26l53 -434zM1567 989l18 162l12 10zM1845 971l-53 10l-31 4l-78 -10 l-45 -27l-6 -117l74 -43l143 25l17 59zM1634 1200l66 39l74 -8zM1769 494l-96 8l-31 16l168 -6zM1704 811l-55 45l12 4l43 -33l68 7zM1849 852l-18 76l-53 18l-49 -12l-60 4l111 20l53 -14l18 -67zM1808 1227l35 6l21 -25zM1882 1165l16 -57l23 -254zM1913 614l-17 -22 l27 119zM1944 944l6 66l2 -117zM1964 885l-2 145l211 4l2 -155zM1972 1051l90 24l92 -24h-182zM2066 829l-92 29l176 -2zM2548 418l-41 -133l-150 -19l-139 8l-10 222l92 -19l172 10l8 27q-4 16 -8 43l-164 -25q-49 51 -70 68l-6 371l52 182l204 47h72zM2208 846l10 53 l8 -276zM2296 498l-84 20l90 -4l156 18l6 -18zM2228 1014l6 65l33 70zM2363 221l-127 27l127 -4l125 18zM2294 1180l43 39l127 4zM2480 948l-100 6l-86 -55l10 -108l145 -21l31 14v164zM2460 821l-2 90l-68 -8l-78 -35l2 21l82 35l68 4l4 -129zM2331 809l45 12l53 -24z M2488 1219l45 20l27 -20h-72zM2589 1108l10 74l2 -418zM2595 610l8 133v-233zM2705 911l-16 -237l4 -158l-80 -10l4 170l-8 516l74 6l12 -37l141 37l5 -280zM2617 1212l41 27l17 -25zM2730 864l-31 -180l21 199l112 6zM2703 524l-4 133l13 -57zM2705 1188l-4 24l121 7z M3127 471l-6 74l-108 -13l-144 64l-20 172l30 145l134 35l98 2v29l-82 25l-145 -23l-5 229l46 15l208 -25l45 -160v-551zM2863 985l-6 168l8 41l4 -199zM3107 498l-98 -6l-72 28l-55 41l124 -53l103 10zM2886 936l4 22l147 21zM2990 840l-51 -37q2 -2 10 -19l162 -22 q0 55 2 72zM2939 1247l49 10l74 -4l57 -30zM2961 803l54 12l86 -10v-14zM3152 1196l31 -66l2 -63zM3219 352l-6 174l19 260zM3232 834l-17 155l4 221zM3308 1184l167 47l64 -29l22 -33l29 -196l-24 -350l-115 -91h-45l-94 29l-4 -24l10 -195l-86 -4l10 483l-10 406l61 8z M3287 1253l-53 -6l28 21zM3318 1227l139 20l-143 -37l-11 35l9 2zM3318 958l-10 -73l4 -90l59 -4l141 34l4 105l-71 31zM3330 922l-4 -48l2 -43l41 -8l102 11l-104 -29l-47 6l-2 70l8 57h117zM3400 514l-70 8l-2 -12l-2 -162l-6 172l4 19zM3504 915l-2 -79l-6 71l-35 25z M3547 555l-72 -29l89 70zM3539 1219l-57 22l39 2zM3594 1081l2 -71l-24 147zM3598 764l-20 -115l20 289v-174zM3637 551l-10 59l8 338l4 -63zM3637 969l-8 139l8 274l8 -45zM3893 524l8 168l-20 246q-20 6 -61 25l-86 -72l-7 -367l-80 4l11 863l76 4l-3 -211l187 16l55 -227 l4 -441zM3664 1411l57 27l13 -21zM3748 553q-2 -16 -8 -29l4 318l10 -82q-6 -109 -6 -207zM3824 915l-19 -8l-47 -45l-14 4l53 49l29 21l37 -12zM3750 1210l47 21l111 -12zM3879 532l-2 150l-10 203l24 -201zM3932 1200l27 -53l8 -41l10 -92zM4006 868l20 279l13 2z M4024 639l-16 156l45 -234zM4299 514l-230 27l-51 274l35 340l217 45l31 -18l43 -279l-4 -125l-37 -6l-17 2l-190 -4l8 -61l58 -11l188 15l18 -13v-178zM4061 1184l4 24l187 6zM4182 483l-88 31l192 -22zM4250 1055l-9 6l-135 -21l-8 -63l57 -6h99l8 8zM4200 727l-63 4 l-18 12l204 9zM4123 999l2 13l112 12v-18zM4344 483l-41 15l65 6zM4315 1176l19 -48l14 -184zM4379 1108l10 74l2 -418zM4385 610l8 133v-233zM4495 911l-16 -237l6 -158l-80 -10l2 170l-8 516l76 6l12 -37l139 37l5 -280zM4407 1212l41 27l17 -25zM4520 864l-29 -180 l19 199l112 6zM4495 524l-4 133l11 -57zM4495 1188l-4 24l123 7zM3428 356l-2 21v16h15v-16l-4 -21h-9zM3453 356l-4 21v16h14v-16l-4 -21h-6zM3482 291v63h-11v11h11v8q0 20 20 20h12l-2 -10h-8q-10 0 -10 -12v-6h14v-11h-14v-63h-12zM3514 328q0 39 33 39q35 0 35 -37 q0 -41 -35 -41q-33 0 -33 39zM3527 328q0 -27 20 -27q23 0 23 27q0 29 -23 28q-20 1 -20 -28zM3596 291v74h13v-11q8 12 22 13q20 0 25 -19v-12v-45h-13v45q0 20 -14 20q-20 0 -20 -24v-41h-13zM3703 303l2 -12h-10q-18 0 -19 22v41h-8v11h8v18l14 8v-26h13v-11h-13v-43 q0 -10 7 -10q2 2 6 2zM3801 291v10q-8 -12 -20 -12q-31 0 -31 39t31 39q12 0 18 -11v37h14v-102h-12zM3762 328q0 -27 21 -27q18 0 18 27q0 29 -20 28q-19 1 -19 -28zM3883 315l12 -2q-6 -25 -32 -24q-35 0 -35 39t35 39q33 0 32 -39v-2h-55q2 -25 23 -25q14 0 20 14z M3842 336h41q-2 20 -20 20q-21 0 -21 -20zM3906 313l12 2q2 -14 18 -14q18 0 19 10q0 6 -17 11q-31 8 -30 24q0 20 26 21q27 0 29 -21l-12 -2q0 12 -15 12q-16 0 -16 -10q0 -6 16 -10q31 -8 31 -23q0 -25 -31 -24q-26 -1 -30 24zM3981 379v14h13v-14h-13zM3981 291v74h13 v-74h-13zM4010 285h12q2 -12 17 -13q16 0 20 13v16q-8 -10 -20 -10q-31 0 -31 37q0 39 31 39q14 0 22 -11v9h10v-64q0 -39 -32 -39q-29 0 -29 23zM4020 330q0 -29 21 -29q20 0 20 29q0 27 -20 26q-21 1 -21 -26zM4092 291v74h10v-11q8 12 23 13q23 0 24 -19q2 -2 2 -12v-45 h-12v45q0 20 -16 20q-18 0 -19 -24v-41h-12zM4219 315l14 -2q-6 -25 -33 -24q-35 0 -34 39q0 39 34 39q33 0 33 -39v-2h-55q2 -25 22 -25q15 0 19 14zM4178 336h43q-2 20 -21 20q-20 0 -22 -20zM4248 291v74h12v-11q6 12 14 13q8 0 15 -5l-5 -12q-6 4 -10 4q-14 0 -14 -24 v-39h-12zM4291 313l12 2q2 -14 18 -14t17 10q0 6 -17 11q-29 8 -28 24q0 20 26 21q27 0 29 -21l-12 -2q-2 12 -17 12q-14 0 -14 -10q0 -6 16 -10q31 -8 31 -23q0 -25 -31 -24q-26 -1 -30 24zM3475 121v10q-6 -12 -20 -12q-31 0 -31 39t31 39q12 0 20 -11v35h13v-100h-13z M3437 158q0 -29 20 -29q18 0 18 27q0 31 -18 30q-20 1 -20 -28zM3502 158q0 39 35 39t35 -39t-35 -39t-35 39zM3514 158q0 -29 23 -29q20 0 20 29t-20 28q-23 1 -23 -28zM3586 121v74h10v-11q8 12 25 13q20 0 24 -19v-12v-45h-12v45q0 18 -16 18q-18 0 -19 -22v-41h-12z M3664 186l-2 19v16h14v-16l-4 -19h-8zM3719 131v-10h-8q-18 0 -18 20v43h-9v11h9v18l12 6v-24h14v-11h-14v-43q0 -10 8 -10h6zM3770 121v74h11v-11q8 12 22 13q16 0 21 -15q8 14 22 15q23 0 23 -25v-51h-13v47q0 16 -12 16q-18 0 -18 -20v-43h-13v47q0 16 -12 16 q-18 0 -18 -24v-39h-13zM3934 129q-12 -10 -26 -10q-25 0 -25 20t29 25q16 0 22 4v2q0 16 -18 16q-14 0 -19 -14l-12 2q4 23 33 23q25 0 28 -17v-12v-16q0 -25 5 -31h-13zM3934 158q-12 -2 -24.5 -5t-12.5 -12q0 -12 15 -12q25 0 22 25v4zM3965 121v100h14v-57l29 31h16 l-28 -29l30 -45h-14l-25 37l-8 -8v-29h-14zM4086 145l14 -2q-6 -25 -33 -24q-35 0 -34 39q0 39 34 39q33 0 33 -39v-4h-55q2 -25 22 -25q15 0 19 16zM4045 164h41q0 23 -19 22q-20 1 -22 -22zM4202 147l13 -2q-4 -27 -31 -26q-33 0 -33 39t33 39q25 0 29 -25l-13 -2 q-2 16 -16 16q-20 0 -20 -28q0 -29 20 -29q16 0 18 18zM4272 129q-12 -10 -26 -10q-25 0 -25 20t29 25q14 0 22 4v2q0 16 -18 16q-14 0 -19 -14l-12 2q4 23 33 23q25 0 28 -17v-12v-16q0 -25 5 -31h-13q-4 4 -4 8zM4272 158q-12 -2 -22 -4q-16 -4 -17 -13q0 -12 17 -12 q25 0 22 25v4zM4303 121v74h12v-13q6 14 14 15q8 0 15 -4l-4 -13q-6 2 -11 2q-14 0 -14 -22v-39h-12zM4377 131l2 -10h-9q-18 0 -18 20v43h-8v11h8v18l12 6v-24h13v-11h-13v-43q0 -10 8 -10h5zM4385 143l12 2q2 -16 18 -16t17 12q0 6 -17 11q-29 8 -28 22q0 23 26 23 q27 0 29 -21l-12 -2q-2 12 -15 12q-16 0 -16 -10q0 -6 16 -10q31 -8 31 -23q0 -25 -31 -24q-26 -1 -30 24zM4461 186l-5 19v16h15v-16l-2 -19h-8zM4483 186l-2 19v16h12v-16l-2 -19h-8z" />
<glyph unicode="@" horiz-adv-x="2097" d="M188 1477l-59 161l-129 -47l416 -1134h1343l240 1020h-1811zM696 344q-72 0 -122 -50t-50 -122t50.5 -122t121.5 -50q72 0 122 50t50 122t-50 122t-122 50zM1440 344q-72 0 -122 -50t-50 -122t50 -122t122 -50t122 50t50 122t-50 122t-122 50z" />
<glyph unicode="A" horiz-adv-x="1808" d="M952 264q-55 0 -94 -38t-39 -93t39 -94t94 -39t94 39t39 94t-39 93t-94 38zM408 264q-55 0 -94.5 -38t-39.5 -93t39 -94t95 -39q55 0 94 39t39 94t-39 93t-94 38zM0 1427h1393l55 152l250 59l24 -102l-194 -47l-311 -846h-3l-124 -340h-840v107h766l86 233h-918z M918 1321h-173v-244h173v244zM971 1077h172v244h-172v-244zM520 1077h172v244h-172v-244zM467 1321h-172v-244h172v244zM745 1024v-274h173v274h-173zM692 1024h-172v-274h172v274zM467 1024h-172v-274h172v274zM242 1024h-39l39 -164v164zM190 1077h52v244h-109zM1196 1321 v-244h64l51 135h2l41 109h-158zM1241 1024h-45v-123zM1143 756v268h-172v-274h170z" />
<glyph unicode="B" horiz-adv-x="2199" d="M1694 1382l67 185l305 71l29 -125l-237 -57l-377 -1028h-1258l-223 954h1694zM1391 557l149 408q-14 18 -14 43q0 59 57 75l51 138q-14 -6 -30 -7q-45 0 -68 39h-150q-23 -39 -67 -39q-43 0 -66 39h-151q-23 -39 -66 -39q-45 0 -67 39h-150q-23 -39 -67 -39q-45 0 -66 39 h-151q-23 -39 -66 -39q-45 0 -68 39h-149q-23 -39 -68 -39q-6 0 -12 3l31 -134q59 -14 59 -75q0 -35 -29 -60l93 -391h1065zM1219 322q68 0 114.5 -47.5t46.5 -112.5q0 -68 -47 -115t-114 -47q-68 0 -115 47t-47 115q0 66 47 113t115 47zM522 322q68 0 115 -47.5t47 -112.5 q0 -68 -47 -115t-115 -47t-115 47t-47 115q0 66 47 113t115 47zM469 801q31 0 53.5 -22.5t22.5 -53.5q0 -33 -22.5 -55.5t-53.5 -22.5q-33 0 -55.5 22.5t-22.5 55.5q0 31 22.5 53.5t55.5 22.5zM752 801q33 0 55 -22.5t22 -53.5q0 -33 -22.5 -55.5t-54.5 -22.5 q-31 0 -54.5 22.5t-23.5 55.5q0 31 23.5 53.5t54.5 22.5zM1036 801q31 0 54.5 -22.5t23.5 -53.5q0 -33 -23.5 -55.5t-54.5 -22.5q-33 0 -55.5 22.5t-22.5 55.5q0 31 22.5 53.5t55.5 22.5zM1319 801q33 0 55.5 -22.5t22.5 -53.5q0 -33 -22.5 -55.5t-55.5 -22.5 q-31 0 -53.5 22.5t-22.5 55.5q0 31 22.5 53.5t53.5 22.5zM469 1085q31 0 53.5 -22.5t22.5 -54.5q0 -31 -22.5 -54.5t-53.5 -23.5q-33 0 -55.5 23.5t-22.5 54.5q0 33 22.5 55t55.5 22zM752 1085q33 0 55 -22.5t22 -54.5q0 -31 -22.5 -54.5t-54.5 -23.5q-31 0 -54.5 23.5 t-23.5 54.5q0 33 23.5 55t54.5 22zM1036 1085q31 0 54.5 -22.5t23.5 -54.5q0 -31 -23.5 -54.5t-54.5 -23.5q-33 0 -55.5 23.5t-22.5 54.5q0 33 22.5 55t55.5 22zM1319 1085q33 0 55.5 -22.5t22.5 -54.5q0 -31 -22.5 -54.5t-55.5 -23.5q-31 0 -53.5 23.5t-22.5 54.5 q0 33 22.5 55t53.5 22z" />
<glyph unicode="C" d="M221 547l-221 942h1671l55 149l119 -43l-385 -1048h-2l-84 -228q49 -55 49 -129q0 -78 -56 -134t-134 -56q-66 0 -117 39t-67 100h-387q-18 -61 -68.5 -100t-116.5 -39q-80 0 -135 56.5t-55 133.5q0 39 14 74v4v0q51 113 176 113t174 -113h406q51 113 176 113q12 0 29 -2 l61 168h-1102zM1460 924h-18v190h88l43 117h4l4 10h-139v121h-127v-121h-191v121h-127v-121h-192v121h-127v-121h-191v121h-127v-121h-172l31 -127h141v-190h-96l29 -129h67v-121h127v121h191v-121h127v121h192v-121h127v121h191v-121h53zM170 1325v37h-10zM487 1114h191 v-190h-191v190zM805 1114h192v-190h-192v190zM1124 1114h191v-190h-191v190z" />
<glyph unicode="D" horiz-adv-x="1685" d="M881 250q-51 0 -88 -37t-37 -88t36.5 -88t88.5 -37q51 0 88 37t37 88t-37 88t-88 37zM369 250q-51 0 -88 -37t-37 -88t36.5 -88t88.5 -37q53 0 89 37t36 88t-37 88t-88 37zM0 1282l96 23l142 -600h821l160 436l2 -2l127 346l235 55l23 -96l-185 -43l-291 -797h-2 l-118 -317h-789v98h719l82 219h-864zM264 1153l68 74l256 -242v653h98v-655l266 244l68 -74l-383 -350z" />
<glyph unicode="E" horiz-adv-x="2181" d="M2077 1513l-238 -57l-377 -1028h-1257l-205 875l125 30l182 -776h1065l371 1010l303 71zM1200 322q-68 0 -115 -47.5t-47 -112.5q0 -68 47.5 -115t114.5 -47q68 0 115 47t47 115q0 66 -47 113t-115 47zM504 322q-68 0 -115 -47.5t-47 -112.5q0 -68 47 -115t115 -47 q66 0 114 47t48 115q0 66 -48 113t-114 47zM1296 836v-129h-878v129h878zM1417 1108v-129h-1120v129h1120z" />
<glyph unicode="F" horiz-adv-x="2041" d="M207 514l-207 887h1573l61 170l283 67l29 -116l-222 -52l-350 -956h-2l-80 -215q47 -51 47 -119q0 -76 -53 -128t-127 -52q-61 0 -109.5 37t-64.5 94h-364q-14 -57 -62.5 -94t-109.5 -37q-74 0 -127.5 52t-53.5 128q0 35 15 70v2h2q47 106 164 106t163 -106h383 q47 106 164 106q12 0 27 -2l57 158h-1036zM1405 954h-55v-149zM1290 643v311h-194v-313v-6h192zM272 954h-45l45 -194v194zM332 635h196v6v313h-194v-313q-2 -4 -2 -6zM1036 954h-194v-313v-6h194v6v313zM782 641v313h-194v-313q0 -4 -2 -6h196v6zM528 1014v266h-194v-266 h194zM588 1014h194v266h-194v-266zM842 1014h194v266h-194v-266zM1096 1014h194v266h-194v-266zM213 1014h59v266h-120zM1350 1280v-266h77l54 143h2l45 123h-178z" />
<glyph unicode="G" d="M221 547l-221 942h1671l55 149l119 -43l-385 -1048h-2l-84 -228q49 -55 49 -129q0 -78 -56 -134t-134 -56q-66 0 -117 39t-67 100h-387q-18 -61 -68.5 -100t-116.5 -39q-80 0 -135 56.5t-55 133.5q0 39 14 74v4v0q51 113 176 113t174 -113h406q51 113 176 113q12 0 29 -2 l61 168h-1102zM1493 1014h-39v-105zM1391 735v279h-207v-334v-6h184zM309 1014h-67l67 -287v287zM373 674h207v6v334h-207v-334v-6zM1120 1014h-207v-334v-6h209q-2 4 -2 6v334zM850 680v334h-207v-334v-6h209q-2 4 -2 6zM580 1077v285h-207v-285h207zM643 1077h207v285 h-207v-285zM913 1077h207v285h-207v-285zM1184 1077h207v285h-207v-285zM227 1077h82v285h-149zM1454 1362v-285h64l55 154h4l47 131h-170z" />
<glyph unicode="H" horiz-adv-x="1878" d="M176 477l-176 754l109 26l155 -669h916l178 487l2 -2l141 385l262 62l25 -107l-203 -49l-325 -887h-5l-71 -198q43 -49 43 -113q0 -68 -49.5 -117t-118.5 -49q-55 0 -100.5 35t-59.5 88h-338q-14 -53 -59 -88t-103 -35q-68 0 -117 49t-49 117q0 35 13 65v2h2 q43 100 151 101q111 0 154 -101h354q43 100 152 101q12 0 24 -2l56 145h-963zM305 1098l76 82l285 -269v727h110v-729l295 271l76 -82l-426 -391z" />
<glyph unicode="I" d="M1292 954v-127h-864v127h864zM1413 1223v-129h-1106v129h1106zM221 547l-221 942h1671l55 149l119 -43l-385 -1048h-2l-84 -228q49 -55 49 -129q0 -78 -56 -134t-134 -56q-66 0 -117 39t-67 100h-387q-18 -61 -68.5 -100t-116.5 -39q-80 0 -135 56.5t-55 133.5 q0 39 14 74v4v0q51 113 176 113t174 -113h406q51 113 176 113q12 0 29 -2l61 168h-1102zM160 1362l162 -688h1046l205 557h4l47 131h-1464z" />
<glyph unicode="J" horiz-adv-x="2199" d="M1219 322q-68 0 -115 -47.5t-47 -112.5q0 -68 47 -115t115 -47t114.5 47t46.5 115q0 66 -46.5 113t-114.5 47zM522 322q-68 0 -115 -47.5t-47 -112.5q0 -68 47.5 -115t114.5 -47q68 0 115 47t47 115q0 66 -47 113t-115 47zM1694 1382l67 185l305 71l29 -125l-237 -57 l-377 -1028h-1258l-223 954h1694zM1642 1253v-12l5 12h-5zM1483 809h-35v192h106l48 129h-154v123h-129v-123h-193v123h-129v-123h-194v123h-129v-123h-193v123h-129v-123h-162l31 -129h131v-192h-86l31 -129h55v-123h129v123h193v-123h129v123h194v-123h129v123h193v-123 h72zM481 1001h193v-192h-193v192zM803 1001h194v-192h-194v192zM1126 1001h193v-192h-193v192z" />
<glyph unicode="K" horiz-adv-x="2097" d="M1303 344q-72 0 -122.5 -50t-50.5 -122t50.5 -122t122.5 -50t122 50t50 122t-50 122t-122 50zM557 344q-70 0 -121 -50t-51 -122t51 -122t121 -50q72 0 122 50t50 122t-50 122t-122 50zM1810 1477l60 161l129 -47l-418 -1134h-1341l-240 1020h1810zM174 1339l2 -12v12h-2 zM1585 864h-31v207h107l49 137h-156v131h-137v-131h-207v131h-137v-131h-207v131h-139v-131h-207v131h-137v-131h-178l33 -137h145v-207h-98l32 -139h66v-131h137v131h207v-131h139v131h207v-131h137v131h207v-131h68zM520 1071h207v-207h-207v207zM866 1071h207v-207h-207 v207zM1210 1071h207v-207h-207v207z" />
<glyph unicode="L" horiz-adv-x="2181" d="M1200 322q-68 0 -115 -47.5t-47 -112.5q0 -68 47.5 -115t114.5 -47q68 0 115 47t47 115q0 66 -47 113t-115 47zM504 322q-68 0 -115 -47.5t-47 -112.5q0 -68 47 -115t115 -47q66 0 114 47t48 115q0 66 -48 113t-114 47zM125 1333l14 -63v35h195v-193h-156l29 -129h127 v-195h-80l29 -129h51v-102h129v102h192v-102h129v102h195v-102h129v102h192v-102h72l86 231h-28v195h98l47 129h-145v193h194v-64l119 326l303 71l31 -125l-238 -57l-377 -1028h-1257l-205 875zM463 1305h192v-193h-192v193zM463 983h192v-195h-192v195zM784 1305h195v-193 h-195v193zM784 983h195v-195h-195v195zM1108 1305h192v-193h-192v193zM1108 983h192v-195h-192v195z" />
<glyph unicode="M" horiz-adv-x="2181" d="M43 1313q18 49 72 49q33 0 55.5 -22.5t22.5 -53.5q0 -45 -41 -67l155 -662h1065l137 371q-53 18 -53 73q0 33 22.5 55.5t55.5 22.5q18 0 18 -10q0 -6 -9 -28.5t-9 -39.5v-4l209 570l303 71l31 -125l-238 -57l-377 -1028h-1257l-205 875zM1200 322q68 0 115 -47.5 t47 -112.5q0 -68 -47 -115t-115 -47t-115 47t-47 115q0 66 47 113t115 47zM504 322q66 0 114 -47.5t48 -112.5q0 -68 -48.5 -115t-113.5 -47q-68 0 -115 47t-47 115q0 66 47 113t115 47zM397 641q-31 0 -53 22.5t-22 55.5q0 31 22.5 53.5t52.5 22.5q33 0 55.5 -22.5 t22.5 -53.5q0 -33 -22.5 -55.5t-55.5 -22.5zM682 641q-33 0 -55.5 22.5t-22.5 55.5q0 31 22.5 53.5t55.5 22.5t55.5 -22.5t22.5 -53.5q0 -33 -22.5 -55.5t-55.5 -22.5zM965 641q-31 0 -53.5 22.5t-22.5 55.5q0 31 22.5 53.5t53.5 22.5q33 0 55 -22.5t22 -53.5 q0 -33 -22 -55.5t-55 -22.5zM1249 641q-33 0 -55.5 22.5t-22.5 55.5q0 31 23 53.5t55 22.5q33 0 55.5 -22.5t22.5 -53.5q0 -33 -22.5 -55.5t-55.5 -22.5zM397 924q-31 0 -53 22.5t-22 54.5q0 33 22.5 55.5t52.5 22.5q33 0 55.5 -22.5t22.5 -55.5t-22.5 -55t-55.5 -22z M682 924q-33 0 -55.5 22.5t-22.5 54.5q0 33 22.5 55.5t55.5 22.5t55.5 -22.5t22.5 -55.5t-22.5 -55t-55.5 -22zM965 924q-31 0 -53.5 22.5t-22.5 54.5q0 33 22.5 55.5t53.5 22.5q33 0 55 -22.5t22 -55.5t-22 -55t-55 -22zM1249 924q-33 0 -55.5 22.5t-22.5 54.5 q0 33 23 55.5t55 22.5q33 0 55.5 -22.5t22.5 -55.5t-22.5 -55t-55.5 -22zM397 1208q-31 0 -53 22.5t-22 55.5q0 31 22.5 53.5t52.5 22.5q33 0 55.5 -22.5t22.5 -53.5q0 -33 -22.5 -55.5t-55.5 -22.5zM682 1208q-33 0 -55.5 22.5t-22.5 55.5q0 31 22.5 53.5t55.5 22.5 t55.5 -22.5t22.5 -53.5q0 -33 -22.5 -55.5t-55.5 -22.5zM965 1208q-31 0 -53.5 22.5t-22.5 55.5q0 31 22.5 53.5t53.5 22.5q33 0 55 -22.5t22 -53.5q0 -33 -22 -55.5t-55 -22.5zM1249 1208q-33 0 -55.5 22.5t-22.5 55.5q0 31 23 53.5t55 22.5q33 0 55.5 -22.5t22.5 -53.5 q0 -33 -22.5 -55.5t-55.5 -22.5zM1534 1208q-33 0 -55.5 22.5t-22.5 55.5q0 31 22.5 53.5t55.5 22.5q31 0 53.5 -22.5t22.5 -53.5q0 -33 -22.5 -55.5t-53.5 -22.5z" />
<glyph unicode="N" horiz-adv-x="2097" d="M1810 1477l60 161l129 -47l-418 -1134h-1341l-240 1020h1810zM1485 594l157 430q-18 23 -18 53q0 70 70 82l55 150q-20 -10 -43 -11q-47 0 -72 41h-159q-25 -41 -72 -41t-72 41h-160q-25 -41 -71 -41q-47 0 -72 41h-160q-25 -41 -71 -41q-47 0 -72 41h-160 q-25 -41 -71 -41q-47 0 -72 41h-160q-25 -41 -72 -41h-6l33 -143q55 -18 55 -78q0 -35 -22 -59l98 -424h1137zM1303 344q72 0 122 -50t50 -122t-50.5 -122t-121.5 -50q-72 0 -122.5 50t-50.5 122t50.5 122t122.5 50zM557 344q72 0 122 -50t50 -122t-50 -122t-122 -50 q-70 0 -121 50t-51 122t51 122t121 50zM494 856q35 0 58 -23.5t23 -58.5t-23.5 -58.5t-57.5 -23.5q-35 0 -58.5 23.5t-23.5 58.5t23.5 58.5t58.5 23.5zM797 856q35 0 58.5 -23.5t23.5 -58.5t-24 -58.5t-58 -23.5q-35 0 -58.5 23.5t-23.5 58.5t23.5 58.5t58.5 23.5zM1100 856 q35 0 58.5 -23.5t23.5 -58.5t-23.5 -58.5t-58.5 -23.5t-58.5 23.5t-23.5 58.5t23.5 58.5t58.5 23.5zM1403 856q35 0 58.5 -23.5t23.5 -58.5t-23.5 -58.5t-58.5 -23.5t-58.5 23.5t-23.5 58.5t23.5 58.5t58.5 23.5zM494 1159q35 0 58 -23.5t23 -58.5t-23.5 -58.5t-57.5 -23.5 q-35 0 -58.5 23.5t-23.5 58.5t23.5 58.5t58.5 23.5zM797 1159q35 0 58.5 -23.5t23.5 -58.5t-24 -58.5t-58 -23.5q-35 0 -58.5 23.5t-23.5 58.5t23.5 58.5t58.5 23.5zM1100 1159q35 0 58.5 -23.5t23.5 -58.5t-23.5 -58.5t-58.5 -23.5t-58.5 23.5t-23.5 58.5t23.5 58.5 t58.5 23.5zM1403 1159q35 0 58.5 -23.5t23.5 -58.5t-23.5 -58.5t-58.5 -23.5t-58.5 23.5t-23.5 58.5t23.5 58.5t58.5 23.5z" />
<glyph unicode="O" horiz-adv-x="2023" d="M1198 897v-119h-813v119h813zM1313 1149v-119h-1043v119h1043zM190 514l-190 813l117 27l168 -719h985l192 522h2l154 414l283 67l26 -116l-219 -52l-350 -956h-4l-78 -215q45 -51 45 -119q0 -76 -52 -128t-128 -52q-59 0 -107.5 37t-64.5 94h-365q-16 -57 -63 -94 t-109 -37q-76 0 -128 52t-52 128q0 35 14 70v2v0q47 106 166 106q117 0 164 -106h381q47 106 164 106q12 0 28 -2l58 158h-1037z" />
<glyph unicode="P" horiz-adv-x="2199" d="M1219 322q-68 0 -115 -47.5t-47 -112.5q0 -68 47 -115t115 -47t114.5 47t46.5 115q0 66 -46.5 113t-114.5 47zM522 322q-68 0 -115 -47.5t-47 -112.5q0 -68 47.5 -115t114.5 -47q68 0 115 47t47 115q0 66 -47 113t-115 47zM1694 1382l67 185l305 71l29 -125l-237 -57 l-377 -1028h-1258l-223 954h1694zM229 965h66v288h-133zM1116 901h-209v-338q0 -4 -2 -6h211v6v338zM1116 1253h-209v-288h209v288zM1182 965h209v288h-209v-288zM633 965h209v288h-209v-288zM567 1253h-209v-288h209v288zM842 563v338h-209v-338v-6h211q-2 4 -2 6zM567 563 v338h-209v-338v-6h211q-2 4 -2 6zM295 901h-49l49 -209v209zM1454 1253v-288h86l107 288h-193zM1518 901h-64v-170zM1391 557v6v338h-209v-338q0 -4 -2 -6h211v0z" />
<glyph unicode="Q" horiz-adv-x="2199" d="M2095 1513l-237 -57l-377 -1028h-1258l-223 954h1694l67 185l305 71zM162 1253l164 -696h1065l256 696h-1485zM1219 322q-68 0 -115 -47.5t-47 -112.5q0 -68 47 -115t115 -47t114.5 47t46.5 115q0 66 -46.5 113t-114.5 47zM522 322q-68 0 -115 -47.5t-47 -112.5 q0 -68 47.5 -115t114.5 -47q68 0 115 47t47 115q0 66 -47 113t-115 47zM1315 836v-129h-879v129h879zM1436 1108v-129h-1121v129h1121z" />
<glyph unicode="R" horiz-adv-x="1808" d="M952 264q-55 0 -94 -38t-39 -93t39 -94t94 -39t94 39t39 94t-39 93t-94 38zM408 264q-55 0 -94.5 -38t-39.5 -93t39 -94t95 -39q55 0 94 39t39 94t-39 93t-94 38zM1077 983v-106h-721v106h721zM1178 1204v-104h-922v104h922zM0 1427h1393l55 152l250 59l24 -102l-194 -47 l-311 -846h-3l-124 -340h-840v107h766l86 233h-918zM1141 750l170 462h2l41 109h-1221l135 -571h873z" />
<glyph unicode="S" horiz-adv-x="1703" d="M1006 281q-59 0 -100.5 -41t-41.5 -101q0 -57 41 -98t101 -41q57 0 98 41t41 98q0 59 -41 100.5t-98 41.5zM430 281q-57 0 -98 -41t-41 -101q0 -57 41 -98t98 -41q59 0 100 41t41 98q0 59 -41 100.5t-100 41.5zM0 1507h1470l48 131l104 -39l-338 -919h-2l-131 -358h-887 v110h809l90 248h-968zM975 1092h-182v-293q0 -4 -2 -8h184v8v293zM975 1395h-182v-248h182v248zM1030 1147h182v248h-182v-248zM555 1147h182v248h-182v-248zM500 1395h-183v-248h183v248zM737 799v293h-182v-293q0 -4 -2 -8h184v8zM500 799v293h-183v-293q0 -4 -2 -8h185v8 zM260 1092h-47l47 -207v207zM199 1147h61v248h-119zM1268 1395v-248h67l49 133h2l44 115h-162zM1315 1092h-47v-125zM1212 813v279h-182v-293v-8h174z" />
<glyph unicode="T" horiz-adv-x="1703" d="M1006 281q-59 0 -100.5 -41t-41.5 -101q0 -57 41 -98t101 -41q57 0 98 41t41 98q0 59 -41 100.5t-98 41.5zM430 281q-57 0 -98 -41t-41 -101q0 -57 41 -98t98 -41q59 0 100 41t41 98q0 59 -41 100.5t-100 41.5zM0 1507h1470l48 131l104 -39l-338 -919h-2l-131 -358h-887 v110h809l90 248h-968zM1204 791l180 489h2l44 115h-1289l142 -604h921zM1137 926h-762v110h762v-110zM1243 1272v-111h-975v111h975z" />
<glyph unicode="U" horiz-adv-x="2041" d="M1217 897v-119h-816v119h816zM1329 1149v-119h-1040v119h1040zM207 514l-207 887h1573l61 170l283 67l29 -116l-222 -52l-350 -956h-2l-80 -215q47 -51 47 -119q0 -76 -53 -128t-127 -52q-61 0 -109.5 37t-64.5 94h-364q-14 -57 -62.5 -94t-109.5 -37q-74 0 -127.5 52 t-53.5 128q0 35 15 70v2h2q47 106 164 106t163 -106h383q47 106 164 106q12 0 27 -2l57 158h-1036zM152 1280l151 -645h985l193 522h2l45 123h-1376z" />
<glyph unicode="V" horiz-adv-x="2041" d="M1217 897v-119h-816v119h816zM1329 1149v-119h-1040v119h1040zM207 514l-207 887h1573l61 170l283 67l29 -116l-222 -52l-350 -956h-2l-80 -215q47 -51 47 -119q0 -76 -53 -128t-127 -52q-61 0 -109.5 37t-64.5 94h-364q-14 -57 -62.5 -94t-109.5 -37q-74 0 -127.5 52 t-53.5 128q0 35 15 70v2h2q47 106 164 106t163 -106h383q47 106 164 106q12 0 27 -2l57 158h-1036zM152 1280l151 -645h985l193 522h2l45 123h-1376z" />
<glyph unicode="W" horiz-adv-x="2097" d="M1999 1591l-418 -1134h-1341l-240 1020h1810l60 161zM174 1339l174 -745h1137l274 745h-1585zM1303 344q-72 0 -122.5 -50t-50.5 -122t50.5 -122t122.5 -50t122 50t50 122t-50 122t-122 50zM557 344q-70 0 -121 -50t-51 -122t51 -122t121 -50q72 0 122 50t50 122t-50 122 t-122 50zM1405 893v-137h-938v137h938zM1536 1184v-140h-1200v140h1200z" />
<glyph unicode="X" horiz-adv-x="2041" d="M207 514l-207 887h1573l61 170l283 67l29 -116l-222 -52l-350 -956h-2l-80 -215q47 -51 47 -119q0 -76 -53 -128t-127 -52q-61 0 -109.5 37t-64.5 94h-364q-14 -57 -62.5 -94t-109.5 -37q-74 0 -127.5 52t-53.5 128q0 35 15 70v2h2q47 106 164 106t163 -106h383 q47 106 164 106q12 0 27 -2l57 158h-1036zM1374 868h-35v179h101l41 110h2l4 10h-148v113h-120v-113h-181v113h-118v-113h-181v113h-118v-113h-181v113h-118v-113h-144l27 -120h117v-179h-74l28 -120h46v-113h118v113h181v-113h118v113h181v-113h118v113h181v-113h69z M1518 1280v-27l10 27h-10zM440 1047h181v-179h-181v179zM739 1047h181v-179h-181v179zM1038 1047h181v-179h-181v179z" />
<glyph unicode="Y" horiz-adv-x="1792" d="M936 264q-53 0 -92 -38t-39 -93t39 -94t92 -39q55 0 94 39t39 94t-39 93t-94 38zM393 264q-55 0 -94 -38t-39 -93t39 -94t94 -39t93 39t38 94t-38 93t-93 38zM1061 983v-106h-721v106h721zM1161 1204v-104h-921v104h921zM0 1362l102 24l150 -636h872l170 462h4l134 367 l251 59l25 -102l-197 -47l-309 -846h-2l-125 -340h-839v107h765l84 233h-917z" />
<glyph unicode="Z" horiz-adv-x="1792" d="M0 1362l102 24l13 -51v31h159v-160h-129l25 -104h104v-160h-67l24 -106h43v-86h107v86h158v-86h106v86h160v-86h106v86h158v-86h55l72 192h-20v160h77l39 104h-116v160h159v-53l97 266l251 59l25 -102l-197 -47l-309 -846h-2l-125 -340h-839v107h765l84 233h-917z M936 264q55 0 94 -38t39 -93t-39 -94t-94 -39q-53 0 -92 39t-39 94t39 93t92 38zM393 264q55 0 93 -38t38 -93t-37.5 -94t-93.5 -39q-55 0 -94 39t-39 94t39 93t94 38zM381 1366h158v-160h-158v160zM381 1102h158v-160h-158v160zM645 1366h160v-160h-160v160zM645 1102h160 v-160h-160v160zM911 1366h158v-160h-158v160zM911 1102h158v-160h-158v160z" />
<glyph unicode="[" horiz-adv-x="2097" d="M696 344q72 0 122 -50t50 -122t-50 -122t-122 -50t-122 50t-50 122t50 122t122 50zM1440 344q72 0 122 -50t50 -122t-50.5 -122t-121.5 -50q-72 0 -122 50t-50 122t51 122t121 50zM188 1477l-59 161l-129 -47l416 -1134h1343l240 1020h-1811zM1753 1032h-76v307h148z M799 963h223v-361q0 -4 2 -8h-225v8v361zM799 1339h223v-307h-223v307zM729 1032h-223v307h223v-307zM1315 1032h-223v307h223v-307zM1384 1339h224v-307h-224v307zM1092 602v361h223v-361q0 -4 2 -8h-225v8zM1384 602v361h224v-361q0 -4 2 -8h-226v8zM1677 963h60l-60 -252 v252zM436 1339v-307h-84l-112 307h196zM377 963h59v-162zM506 612v351h223v-361q0 -4 2 -8h-219z" />
<glyph unicode="]" horiz-adv-x="2013" d="M1497 1147l-305 -287v778h-119v-782l-317 291l-80 -88l457 -418l444 418zM0 1397l219 -54l348 -948h1159l191 807l-117 27l-168 -715h-981l-342 932l-282 65zM809 297q61 0 105 -43t44 -104t-44 -105.5t-105 -44.5t-105.5 44t-44.5 106q0 61 44.5 104t105.5 43zM1452 297 q61 0 105.5 -43t44.5 -104t-44.5 -105.5t-105.5 -44.5t-105 44t-44 106q0 61 44 104t105 43z" />
<glyph unicode="^" d="M119 1638l-119 -43l385 -1048h2l84 -228q-49 -55 -49 -129q0 -78 56.5 -134t135.5 -56q63 0 114.5 39t68.5 100h387q18 -61 68.5 -100t115.5 -39q80 0 135.5 56.5t55.5 133.5q0 39 -15 74v4v0q-51 113 -176 113t-174 -113h-406q-51 113 -174 113q-14 0 -28 -2l-64 168 h1102l221 942h-1671z" />
<glyph unicode="_" horiz-adv-x="2334" d="M1577 1071q0 236 -136 401.5t-329 165.5q-190 0 -326.5 -165.5t-136.5 -401.5h-649l389 -1071h1485l350 1071h-647zM1112 1544q154 0 262.5 -138t108.5 -335h-740q0 197 108.5 335t260.5 138zM1806 94h-1351l-320 883h1958z" />
<glyph unicode="`" horiz-adv-x="6727" d="M6232 662l-135 16l-141 -29l-142 6l-137 -34l-141 26l-135 -10l-152 31l43 -140l59 -116l144 -4l135 -13l137 37l133 -43l138 23l135 16l2 -123l-158 41l-152 -29l-149 13l-147 -17l-150 31l-147 -41l-52 121l-28 123l-68 98l4 2l-61 139l-56 144l-43 145l-63 135 l-39 148l-49 141l-203 49l25 90h139l137 -36l27 -191l168 21l147 16l150 -8l147 -37l148 41l149 -29l148 10h147l145 5l115 -17l-2 -108l-51 -129l-6 -140l-27 -133l-63 -121zM5018 1309l12 -95l-12 -6l86 -118l90 -17l-17 137l9 150zM5167 915l6 121l-76 -2zM5394 1313 l-168 12l-28 -121l39 -96l178 -37v141zM5226 788l162 -6l19 117l14 156l-195 -25l-16 -133l39 -129zM5317 248l-37 -101l39 -100l106 -47l86 66l25 81l-17 89l-94 14zM5458 1081l182 11l-26 118l12 93l-148 2l13 -101zM5478 1012l-41 -117l17 -145l192 8l17 141l-19 133z M5863 1300l-157 23l-23 -119l4 -137l213 -6l-20 149zM5708 772l172 -8v135l4 135l-180 -6l28 -133zM5886 256l-12 -109l10 -114l117 -2l118 2l43 114l-81 70l-80 33zM5939 1090l166 18l21 102l10 144l-213 -2l10 -148zM5933 754l195 -2l-29 147l16 127l-188 23zM6296 1333 l-127 4l-5 -133l17 -117h47l61 115zM6177 905l6 129l24 -10zM8 653l-8 84l25 353zM55 518l-37 86l54 -88zM86 518l-66 111l21 487l111 80l167 -25l7 -241l-226 -2l-16 -72l20 -74l220 -12l2 -244zM43 1145l37 55l53 6zM117 889l-6 -41l8 -19l160 -26l-164 6l-15 39l13 59 h204zM254 475l-150 23l215 2zM317 1219l2 -23l-161 16zM621 471l-7 74l-108 -13l-144 64l-18 172l29 145l133 35l98 2v29l-82 25l-143 -23l-6 229l45 15l209 -25l45 -160v-551zM356 985l-6 168l8 41l4 -199zM600 498l-98 -6l-72 28l-55 41l125 -53l102 10zM381 936l2 22 l147 21zM483 840l-51 -37q2 -2 10 -19l162 -22q0 55 2 72zM432 1247l49 10l74 -4l57 -30zM455 803l53 12l86 -10v-14zM645 1196l31 -66l2 -63zM707 1108l10 74l2 -418zM713 610l8 133v-233zM823 911l-16 -237l6 -158l-80 -10l2 170l-8 516l76 6l12 -37l139 37l4 -280z M735 1212l41 27l17 -25zM848 864l-29 -180l19 199l112 6zM823 524l-4 133l10 -57zM825 1188l-6 24l123 7zM1217 510h-37q-66 0 -103 -2q-10 31 -43 154l-2 253q-25 0 -55 7l2 249l2 5q0 -6 4 -7l55 11l7 180l65 6l2 -209q49 -6 119 -16v-213h-127l2 -164l41 -39l55 33 l-8 129l61 -4l9 -203zM1028 1204l-45 -10l37 31l12 123zM1020 684l-8 197l-29 20l39 -4zM1036 565l-8 78l31 -123zM1147 756l-33 35l2 108l10 4l-4 -96l29 -35l37 10l4 -12zM1126 1180l-4 174l13 -158l63 -12l23 -23zM1257 580l-26 -68l33 131zM1245 948l-2 189l8 -101z M1294 944l9 66v-117zM1315 885l-2 145l213 4v-155zM1323 1051l90 24l94 -24h-184zM1417 829l-90 29l174 -2zM1573 631l-14 239l30 -282zM1882 580l-70 -50l-180 11l-28 26l-39 336l47 266l180 45l74 -26l53 -434zM1567 989l18 162l12 10zM1845 971l-53 10l-31 4l-78 -10 l-45 -27l-6 -117l74 -43l143 25l17 59zM1634 1200l66 39l74 -8zM1769 494l-96 8l-31 16l168 -6zM1704 811l-55 45l12 4l43 -33l68 7zM1849 852l-18 76l-53 18l-49 -12l-60 4l111 20l53 -14l18 -67zM1808 1227l35 6l21 -25zM1882 1165l16 -57l23 -254zM1913 614l-17 -22 l27 119zM1944 944l6 66l2 -117zM1964 885l-2 145l211 4l2 -155zM1972 1051l90 24l92 -24h-182zM2066 829l-92 29l176 -2zM2548 418l-41 -133l-150 -19l-139 8l-10 222l92 -19l172 10l8 27q-4 16 -8 43l-164 -25q-49 51 -70 68l-6 371l52 182l204 47h72zM2208 846l10 53 l8 -276zM2296 498l-84 20l90 -4l156 18l6 -18zM2228 1014l6 65l33 70zM2363 221l-127 27l127 -4l125 18zM2294 1180l43 39l127 4zM2480 948l-100 6l-86 -55l10 -108l145 -21l31 14v164zM2460 821l-2 90l-68 -8l-78 -35l2 21l82 35l68 4l4 -129zM2331 809l45 12l53 -24z M2488 1219l45 20l27 -20h-72zM2589 1108l10 74l2 -418zM2595 610l8 133v-233zM2705 911l-16 -237l4 -158l-80 -10l4 170l-8 516l74 6l12 -37l141 37l5 -280zM2617 1212l41 27l17 -25zM2730 864l-31 -180l21 199l112 6zM2703 524l-4 133l13 -57zM2705 1188l-4 24l121 7z M3127 471l-6 74l-108 -13l-144 64l-20 172l30 145l134 35l98 2v29l-82 25l-145 -23l-5 229l46 15l208 -25l45 -160v-551zM2863 985l-6 168l8 41l4 -199zM3107 498l-98 -6l-72 28l-55 41l124 -53l103 10zM2886 936l4 22l147 21zM2990 840l-51 -37q2 -2 10 -19l162 -22 q0 55 2 72zM2939 1247l49 10l74 -4l57 -30zM2961 803l54 12l86 -10v-14zM3152 1196l31 -66l2 -63zM3219 352l-6 174l19 260zM3232 834l-17 155l4 221zM3308 1184l167 47l64 -29l22 -33l29 -196l-24 -350l-115 -91h-45l-94 29l-4 -24l10 -195l-86 -4l10 483l-10 406l61 8z M3287 1253l-53 -6l28 21zM3318 1227l139 20l-143 -37l-11 35l9 2zM3318 958l-10 -73l4 -90l59 -4l141 34l4 105l-71 31zM3330 922l-4 -48l2 -43l41 -8l102 11l-104 -29l-47 6l-2 70l8 57h117zM3400 514l-70 8l-2 -12l-2 -162l-6 172l4 19zM3504 915l-2 -79l-6 71l-35 25z M3547 555l-72 -29l89 70zM3539 1219l-57 22l39 2zM3594 1081l2 -71l-24 147zM3598 764l-20 -115l20 289v-174zM3637 551l-10 59l8 338l4 -63zM3637 969l-8 139l8 274l8 -45zM3893 524l8 168l-20 246q-20 6 -61 25l-86 -72l-7 -367l-80 4l11 863l76 4l-3 -211l187 16l55 -227 l4 -441zM3664 1411l57 27l13 -21zM3748 553q-2 -16 -8 -29l4 318l10 -82q-6 -109 -6 -207zM3824 915l-19 -8l-47 -45l-14 4l53 49l29 21l37 -12zM3750 1210l47 21l111 -12zM3879 532l-2 150l-10 203l24 -201zM3932 1200l27 -53l8 -41l10 -92zM4006 868l20 279l13 2z M4024 639l-16 156l45 -234zM4299 514l-230 27l-51 274l35 340l217 45l31 -18l43 -279l-4 -125l-37 -6l-17 2l-190 -4l8 -61l58 -11l188 15l18 -13v-178zM4061 1184l4 24l187 6zM4182 483l-88 31l192 -22zM4250 1055l-9 6l-135 -21l-8 -63l57 -6h99l8 8zM4200 727l-63 4 l-18 12l204 9zM4123 999l2 13l112 12v-18zM4344 483l-41 15l65 6zM4315 1176l19 -48l14 -184zM4379 1108l10 74l2 -418zM4385 610l8 133v-233zM4495 911l-16 -237l6 -158l-80 -10l2 170l-8 516l76 6l12 -37l139 37l5 -280zM4407 1212l41 27l17 -25zM4520 864l-29 -180 l19 199l112 6zM4495 524l-4 133l11 -57zM4495 1188l-4 24l123 7zM3428 356l-2 21v16h15v-16l-4 -21h-9zM3453 356l-4 21v16h14v-16l-4 -21h-6zM3482 291v63h-11v11h11v8q0 20 20 20h12l-2 -10h-8q-10 0 -10 -12v-6h14v-11h-14v-63h-12zM3514 328q0 39 33 39q35 0 35 -37 q0 -41 -35 -41q-33 0 -33 39zM3527 328q0 -27 20 -27q23 0 23 27q0 29 -23 28q-20 1 -20 -28zM3596 291v74h13v-11q8 12 22 13q20 0 25 -19v-12v-45h-13v45q0 20 -14 20q-20 0 -20 -24v-41h-13zM3703 303l2 -12h-10q-18 0 -19 22v41h-8v11h8v18l14 8v-26h13v-11h-13v-43 q0 -10 7 -10q2 2 6 2zM3801 291v10q-8 -12 -20 -12q-31 0 -31 39t31 39q12 0 18 -11v37h14v-102h-12zM3762 328q0 -27 21 -27q18 0 18 27q0 29 -20 28q-19 1 -19 -28zM3883 315l12 -2q-6 -25 -32 -24q-35 0 -35 39t35 39q33 0 32 -39v-2h-55q2 -25 23 -25q14 0 20 14z M3842 336h41q-2 20 -20 20q-21 0 -21 -20zM3906 313l12 2q2 -14 18 -14q18 0 19 10q0 6 -17 11q-31 8 -30 24q0 20 26 21q27 0 29 -21l-12 -2q0 12 -15 12q-16 0 -16 -10q0 -6 16 -10q31 -8 31 -23q0 -25 -31 -24q-26 -1 -30 24zM3981 379v14h13v-14h-13zM3981 291v74h13 v-74h-13zM4010 285h12q2 -12 17 -13q16 0 20 13v16q-8 -10 -20 -10q-31 0 -31 37q0 39 31 39q14 0 22 -11v9h10v-64q0 -39 -32 -39q-29 0 -29 23zM4020 330q0 -29 21 -29q20 0 20 29q0 27 -20 26q-21 1 -21 -26zM4092 291v74h10v-11q8 12 23 13q23 0 24 -19q2 -2 2 -12v-45 h-12v45q0 20 -16 20q-18 0 -19 -24v-41h-12zM4219 315l14 -2q-6 -25 -33 -24q-35 0 -34 39q0 39 34 39q33 0 33 -39v-2h-55q2 -25 22 -25q15 0 19 14zM4178 336h43q-2 20 -21 20q-20 0 -22 -20zM4248 291v74h12v-11q6 12 14 13q8 0 15 -5l-5 -12q-6 4 -10 4q-14 0 -14 -24 v-39h-12zM4291 313l12 2q2 -14 18 -14t17 10q0 6 -17 11q-29 8 -28 24q0 20 26 21q27 0 29 -21l-12 -2q-2 12 -17 12q-14 0 -14 -10q0 -6 16 -10q31 -8 31 -23q0 -25 -31 -24q-26 -1 -30 24zM3475 121v10q-6 -12 -20 -12q-31 0 -31 39t31 39q12 0 20 -11v35h13v-100h-13z M3437 158q0 -29 20 -29q18 0 18 27q0 31 -18 30q-20 1 -20 -28zM3502 158q0 39 35 39t35 -39t-35 -39t-35 39zM3514 158q0 -29 23 -29q20 0 20 29t-20 28q-23 1 -23 -28zM3586 121v74h10v-11q8 12 25 13q20 0 24 -19v-12v-45h-12v45q0 18 -16 18q-18 0 -19 -22v-41h-12z M3664 186l-2 19v16h14v-16l-4 -19h-8zM3719 131v-10h-8q-18 0 -18 20v43h-9v11h9v18l12 6v-24h14v-11h-14v-43q0 -10 8 -10h6zM3770 121v74h11v-11q8 12 22 13q16 0 21 -15q8 14 22 15q23 0 23 -25v-51h-13v47q0 16 -12 16q-18 0 -18 -20v-43h-13v47q0 16 -12 16 q-18 0 -18 -24v-39h-13zM3934 129q-12 -10 -26 -10q-25 0 -25 20t29 25q16 0 22 4v2q0 16 -18 16q-14 0 -19 -14l-12 2q4 23 33 23q25 0 28 -17v-12v-16q0 -25 5 -31h-13zM3934 158q-12 -2 -24.5 -5t-12.5 -12q0 -12 15 -12q25 0 22 25v4zM3965 121v100h14v-57l29 31h16 l-28 -29l30 -45h-14l-25 37l-8 -8v-29h-14zM4086 145l14 -2q-6 -25 -33 -24q-35 0 -34 39q0 39 34 39q33 0 33 -39v-4h-55q2 -25 22 -25q15 0 19 16zM4045 164h41q0 23 -19 22q-20 1 -22 -22zM4202 147l13 -2q-4 -27 -31 -26q-33 0 -33 39t33 39q25 0 29 -25l-13 -2 q-2 16 -16 16q-20 0 -20 -28q0 -29 20 -29q16 0 18 18zM4272 129q-12 -10 -26 -10q-25 0 -25 20t29 25q14 0 22 4v2q0 16 -18 16q-14 0 -19 -14l-12 2q4 23 33 23q25 0 28 -17v-12v-16q0 -25 5 -31h-13q-4 4 -4 8zM4272 158q-12 -2 -22 -4q-16 -4 -17 -13q0 -12 17 -12 q25 0 22 25v4zM4303 121v74h12v-13q6 14 14 15q8 0 15 -4l-4 -13q-6 2 -11 2q-14 0 -14 -22v-39h-12zM4377 131l2 -10h-9q-18 0 -18 20v43h-8v11h8v18l12 6v-24h13v-11h-13v-43q0 -10 8 -10h5zM4385 143l12 2q2 -16 18 -16t17 12q0 6 -17 11q-29 8 -28 22q0 23 26 23 q27 0 29 -21l-12 -2q-2 12 -15 12q-16 0 -16 -10q0 -6 16 -10q31 -8 31 -23q0 -25 -31 -24q-26 -1 -30 24zM4461 186l-5 19v16h15v-16l-2 -19h-8zM4483 186l-2 19v16h12v-16l-2 -19h-8z" />
<glyph unicode="a" horiz-adv-x="1808" d="M770 264q55 0 94 -38t39 -93t-39 -94t-94 -39t-94 39t-39 94t39 93t94 38zM1315 264q55 0 94 -38t39 -93t-39 -94t-94 -39t-94 39t-39 94t39 93t94 38zM1722 1427h-1392l-56 152l-249 59l-25 -102l195 -47l311 -846h2l125 -340h840v107h-766l-86 233h917zM805 1321h172 v-244h-172v244zM752 1077h-172v244h172v-244zM1202 1077h-172v244h172v-244zM1255 1321h172v-244h-172v244zM977 1024v-274h-172v274h172zM1030 1024h172v-274h-172v274zM1255 1024h172v-274h-172v274zM1481 1024h39l-39 -164v164zM1532 1077h-51v244h108zM526 1321v-244 h-63l-51 135h-2l-41 109h157zM481 1024h45v-123zM580 756v268h172v-274h-170z" />
<glyph unicode="b" horiz-adv-x="2199" d="M401 1382l-67 185l-303 71l-31 -125l238 -57l376 -1028h1258l223 954h-1694zM705 557l-150 408q14 18 14 43q0 59 -57 75l-51 138q14 -6 31 -7q45 0 67 39h150q23 -39 67 -39q45 0 68 39h149q23 -39 66 -39q45 0 67 39h150q23 -39 67 -39q45 0 68 39h150q23 -39 65 -39 q45 0 68 39h149q23 -39 68 -39q6 0 12 3l-31 -134q-59 -14 -59 -75q0 -35 29 -60l-93 -391h-1064zM877 322q-66 0 -114 -47.5t-48 -112.5q0 -68 48 -115t114 -47q68 0 114.5 47t46.5 115q0 66 -46.5 113t-114.5 47zM1573 322q-66 0 -113 -47.5t-47 -112.5q0 -68 47 -115 t113 -47q68 0 115 47t47 115q0 66 -47 113t-115 47zM1626 801q-31 0 -53.5 -22.5t-22.5 -53.5q0 -33 22.5 -55.5t53.5 -22.5q33 0 55.5 22.5t22.5 55.5q0 31 -22.5 53.5t-55.5 22.5zM1343 801q-33 0 -55 -22.5t-22 -53.5q0 -33 22.5 -55.5t54.5 -22.5q33 0 55.5 22.5 t22.5 55.5q0 31 -22.5 53.5t-55.5 22.5zM1059 801q-31 0 -53.5 -22.5t-22.5 -53.5q0 -33 22.5 -55.5t53.5 -22.5q33 0 55.5 22.5t22.5 55.5q0 31 -22.5 53.5t-55.5 22.5zM776 801q-33 0 -55.5 -22.5t-22.5 -53.5q0 -33 22.5 -55.5t55.5 -22.5t55.5 22.5t22.5 55.5 q0 31 -22.5 53.5t-55.5 22.5zM1626 1085q-31 0 -53.5 -22.5t-22.5 -54.5q0 -31 22.5 -54.5t53.5 -23.5q33 0 55.5 23.5t22.5 54.5q0 33 -22.5 55t-55.5 22zM1343 1085q-33 0 -55 -22.5t-22 -54.5q0 -31 22.5 -54.5t54.5 -23.5q33 0 55.5 23.5t22.5 54.5q0 33 -22.5 55 t-55.5 22zM1059 1085q-31 0 -53.5 -22.5t-22.5 -54.5q0 -31 22.5 -54.5t53.5 -23.5q33 0 55.5 23.5t22.5 54.5q0 33 -22.5 55t-55.5 22zM776 1085q-33 0 -55.5 -22.5t-22.5 -54.5q0 -31 22.5 -54.5t55.5 -23.5t55.5 23.5t22.5 54.5q0 33 -22.5 55t-55.5 22z" />
<glyph unicode="c" d="M1624 547l221 942h-1671l-55 149l-119 -43l385 -1048h2l84 -228q-49 -55 -49 -129q0 -78 56.5 -134t135.5 -56q63 0 114.5 39t68.5 100h387q18 -61 68.5 -100t115.5 -39q80 0 135.5 56.5t55.5 133.5q0 39 -15 74v4v0q-51 113 -176 113t-174 -113h-406q-51 113 -174 113 q-14 0 -28 -2l-64 168h1102zM385 924h18v190h-88l-43 117h-2l-4 10h137v121h127v-121h191v121h127v-121h192v121h127v-121h191v121h127v-121h172l-31 -127h-141v-190h98l-31 -129h-67v-121h-127v121h-191v-121h-127v121h-192v-121h-127v121h-191v-121h-53zM1675 1325v37h11z M1358 1114h-191v-190h191v190zM1040 1114h-192v-190h192v190zM721 1114h-191v-190h191v190z" />
<glyph unicode="d" horiz-adv-x="1685" d="M725 250q51 0 88 -37t37 -88t-37 -88t-88 -37q-53 0 -89 37t-36 88t36 88t89 37zM1237 250q51 0 87 -37t36 -88t-36 -88t-87 -37q-53 0 -89 37t-36 88t36 88t89 37zM1606 1282l-99 23l-139 -600h-821l-160 436l-2 -2l-127 346l-235 55l-23 -96l184 -43l291 -797h2 l117 -317h790v98h-720l-80 219h862zM1341 1153l-67 74l-256 -242v653h-98v-655l-267 244l-67 -74l383 -350z" />
<glyph unicode="e" horiz-adv-x="2181" d="M0 1513l238 -57l376 -1028h1258l205 875l-125 30l-183 -776h-1064l-371 1010l-303 71zM877 322q68 0 114.5 -47.5t46.5 -112.5q0 -68 -47 -115t-114 -47q-66 0 -114 47t-48 115q0 66 48 113t114 47zM1573 322q68 0 115 -47.5t47 -112.5q0 -68 -47.5 -115t-114.5 -47 q-66 0 -113 47t-47 115q0 66 47 113t113 47zM780 836v-129h879v129h-879zM659 1108v-129h1123v129h-1123z" />
<glyph unicode="f" horiz-adv-x="2041" d="M1737 514l209 887h-1573l-62 170l-282 67l-29 -116l219 -52l352 -956h2l80 -215q-47 -51 -47 -119q0 -76 52.5 -128t127.5 -52q61 0 108.5 37t63.5 94h365q16 -57 64.5 -94t109.5 -37q74 0 126 52t52 128q0 35 -14 70v2v0q-47 106 -164 106q-119 0 -166 -106h-381 q-47 106 -164 106q-12 0 -26 -2l-60 158h1037zM541 954h53v-149zM653 643v311h195v-313q2 -4 2 -6h-193zM1671 954h45l-45 -194v194zM1612 635h-195v6v313h195v-313v-6zM909 954h195v-313v-6h-197q2 2 2 6v313zM1163 641v313h195v-313v-6h-195v6zM1417 1014v266h195v-266 h-195zM1358 1014h-195v266h195v-266zM1104 1014h-195v266h195v-266zM848 1014h-195v266h195v-266zM1731 1014h-60v266h123zM594 1280v-266h-76l-53 143h-2l-45 123h176z" />
<glyph unicode="g" d="M1624 547l221 942h-1671l-55 149l-119 -43l385 -1048h2l84 -228q-49 -55 -49 -129q0 -78 56.5 -134t135.5 -56q63 0 114.5 39t68.5 100h387q18 -61 68.5 -100t115.5 -39q80 0 135.5 56.5t55.5 133.5q0 39 -15 74v4v0q-51 113 -176 113t-174 -113h-406q-51 113 -174 113 q-14 0 -28 -2l-64 168h1102zM352 1014h39v-105zM455 735v279h207v-334v-6h-185zM1536 1014h68l-68 -287v287zM1473 674h-207v6v334h207v-334v-6zM725 1014h207v-334v-6h-207v6v334zM995 680v334h207v-334v-6h-207v6zM1266 1077v285h207v-285h-207zM1202 1077h-207v285h207 v-285zM932 1077h-207v285h207v-285zM662 1077h-207v285h207v-285zM1618 1077h-82v285h150zM391 1362v-285h-63l-56 154h-2l-49 131h170z" />
<glyph unicode="h" horiz-adv-x="1878" d="M1612 477l176 754l-107 26l-157 -669h-914l-178 487l-2 -2l-141 385l-262 62l-27 -107l205 -49l325 -887h2l74 -198q-43 -49 -43 -113q0 -68 48 -117t118 -49q57 0 101 35t59 88h340q14 -53 58 -88t102 -35q70 0 117.5 49t47.5 117q0 35 -12 65v2h-2q-43 100 -151 101 q-109 0 -154 -101h-352q-45 100 -154 101q-10 0 -24 -2l-54 145h961zM1485 1098l-78 82l-283 -269v727h-112v-729l-295 271l-76 -82l428 -391z" />
<glyph unicode="i" d="M553 954v-127h866v127h-866zM432 1223v-129h1108v129h-1108zM1624 547l221 942h-1671l-55 149l-119 -43l385 -1048h2l84 -228q-49 -55 -49 -129q0 -78 56.5 -134t135.5 -56q63 0 114.5 39t68.5 100h387q18 -61 68.5 -100t115.5 -39q80 0 135.5 56.5t55.5 133.5 q0 39 -15 74v4v0q-51 113 -176 113t-174 -113h-406q-51 113 -174 113q-14 0 -28 -2l-64 168h1102zM1686 1362l-162 -688h-1047l-205 557h-2l-49 131h1465z" />
<glyph unicode="j" horiz-adv-x="2199" d="M877 322q68 0 114.5 -47.5t46.5 -112.5q0 -68 -47 -115t-114 -47q-66 0 -114 47t-48 115q0 66 48 113t114 47zM1573 322q68 0 115 -47.5t47 -112.5q0 -68 -47.5 -115t-114.5 -47q-66 0 -113 47t-47 115q0 66 47 113t113 47zM401 1382l-67 185l-303 71l-31 -125l238 -57 l376 -1028h1258l223 954h-1694zM453 1253v-12l-4 12h4zM612 809h35v192h-106l-47 129h153v123h129v-123h193v123h129v-123h194v123h129v-123h193v123h129v-123h162l-31 -129h-131v-192h86l-31 -129h-55v-123h-129v123h-193v-123h-129v123h-194v-123h-129v123h-193v-123h-71z M1614 1001h-193v-192h193v192zM1292 1001h-194v-192h194v192zM969 1001h-193v-192h193v192z" />
<glyph unicode="k" horiz-adv-x="2097" d="M696 344q72 0 122 -50t50 -122t-50 -122t-122 -50t-122 50t-50 122t50 122t122 50zM1440 344q72 0 122 -50t50 -122t-50.5 -122t-121.5 -50q-72 0 -122 50t-50 122t51 122t121 50zM188 1477l-59 161l-129 -47l416 -1134h1343l240 1020h-1811zM1825 1339l-2 -12v12h2z M414 864h30v207h-106l-51 137h157v131h138v-131h206v131h138v-131h207v131h137v-131h207v131h139v-131h178l-33 -137h-145v-207h96l-31 -139h-65v-131h-139v131h-207v-131h-137v131h-207v-131h-138v131h-206v-131h-70zM1477 1071h-207v-207h207v207zM1133 1071h-207v-207 h207v207zM788 1071h-206v-207h206v207z" />
<glyph unicode="l" horiz-adv-x="2181" d="M877 322q68 0 114.5 -47.5t46.5 -112.5q0 -68 -47 -115t-114 -47q-66 0 -114 47t-48 115q0 66 48 113t114 47zM1573 322q68 0 115 -47.5t47 -112.5q0 -68 -47.5 -115t-114.5 -47q-66 0 -113 47t-47 115q0 66 47 113t113 47zM1952 1333l-15 -63v35h-194v-193h155l-28 -129 h-127v-195h82l-31 -129h-51v-102h-129v102h-193v-102h-129v102h-194v-102h-129v102h-193v-102h-71l-84 231h26v195h-98l-47 129h145v193h-194v-64l-119 326l-303 71l-31 -125l238 -57l376 -1028h1258l205 875zM1614 1305h-193v-193h193v193zM1614 983h-193v-195h193v195z M1292 1305h-194v-193h194v193zM1292 983h-194v-195h194v195zM969 1305h-193v-193h193v193zM969 983h-193v-195h193v195z" />
<glyph unicode="m" horiz-adv-x="2181" d="M2036 1313q-20 49 -74 49q-31 0 -54.5 -22.5t-23.5 -53.5q0 -45 41 -67l-156 -662h-1064l-136 371q51 18 52 73q0 33 -23 55.5t-55 22.5q-18 0 -19 -10q0 -6 9.5 -28.5t9.5 -39.5v-4l-209 570l-303 71l-31 -125l238 -57l376 -1028h1258l205 875zM877 322 q-66 0 -114 -47.5t-48 -112.5q0 -68 48 -115t114 -47q68 0 114.5 47t46.5 115q0 66 -46.5 113t-114.5 47zM1573 322q-66 0 -113 -47.5t-47 -112.5q0 -68 47 -115t113 -47q68 0 115 47t47 115q0 66 -47 113t-115 47zM1679 641q31 0 53.5 22.5t22.5 55.5q0 31 -22.5 53.5 t-53.5 22.5q-33 0 -55 -22.5t-22 -53.5q0 -33 22 -55.5t55 -22.5zM1395 641q33 0 55.5 22.5t22.5 55.5q0 31 -23 53.5t-55 22.5q-33 0 -55.5 -22.5t-22.5 -53.5q0 -33 22.5 -55.5t55.5 -22.5zM1112 641q31 0 53.5 22.5t22.5 55.5q0 31 -22.5 53.5t-53.5 22.5 q-33 0 -55.5 -22.5t-22.5 -53.5q0 -33 22.5 -55.5t55.5 -22.5zM827 641q33 0 55.5 22.5t22.5 55.5q0 31 -22.5 53.5t-55.5 22.5t-55 -22.5t-22 -53.5q0 -33 22 -55.5t55 -22.5zM1679 924q31 0 53.5 22.5t22.5 54.5q0 33 -22.5 55.5t-53.5 22.5q-33 0 -55 -22.5t-22 -55.5 t22 -55t55 -22zM1395 924q33 0 55.5 22.5t22.5 54.5q0 33 -23 55.5t-55 22.5q-33 0 -55.5 -22.5t-22.5 -55.5t22.5 -55t55.5 -22zM1112 924q31 0 53.5 22.5t22.5 54.5q0 33 -22.5 55.5t-53.5 22.5q-33 0 -55.5 -22.5t-22.5 -55.5t22.5 -55t55.5 -22zM827 924q33 0 55.5 22.5 t22.5 54.5q0 33 -22.5 55.5t-55.5 22.5t-55 -22.5t-22 -55.5t22 -55t55 -22zM1679 1208q31 0 53.5 22.5t22.5 55.5q0 31 -22.5 53.5t-53.5 22.5q-33 0 -55 -22.5t-22 -53.5q0 -33 22 -55.5t55 -22.5zM1395 1208q33 0 55.5 22.5t22.5 55.5q0 31 -23 53.5t-55 22.5 q-33 0 -55.5 -22.5t-22.5 -53.5q0 -33 22.5 -55.5t55.5 -22.5zM1112 1208q31 0 53.5 22.5t22.5 55.5q0 31 -22.5 53.5t-53.5 22.5q-33 0 -55.5 -22.5t-22.5 -53.5q0 -33 22.5 -55.5t55.5 -22.5zM827 1208q33 0 55.5 22.5t22.5 55.5q0 31 -22.5 53.5t-55.5 22.5t-55 -22.5 t-22 -53.5q0 -33 22 -55.5t55 -22.5zM543 1208q33 0 55.5 22.5t22.5 55.5q0 31 -23 53.5t-55 22.5q-31 0 -53.5 -22.5t-22.5 -53.5q0 -33 22.5 -55.5t53.5 -22.5z" />
<glyph unicode="n" horiz-adv-x="2097" d="M188 1477l-59 161l-129 -47l416 -1134h1343l240 1020h-1811zM512 594l-158 430q20 23 21 53q0 70 -70 82l-55 150q20 -10 43 -11q47 0 72 41h159q23 -41 72 -41q47 0 72 41h159q23 -41 72 -41q47 0 72 41h159q23 -41 72 -41q47 0 72 41h160q25 -41 71 -41q47 0 72 41h160 q25 -41 71 -41h7l-33 -143q-57 -18 -58 -78q0 -35 25 -59l-98 -424h-1139zM696 344q-72 0 -122 -50t-50 -122t50.5 -122t121.5 -50q72 0 122 50t50 122t-50 122t-122 50zM1440 344q-70 0 -121 -50t-51 -122t50 -122t122 -50t122 50t50 122t-50 122t-122 50zM1505 856 q-35 0 -59.5 -23.5t-24.5 -58.5t24.5 -58.5t59.5 -23.5q33 0 57.5 23.5t24.5 58.5t-24.5 58.5t-57.5 23.5zM1202 856q-35 0 -59.5 -23.5t-24.5 -58.5t24.5 -58.5t59.5 -23.5q33 0 57.5 23.5t24.5 58.5t-24.5 58.5t-57.5 23.5zM899 856q-35 0 -59.5 -23.5t-24.5 -58.5 t24.5 -58.5t59.5 -23.5q33 0 57.5 23.5t24.5 58.5t-24.5 58.5t-57.5 23.5zM596 856q-35 0 -59.5 -23.5t-24.5 -58.5t24.5 -58.5t59.5 -23.5q33 0 57.5 23.5t24.5 58.5t-24.5 58.5t-57.5 23.5zM1505 1159q-35 0 -59.5 -23.5t-24.5 -58.5t24.5 -58.5t59.5 -23.5 q33 0 57.5 23.5t24.5 58.5t-24.5 58.5t-57.5 23.5zM1202 1159q-35 0 -59.5 -23.5t-24.5 -58.5t24.5 -58.5t59.5 -23.5q33 0 57.5 23.5t24.5 58.5t-24.5 58.5t-57.5 23.5zM899 1159q-35 0 -59.5 -23.5t-24.5 -58.5t24.5 -58.5t59.5 -23.5q33 0 57.5 23.5t24.5 58.5 t-24.5 58.5t-57.5 23.5zM596 1159q-35 0 -59.5 -23.5t-24.5 -58.5t24.5 -58.5t59.5 -23.5q33 0 57.5 23.5t24.5 58.5t-24.5 58.5t-57.5 23.5z" />
<glyph unicode="o" horiz-adv-x="2023" d="M729 897v-119h813v119h-813zM614 1149v-119h1043v119h-1043zM1737 514l190 813l-117 27l-168 -719h-985l-192 522h-2l-152 414l-282 67l-29 -116l219 -52l352 -956h2l80 -215q-47 -51 -47 -119q0 -76 52.5 -128t127.5 -52q61 0 108.5 37t63.5 94h365q16 -57 64.5 -94 t109.5 -37q74 0 126 52t52 128q0 35 -14 70v2v0q-47 106 -164 106q-119 0 -166 -106h-381q-47 106 -164 106q-12 0 -26 -2l-60 158h1037z" />
<glyph unicode="p" horiz-adv-x="2199" d="M877 322q68 0 114.5 -47.5t46.5 -112.5q0 -68 -47 -115t-114 -47q-66 0 -114 47t-48 115q0 66 48 113t114 47zM1573 322q68 0 115 -47.5t47 -112.5q0 -68 -47.5 -115t-114.5 -47q-66 0 -113 47t-47 115q0 66 47 113t113 47zM401 1382l-67 185l-303 71l-31 -125l238 -57 l376 -1028h1258l223 954h-1694zM1866 965h-64v288h131zM979 901h209v-338q0 -4 2 -6h-211v6v338zM979 1253h209v-288h-209v288zM915 965h-210v288h210v-288zM1462 965h-209v288h209v-288zM1528 1253h209v-288h-209v288zM1253 563v338h209v-338q0 -4 2 -6h-211v6zM1528 563 v338h209v-338v-6h-211q2 4 2 6zM1802 901h47l-47 -209v209zM641 1253v-288h-86l-106 288h192zM578 901h63v-170zM705 557v6v338h210v-338v-6h-210v0z" />
<glyph unicode="q" horiz-adv-x="2199" d="M0 1513l238 -57l376 -1028h1258l223 954h-1694l-67 185l-303 71zM1933 1253l-164 -696h-1064l-256 696h1484zM877 322q68 0 114.5 -47.5t46.5 -112.5q0 -68 -47 -115t-114 -47q-66 0 -114 47t-48 115q0 66 48 113t114 47zM1573 322q68 0 115 -47.5t47 -112.5 q0 -68 -47.5 -115t-114.5 -47q-66 0 -113 47t-47 115q0 66 47 113t113 47zM780 836v-129h879v129h-879zM659 1108v-129h1123v129h-1123z" />
<glyph unicode="r" horiz-adv-x="1808" d="M770 264q55 0 94 -38t39 -93t-39 -94t-94 -39t-94 39t-39 94t39 93t94 38zM1315 264q55 0 94 -38t39 -93t-39 -94t-94 -39t-94 39t-39 94t39 93t94 38zM645 983v-106h721v106h-721zM545 1204v-104h923v104h-923zM1722 1427h-1392l-56 152l-249 59l-25 -102l195 -47 l311 -846h2l125 -340h840v107h-766l-86 233h917zM582 750l-170 462h-2l-41 109h1220l-135 -571h-872z" />
<glyph unicode="s" horiz-adv-x="1703" d="M618 281q57 0 98.5 -41t41.5 -101q0 -57 -41 -98t-99 -41q-59 0 -100 41t-41 98q0 59 41 100.5t100 41.5zM1192 281q57 0 98 -41t41 -101q0 -57 -41 -98t-98 -41t-98 41t-41 98q0 59 41 100.5t98 41.5zM1622 1507h-1468l-50 131l-104 -39l338 -919h2l133 -358h885v110 h-807l-90 248h969zM649 1092h180v-293q2 -4 2 -8h-184q2 4 2 8v293zM649 1395h180v-248h-180v248zM592 1147h-180v248h180v-248zM1069 1147h-182v248h182v-248zM1124 1395h183v-248h-183v248zM887 799v293h182v-293v-8h-184q2 4 2 8zM1124 799v293h183v-293v-8h-185q2 4 2 8 zM1362 1092h49l-49 -207v207zM1423 1147h-61v248h119zM354 1395v-248h-65l-49 133h-2l-43 115h159zM309 1092h45v-125zM412 813v279h180v-293q0 -4 2 -8h-174z" />
<glyph unicode="t" horiz-adv-x="1703" d="M618 281q57 0 98.5 -41t41.5 -101q0 -57 -41 -98t-99 -41q-59 0 -100 41t-41 98q0 59 41 100.5t100 41.5zM1192 281q57 0 98 -41t41 -101q0 -57 -41 -98t-98 -41t-98 41t-41 98q0 59 41 100.5t98 41.5zM1622 1507h-1468l-50 131l-104 -39l338 -919h2l133 -358h885v110 h-807l-90 248h969zM420 791l-180 489h-2l-43 115h1286l-142 -604h-919zM485 926h762v110h-762v-110zM379 1272v-111h975v111h-975z" />
<glyph unicode="u" horiz-adv-x="2041" d="M729 897v-119h813v119h-813zM614 1149v-119h1043v119h-1043zM1737 514l209 887h-1573l-62 170l-282 67l-29 -116l219 -52l352 -956h2l80 -215q-47 -51 -47 -119q0 -76 52.5 -128t127.5 -52q61 0 108.5 37t63.5 94h365q16 -57 64.5 -94t109.5 -37q74 0 126 52t52 128 q0 35 -14 70v2v0q-47 106 -164 106q-119 0 -166 -106h-381q-47 106 -164 106q-12 0 -26 -2l-60 158h1037zM1794 1280l-152 -645h-985l-192 522h-2l-45 123h1376z" />
<glyph unicode="v" horiz-adv-x="2023" d="M1737 514l190 813l-117 27l-12 -58v33h-180v-180h145l-28 -119h-117v-180h76l-29 -119h-47v-96h-119v96h-180v-96h-121v96h-178v-96h-121v96h-178v-96h-64l-79 215h22v180h-88l-43 119h131v180h-178v-59l-111 301l-282 67l-29 -116l219 -52l352 -956h2l80 -215 q-47 -51 -47 -119q0 -76 52.5 -128t127.5 -52q61 0 108.5 37t63.5 94h365q16 -57 64.5 -94t109.5 -37q74 0 126 52t52 128q0 35 -14 70v2v0q-47 106 -164 106q-119 0 -166 -106h-381q-47 106 -164 106q-12 0 -26 -2l-60 158h1037zM1499 1329h-180v-180h180v180zM1499 1030 h-180v-180h180v180zM1198 1329h-178v-180h178v180zM1198 1030h-178v-180h178v180zM899 1329h-178v-180h178v180zM899 1030h-178v-180h178v180z" />
<glyph unicode="w" horiz-adv-x="2097" d="M0 1591l416 -1134h1343l240 1020h-1811l-59 161zM1825 1339l-174 -745h-1139l-272 745h1585zM696 344q72 0 122 -50t50 -122t-50 -122t-122 -50t-122 50t-50 122t50 122t122 50zM1440 344q72 0 122 -50t50 -122t-50.5 -122t-121.5 -50q-72 0 -122 50t-50 122t51 122 t121 50zM594 893v-137h938v137h-938zM463 1184v-140h1200v140h-1200z" />
<glyph unicode="x" horiz-adv-x="2041" d="M1737 514l209 887h-1573l-62 170l-282 67l-29 -116l219 -52l352 -956h2l80 -215q-47 -51 -47 -119q0 -76 52.5 -128t127.5 -52q61 0 108.5 37t63.5 94h365q16 -57 64.5 -94t109.5 -37q74 0 126 52t52 128q0 35 -14 70v2v0q-47 106 -164 106q-119 0 -166 -106h-381 q-47 106 -164 106q-12 0 -26 -2l-60 158h1037zM571 868h35v179h-100l-41 110h-2l-4 10h147v113h121v-113h178v113h121v-113h178v113h121v-113h178v113h121v-113h143l-28 -120h-115v-179h74l-29 -120h-45v-113h-121v113h-178v-113h-121v113h-178v-113h-121v113h-178v-113h-70 zM426 1280v-27l-8 27h8zM1503 1047h-178v-179h178v179zM1204 1047h-178v-179h178v179zM905 1047h-178v-179h178v179z" />
<glyph unicode="y" horiz-adv-x="1792" d="M770 264q55 0 94 -38t39 -93t-39 -94t-94 -39t-94 39t-39 94t39 93t94 38zM1315 264q55 0 94 -38t39 -93t-39 -94t-94 -39t-94 39t-39 94t39 93t94 38zM645 983v-106h721v106h-721zM545 1204v-104h923v104h-923zM1708 1362l-104 24l-150 -636h-872l-170 462h-2l-136 367 l-249 59l-25 -102l195 -47l311 -846h2l125 -340h840v107h-766l-86 233h917z" />
<glyph unicode="z" horiz-adv-x="1792" d="M1708 1362l-104 24l-13 -51v31h-157v-160h129l-27 -104h-102v-160h65l-24 -106h-41v-86h-107v86h-160v-86h-104v86h-160v-86h-106v86h-160v-86h-55l-70 192h20v160h-79l-39 104h118v160h-159v-53l-99 266l-249 59l-25 -102l195 -47l311 -846h2l125 -340h840v107h-766 l-86 233h917zM770 264q-55 0 -94 -38t-39 -93t39 -94t94 -39t94 39t39 94t-39 93t-94 38zM1315 264q-55 0 -94 -38t-39 -93t39 -94t94 -39t94 39t39 94t-39 93t-94 38zM1327 1366h-160v-160h160v160zM1327 1102h-160v-160h160v160zM1063 1366h-160v-160h160v160zM1063 1102 h-160v-160h160v160zM797 1366h-160v-160h160v160zM797 1102h-160v-160h160v160z" />
<glyph unicode="{" horiz-adv-x="6727" d="M6232 662l-135 16l-141 -29l-142 6l-137 -34l-141 26l-135 -10l-152 31l43 -140l59 -116l144 -4l135 -13l137 37l133 -43l138 23l135 16l2 -123l-158 41l-152 -29l-149 13l-147 -17l-150 31l-147 -41l-52 121l-28 123l-68 98l4 2l-61 139l-56 144l-43 145l-63 135 l-39 148l-49 141l-203 49l25 90h139l137 -36l27 -191l168 21l147 16l150 -8l147 -37l148 41l149 -29l148 10h147l145 5l115 -17l-2 -108l-51 -129l-6 -140l-27 -133l-63 -121zM5018 1309l12 -95l-12 -6l86 -118l90 -17l-17 137l9 150zM5167 915l6 121l-76 -2zM5394 1313 l-168 12l-28 -121l39 -96l178 -37v141zM5226 788l162 -6l19 117l14 156l-195 -25l-16 -133l39 -129zM5317 248l-37 -101l39 -100l106 -47l86 66l25 81l-17 89l-94 14zM5458 1081l182 11l-26 118l12 93l-148 2l13 -101zM5478 1012l-41 -117l17 -145l192 8l17 141l-19 133z M5863 1300l-157 23l-23 -119l4 -137l213 -6l-20 149zM5708 772l172 -8v135l4 135l-180 -6l28 -133zM5886 256l-12 -109l10 -114l117 -2l118 2l43 114l-81 70l-80 33zM5939 1090l166 18l21 102l10 144l-213 -2l10 -148zM5933 754l195 -2l-29 147l16 127l-188 23zM6296 1333 l-127 4l-5 -133l17 -117h47l61 115zM6177 905l6 129l24 -10zM8 653l-8 84l25 353zM55 518l-37 86l54 -88zM86 518l-66 111l21 487l111 80l167 -25l7 -241l-226 -2l-16 -72l20 -74l220 -12l2 -244zM43 1145l37 55l53 6zM117 889l-6 -41l8 -19l160 -26l-164 6l-15 39l13 59 h204zM254 475l-150 23l215 2zM317 1219l2 -23l-161 16zM621 471l-7 74l-108 -13l-144 64l-18 172l29 145l133 35l98 2v29l-82 25l-143 -23l-6 229l45 15l209 -25l45 -160v-551zM356 985l-6 168l8 41l4 -199zM600 498l-98 -6l-72 28l-55 41l125 -53l102 10zM381 936l2 22 l147 21zM483 840l-51 -37q2 -2 10 -19l162 -22q0 55 2 72zM432 1247l49 10l74 -4l57 -30zM455 803l53 12l86 -10v-14zM645 1196l31 -66l2 -63zM707 1108l10 74l2 -418zM713 610l8 133v-233zM823 911l-16 -237l6 -158l-80 -10l2 170l-8 516l76 6l12 -37l139 37l4 -280z M735 1212l41 27l17 -25zM848 864l-29 -180l19 199l112 6zM823 524l-4 133l10 -57zM825 1188l-6 24l123 7zM1217 510h-37q-66 0 -103 -2q-10 31 -43 154l-2 253q-25 0 -55 7l2 249l2 5q0 -6 4 -7l55 11l7 180l65 6l2 -209q49 -6 119 -16v-213h-127l2 -164l41 -39l55 33 l-8 129l61 -4l9 -203zM1028 1204l-45 -10l37 31l12 123zM1020 684l-8 197l-29 20l39 -4zM1036 565l-8 78l31 -123zM1147 756l-33 35l2 108l10 4l-4 -96l29 -35l37 10l4 -12zM1126 1180l-4 174l13 -158l63 -12l23 -23zM1257 580l-26 -68l33 131zM1245 948l-2 189l8 -101z M1294 944l9 66v-117zM1315 885l-2 145l213 4v-155zM1323 1051l90 24l94 -24h-184zM1417 829l-90 29l174 -2zM1573 631l-14 239l30 -282zM1882 580l-70 -50l-180 11l-28 26l-39 336l47 266l180 45l74 -26l53 -434zM1567 989l18 162l12 10zM1845 971l-53 10l-31 4l-78 -10 l-45 -27l-6 -117l74 -43l143 25l17 59zM1634 1200l66 39l74 -8zM1769 494l-96 8l-31 16l168 -6zM1704 811l-55 45l12 4l43 -33l68 7zM1849 852l-18 76l-53 18l-49 -12l-60 4l111 20l53 -14l18 -67zM1808 1227l35 6l21 -25zM1882 1165l16 -57l23 -254zM1913 614l-17 -22 l27 119zM1944 944l6 66l2 -117zM1964 885l-2 145l211 4l2 -155zM1972 1051l90 24l92 -24h-182zM2066 829l-92 29l176 -2zM2548 418l-41 -133l-150 -19l-139 8l-10 222l92 -19l172 10l8 27q-4 16 -8 43l-164 -25q-49 51 -70 68l-6 371l52 182l204 47h72zM2208 846l10 53 l8 -276zM2296 498l-84 20l90 -4l156 18l6 -18zM2228 1014l6 65l33 70zM2363 221l-127 27l127 -4l125 18zM2294 1180l43 39l127 4zM2480 948l-100 6l-86 -55l10 -108l145 -21l31 14v164zM2460 821l-2 90l-68 -8l-78 -35l2 21l82 35l68 4l4 -129zM2331 809l45 12l53 -24z M2488 1219l45 20l27 -20h-72zM2589 1108l10 74l2 -418zM2595 610l8 133v-233zM2705 911l-16 -237l4 -158l-80 -10l4 170l-8 516l74 6l12 -37l141 37l5 -280zM2617 1212l41 27l17 -25zM2730 864l-31 -180l21 199l112 6zM2703 524l-4 133l13 -57zM2705 1188l-4 24l121 7z M3127 471l-6 74l-108 -13l-144 64l-20 172l30 145l134 35l98 2v29l-82 25l-145 -23l-5 229l46 15l208 -25l45 -160v-551zM2863 985l-6 168l8 41l4 -199zM3107 498l-98 -6l-72 28l-55 41l124 -53l103 10zM2886 936l4 22l147 21zM2990 840l-51 -37q2 -2 10 -19l162 -22 q0 55 2 72zM2939 1247l49 10l74 -4l57 -30zM2961 803l54 12l86 -10v-14zM3152 1196l31 -66l2 -63zM3219 352l-6 174l19 260zM3232 834l-17 155l4 221zM3308 1184l167 47l64 -29l22 -33l29 -196l-24 -350l-115 -91h-45l-94 29l-4 -24l10 -195l-86 -4l10 483l-10 406l61 8z M3287 1253l-53 -6l28 21zM3318 1227l139 20l-143 -37l-11 35l9 2zM3318 958l-10 -73l4 -90l59 -4l141 34l4 105l-71 31zM3330 922l-4 -48l2 -43l41 -8l102 11l-104 -29l-47 6l-2 70l8 57h117zM3400 514l-70 8l-2 -12l-2 -162l-6 172l4 19zM3504 915l-2 -79l-6 71l-35 25z M3547 555l-72 -29l89 70zM3539 1219l-57 22l39 2zM3594 1081l2 -71l-24 147zM3598 764l-20 -115l20 289v-174zM3637 551l-10 59l8 338l4 -63zM3637 969l-8 139l8 274l8 -45zM3893 524l8 168l-20 246q-20 6 -61 25l-86 -72l-7 -367l-80 4l11 863l76 4l-3 -211l187 16l55 -227 l4 -441zM3664 1411l57 27l13 -21zM3748 553q-2 -16 -8 -29l4 318l10 -82q-6 -109 -6 -207zM3824 915l-19 -8l-47 -45l-14 4l53 49l29 21l37 -12zM3750 1210l47 21l111 -12zM3879 532l-2 150l-10 203l24 -201zM3932 1200l27 -53l8 -41l10 -92zM4006 868l20 279l13 2z M4024 639l-16 156l45 -234zM4299 514l-230 27l-51 274l35 340l217 45l31 -18l43 -279l-4 -125l-37 -6l-17 2l-190 -4l8 -61l58 -11l188 15l18 -13v-178zM4061 1184l4 24l187 6zM4182 483l-88 31l192 -22zM4250 1055l-9 6l-135 -21l-8 -63l57 -6h99l8 8zM4200 727l-63 4 l-18 12l204 9zM4123 999l2 13l112 12v-18zM4344 483l-41 15l65 6zM4315 1176l19 -48l14 -184zM4379 1108l10 74l2 -418zM4385 610l8 133v-233zM4495 911l-16 -237l6 -158l-80 -10l2 170l-8 516l76 6l12 -37l139 37l5 -280zM4407 1212l41 27l17 -25zM4520 864l-29 -180 l19 199l112 6zM4495 524l-4 133l11 -57zM4495 1188l-4 24l123 7zM3428 356l-2 21v16h15v-16l-4 -21h-9zM3453 356l-4 21v16h14v-16l-4 -21h-6zM3482 291v63h-11v11h11v8q0 20 20 20h12l-2 -10h-8q-10 0 -10 -12v-6h14v-11h-14v-63h-12zM3514 328q0 39 33 39q35 0 35 -37 q0 -41 -35 -41q-33 0 -33 39zM3527 328q0 -27 20 -27q23 0 23 27q0 29 -23 28q-20 1 -20 -28zM3596 291v74h13v-11q8 12 22 13q20 0 25 -19v-12v-45h-13v45q0 20 -14 20q-20 0 -20 -24v-41h-13zM3703 303l2 -12h-10q-18 0 -19 22v41h-8v11h8v18l14 8v-26h13v-11h-13v-43 q0 -10 7 -10q2 2 6 2zM3801 291v10q-8 -12 -20 -12q-31 0 -31 39t31 39q12 0 18 -11v37h14v-102h-12zM3762 328q0 -27 21 -27q18 0 18 27q0 29 -20 28q-19 1 -19 -28zM3883 315l12 -2q-6 -25 -32 -24q-35 0 -35 39t35 39q33 0 32 -39v-2h-55q2 -25 23 -25q14 0 20 14z M3842 336h41q-2 20 -20 20q-21 0 -21 -20zM3906 313l12 2q2 -14 18 -14q18 0 19 10q0 6 -17 11q-31 8 -30 24q0 20 26 21q27 0 29 -21l-12 -2q0 12 -15 12q-16 0 -16 -10q0 -6 16 -10q31 -8 31 -23q0 -25 -31 -24q-26 -1 -30 24zM3981 379v14h13v-14h-13zM3981 291v74h13 v-74h-13zM4010 285h12q2 -12 17 -13q16 0 20 13v16q-8 -10 -20 -10q-31 0 -31 37q0 39 31 39q14 0 22 -11v9h10v-64q0 -39 -32 -39q-29 0 -29 23zM4020 330q0 -29 21 -29q20 0 20 29q0 27 -20 26q-21 1 -21 -26zM4092 291v74h10v-11q8 12 23 13q23 0 24 -19q2 -2 2 -12v-45 h-12v45q0 20 -16 20q-18 0 -19 -24v-41h-12zM4219 315l14 -2q-6 -25 -33 -24q-35 0 -34 39q0 39 34 39q33 0 33 -39v-2h-55q2 -25 22 -25q15 0 19 14zM4178 336h43q-2 20 -21 20q-20 0 -22 -20zM4248 291v74h12v-11q6 12 14 13q8 0 15 -5l-5 -12q-6 4 -10 4q-14 0 -14 -24 v-39h-12zM4291 313l12 2q2 -14 18 -14t17 10q0 6 -17 11q-29 8 -28 24q0 20 26 21q27 0 29 -21l-12 -2q-2 12 -17 12q-14 0 -14 -10q0 -6 16 -10q31 -8 31 -23q0 -25 -31 -24q-26 -1 -30 24zM3475 121v10q-6 -12 -20 -12q-31 0 -31 39t31 39q12 0 20 -11v35h13v-100h-13z M3437 158q0 -29 20 -29q18 0 18 27q0 31 -18 30q-20 1 -20 -28zM3502 158q0 39 35 39t35 -39t-35 -39t-35 39zM3514 158q0 -29 23 -29q20 0 20 29t-20 28q-23 1 -23 -28zM3586 121v74h10v-11q8 12 25 13q20 0 24 -19v-12v-45h-12v45q0 18 -16 18q-18 0 -19 -22v-41h-12z M3664 186l-2 19v16h14v-16l-4 -19h-8zM3719 131v-10h-8q-18 0 -18 20v43h-9v11h9v18l12 6v-24h14v-11h-14v-43q0 -10 8 -10h6zM3770 121v74h11v-11q8 12 22 13q16 0 21 -15q8 14 22 15q23 0 23 -25v-51h-13v47q0 16 -12 16q-18 0 -18 -20v-43h-13v47q0 16 -12 16 q-18 0 -18 -24v-39h-13zM3934 129q-12 -10 -26 -10q-25 0 -25 20t29 25q16 0 22 4v2q0 16 -18 16q-14 0 -19 -14l-12 2q4 23 33 23q25 0 28 -17v-12v-16q0 -25 5 -31h-13zM3934 158q-12 -2 -24.5 -5t-12.5 -12q0 -12 15 -12q25 0 22 25v4zM3965 121v100h14v-57l29 31h16 l-28 -29l30 -45h-14l-25 37l-8 -8v-29h-14zM4086 145l14 -2q-6 -25 -33 -24q-35 0 -34 39q0 39 34 39q33 0 33 -39v-4h-55q2 -25 22 -25q15 0 19 16zM4045 164h41q0 23 -19 22q-20 1 -22 -22zM4202 147l13 -2q-4 -27 -31 -26q-33 0 -33 39t33 39q25 0 29 -25l-13 -2 q-2 16 -16 16q-20 0 -20 -28q0 -29 20 -29q16 0 18 18zM4272 129q-12 -10 -26 -10q-25 0 -25 20t29 25q14 0 22 4v2q0 16 -18 16q-14 0 -19 -14l-12 2q4 23 33 23q25 0 28 -17v-12v-16q0 -25 5 -31h-13q-4 4 -4 8zM4272 158q-12 -2 -22 -4q-16 -4 -17 -13q0 -12 17 -12 q25 0 22 25v4zM4303 121v74h12v-13q6 14 14 15q8 0 15 -4l-4 -13q-6 2 -11 2q-14 0 -14 -22v-39h-12zM4377 131l2 -10h-9q-18 0 -18 20v43h-8v11h8v18l12 6v-24h13v-11h-13v-43q0 -10 8 -10h5zM4385 143l12 2q2 -16 18 -16t17 12q0 6 -17 11q-29 8 -28 22q0 23 26 23 q27 0 29 -21l-12 -2q-2 12 -15 12q-16 0 -16 -10q0 -6 16 -10q31 -8 31 -23q0 -25 -31 -24q-26 -1 -30 24zM4461 186l-5 19v16h15v-16l-2 -19h-8zM4483 186l-2 19v16h12v-16l-2 -19h-8z" />
<glyph unicode="|" horiz-adv-x="6727" d="M6232 662l-135 16l-141 -29l-142 6l-137 -34l-141 26l-135 -10l-152 31l43 -140l59 -116l144 -4l135 -13l137 37l133 -43l138 23l135 16l2 -123l-158 41l-152 -29l-149 13l-147 -17l-150 31l-147 -41l-52 121l-28 123l-68 98l4 2l-61 139l-56 144l-43 145l-63 135 l-39 148l-49 141l-203 49l25 90h139l137 -36l27 -191l168 21l147 16l150 -8l147 -37l148 41l149 -29l148 10h147l145 5l115 -17l-2 -108l-51 -129l-6 -140l-27 -133l-63 -121zM5018 1309l12 -95l-12 -6l86 -118l90 -17l-17 137l9 150zM5167 915l6 121l-76 -2zM5394 1313 l-168 12l-28 -121l39 -96l178 -37v141zM5226 788l162 -6l19 117l14 156l-195 -25l-16 -133l39 -129zM5317 248l-37 -101l39 -100l106 -47l86 66l25 81l-17 89l-94 14zM5458 1081l182 11l-26 118l12 93l-148 2l13 -101zM5478 1012l-41 -117l17 -145l192 8l17 141l-19 133z M5863 1300l-157 23l-23 -119l4 -137l213 -6l-20 149zM5708 772l172 -8v135l4 135l-180 -6l28 -133zM5886 256l-12 -109l10 -114l117 -2l118 2l43 114l-81 70l-80 33zM5939 1090l166 18l21 102l10 144l-213 -2l10 -148zM5933 754l195 -2l-29 147l16 127l-188 23zM6296 1333 l-127 4l-5 -133l17 -117h47l61 115zM6177 905l6 129l24 -10zM8 653l-8 84l25 353zM55 518l-37 86l54 -88zM86 518l-66 111l21 487l111 80l167 -25l7 -241l-226 -2l-16 -72l20 -74l220 -12l2 -244zM43 1145l37 55l53 6zM117 889l-6 -41l8 -19l160 -26l-164 6l-15 39l13 59 h204zM254 475l-150 23l215 2zM317 1219l2 -23l-161 16zM621 471l-7 74l-108 -13l-144 64l-18 172l29 145l133 35l98 2v29l-82 25l-143 -23l-6 229l45 15l209 -25l45 -160v-551zM356 985l-6 168l8 41l4 -199zM600 498l-98 -6l-72 28l-55 41l125 -53l102 10zM381 936l2 22 l147 21zM483 840l-51 -37q2 -2 10 -19l162 -22q0 55 2 72zM432 1247l49 10l74 -4l57 -30zM455 803l53 12l86 -10v-14zM645 1196l31 -66l2 -63zM707 1108l10 74l2 -418zM713 610l8 133v-233zM823 911l-16 -237l6 -158l-80 -10l2 170l-8 516l76 6l12 -37l139 37l4 -280z M735 1212l41 27l17 -25zM848 864l-29 -180l19 199l112 6zM823 524l-4 133l10 -57zM825 1188l-6 24l123 7zM1217 510h-37q-66 0 -103 -2q-10 31 -43 154l-2 253q-25 0 -55 7l2 249l2 5q0 -6 4 -7l55 11l7 180l65 6l2 -209q49 -6 119 -16v-213h-127l2 -164l41 -39l55 33 l-8 129l61 -4l9 -203zM1028 1204l-45 -10l37 31l12 123zM1020 684l-8 197l-29 20l39 -4zM1036 565l-8 78l31 -123zM1147 756l-33 35l2 108l10 4l-4 -96l29 -35l37 10l4 -12zM1126 1180l-4 174l13 -158l63 -12l23 -23zM1257 580l-26 -68l33 131zM1245 948l-2 189l8 -101z M1294 944l9 66v-117zM1315 885l-2 145l213 4v-155zM1323 1051l90 24l94 -24h-184zM1417 829l-90 29l174 -2zM1573 631l-14 239l30 -282zM1882 580l-70 -50l-180 11l-28 26l-39 336l47 266l180 45l74 -26l53 -434zM1567 989l18 162l12 10zM1845 971l-53 10l-31 4l-78 -10 l-45 -27l-6 -117l74 -43l143 25l17 59zM1634 1200l66 39l74 -8zM1769 494l-96 8l-31 16l168 -6zM1704 811l-55 45l12 4l43 -33l68 7zM1849 852l-18 76l-53 18l-49 -12l-60 4l111 20l53 -14l18 -67zM1808 1227l35 6l21 -25zM1882 1165l16 -57l23 -254zM1913 614l-17 -22 l27 119zM1944 944l6 66l2 -117zM1964 885l-2 145l211 4l2 -155zM1972 1051l90 24l92 -24h-182zM2066 829l-92 29l176 -2zM2548 418l-41 -133l-150 -19l-139 8l-10 222l92 -19l172 10l8 27q-4 16 -8 43l-164 -25q-49 51 -70 68l-6 371l52 182l204 47h72zM2208 846l10 53 l8 -276zM2296 498l-84 20l90 -4l156 18l6 -18zM2228 1014l6 65l33 70zM2363 221l-127 27l127 -4l125 18zM2294 1180l43 39l127 4zM2480 948l-100 6l-86 -55l10 -108l145 -21l31 14v164zM2460 821l-2 90l-68 -8l-78 -35l2 21l82 35l68 4l4 -129zM2331 809l45 12l53 -24z M2488 1219l45 20l27 -20h-72zM2589 1108l10 74l2 -418zM2595 610l8 133v-233zM2705 911l-16 -237l4 -158l-80 -10l4 170l-8 516l74 6l12 -37l141 37l5 -280zM2617 1212l41 27l17 -25zM2730 864l-31 -180l21 199l112 6zM2703 524l-4 133l13 -57zM2705 1188l-4 24l121 7z M3127 471l-6 74l-108 -13l-144 64l-20 172l30 145l134 35l98 2v29l-82 25l-145 -23l-5 229l46 15l208 -25l45 -160v-551zM2863 985l-6 168l8 41l4 -199zM3107 498l-98 -6l-72 28l-55 41l124 -53l103 10zM2886 936l4 22l147 21zM2990 840l-51 -37q2 -2 10 -19l162 -22 q0 55 2 72zM2939 1247l49 10l74 -4l57 -30zM2961 803l54 12l86 -10v-14zM3152 1196l31 -66l2 -63zM3219 352l-6 174l19 260zM3232 834l-17 155l4 221zM3308 1184l167 47l64 -29l22 -33l29 -196l-24 -350l-115 -91h-45l-94 29l-4 -24l10 -195l-86 -4l10 483l-10 406l61 8z M3287 1253l-53 -6l28 21zM3318 1227l139 20l-143 -37l-11 35l9 2zM3318 958l-10 -73l4 -90l59 -4l141 34l4 105l-71 31zM3330 922l-4 -48l2 -43l41 -8l102 11l-104 -29l-47 6l-2 70l8 57h117zM3400 514l-70 8l-2 -12l-2 -162l-6 172l4 19zM3504 915l-2 -79l-6 71l-35 25z M3547 555l-72 -29l89 70zM3539 1219l-57 22l39 2zM3594 1081l2 -71l-24 147zM3598 764l-20 -115l20 289v-174zM3637 551l-10 59l8 338l4 -63zM3637 969l-8 139l8 274l8 -45zM3893 524l8 168l-20 246q-20 6 -61 25l-86 -72l-7 -367l-80 4l11 863l76 4l-3 -211l187 16l55 -227 l4 -441zM3664 1411l57 27l13 -21zM3748 553q-2 -16 -8 -29l4 318l10 -82q-6 -109 -6 -207zM3824 915l-19 -8l-47 -45l-14 4l53 49l29 21l37 -12zM3750 1210l47 21l111 -12zM3879 532l-2 150l-10 203l24 -201zM3932 1200l27 -53l8 -41l10 -92zM4006 868l20 279l13 2z M4024 639l-16 156l45 -234zM4299 514l-230 27l-51 274l35 340l217 45l31 -18l43 -279l-4 -125l-37 -6l-17 2l-190 -4l8 -61l58 -11l188 15l18 -13v-178zM4061 1184l4 24l187 6zM4182 483l-88 31l192 -22zM4250 1055l-9 6l-135 -21l-8 -63l57 -6h99l8 8zM4200 727l-63 4 l-18 12l204 9zM4123 999l2 13l112 12v-18zM4344 483l-41 15l65 6zM4315 1176l19 -48l14 -184zM4379 1108l10 74l2 -418zM4385 610l8 133v-233zM4495 911l-16 -237l6 -158l-80 -10l2 170l-8 516l76 6l12 -37l139 37l5 -280zM4407 1212l41 27l17 -25zM4520 864l-29 -180 l19 199l112 6zM4495 524l-4 133l11 -57zM4495 1188l-4 24l123 7zM3428 356l-2 21v16h15v-16l-4 -21h-9zM3453 356l-4 21v16h14v-16l-4 -21h-6zM3482 291v63h-11v11h11v8q0 20 20 20h12l-2 -10h-8q-10 0 -10 -12v-6h14v-11h-14v-63h-12zM3514 328q0 39 33 39q35 0 35 -37 q0 -41 -35 -41q-33 0 -33 39zM3527 328q0 -27 20 -27q23 0 23 27q0 29 -23 28q-20 1 -20 -28zM3596 291v74h13v-11q8 12 22 13q20 0 25 -19v-12v-45h-13v45q0 20 -14 20q-20 0 -20 -24v-41h-13zM3703 303l2 -12h-10q-18 0 -19 22v41h-8v11h8v18l14 8v-26h13v-11h-13v-43 q0 -10 7 -10q2 2 6 2zM3801 291v10q-8 -12 -20 -12q-31 0 -31 39t31 39q12 0 18 -11v37h14v-102h-12zM3762 328q0 -27 21 -27q18 0 18 27q0 29 -20 28q-19 1 -19 -28zM3883 315l12 -2q-6 -25 -32 -24q-35 0 -35 39t35 39q33 0 32 -39v-2h-55q2 -25 23 -25q14 0 20 14z M3842 336h41q-2 20 -20 20q-21 0 -21 -20zM3906 313l12 2q2 -14 18 -14q18 0 19 10q0 6 -17 11q-31 8 -30 24q0 20 26 21q27 0 29 -21l-12 -2q0 12 -15 12q-16 0 -16 -10q0 -6 16 -10q31 -8 31 -23q0 -25 -31 -24q-26 -1 -30 24zM3981 379v14h13v-14h-13zM3981 291v74h13 v-74h-13zM4010 285h12q2 -12 17 -13q16 0 20 13v16q-8 -10 -20 -10q-31 0 -31 37q0 39 31 39q14 0 22 -11v9h10v-64q0 -39 -32 -39q-29 0 -29 23zM4020 330q0 -29 21 -29q20 0 20 29q0 27 -20 26q-21 1 -21 -26zM4092 291v74h10v-11q8 12 23 13q23 0 24 -19q2 -2 2 -12v-45 h-12v45q0 20 -16 20q-18 0 -19 -24v-41h-12zM4219 315l14 -2q-6 -25 -33 -24q-35 0 -34 39q0 39 34 39q33 0 33 -39v-2h-55q2 -25 22 -25q15 0 19 14zM4178 336h43q-2 20 -21 20q-20 0 -22 -20zM4248 291v74h12v-11q6 12 14 13q8 0 15 -5l-5 -12q-6 4 -10 4q-14 0 -14 -24 v-39h-12zM4291 313l12 2q2 -14 18 -14t17 10q0 6 -17 11q-29 8 -28 24q0 20 26 21q27 0 29 -21l-12 -2q-2 12 -17 12q-14 0 -14 -10q0 -6 16 -10q31 -8 31 -23q0 -25 -31 -24q-26 -1 -30 24zM3475 121v10q-6 -12 -20 -12q-31 0 -31 39t31 39q12 0 20 -11v35h13v-100h-13z M3437 158q0 -29 20 -29q18 0 18 27q0 31 -18 30q-20 1 -20 -28zM3502 158q0 39 35 39t35 -39t-35 -39t-35 39zM3514 158q0 -29 23 -29q20 0 20 29t-20 28q-23 1 -23 -28zM3586 121v74h10v-11q8 12 25 13q20 0 24 -19v-12v-45h-12v45q0 18 -16 18q-18 0 -19 -22v-41h-12z M3664 186l-2 19v16h14v-16l-4 -19h-8zM3719 131v-10h-8q-18 0 -18 20v43h-9v11h9v18l12 6v-24h14v-11h-14v-43q0 -10 8 -10h6zM3770 121v74h11v-11q8 12 22 13q16 0 21 -15q8 14 22 15q23 0 23 -25v-51h-13v47q0 16 -12 16q-18 0 -18 -20v-43h-13v47q0 16 -12 16 q-18 0 -18 -24v-39h-13zM3934 129q-12 -10 -26 -10q-25 0 -25 20t29 25q16 0 22 4v2q0 16 -18 16q-14 0 -19 -14l-12 2q4 23 33 23q25 0 28 -17v-12v-16q0 -25 5 -31h-13zM3934 158q-12 -2 -24.5 -5t-12.5 -12q0 -12 15 -12q25 0 22 25v4zM3965 121v100h14v-57l29 31h16 l-28 -29l30 -45h-14l-25 37l-8 -8v-29h-14zM4086 145l14 -2q-6 -25 -33 -24q-35 0 -34 39q0 39 34 39q33 0 33 -39v-4h-55q2 -25 22 -25q15 0 19 16zM4045 164h41q0 23 -19 22q-20 1 -22 -22zM4202 147l13 -2q-4 -27 -31 -26q-33 0 -33 39t33 39q25 0 29 -25l-13 -2 q-2 16 -16 16q-20 0 -20 -28q0 -29 20 -29q16 0 18 18zM4272 129q-12 -10 -26 -10q-25 0 -25 20t29 25q14 0 22 4v2q0 16 -18 16q-14 0 -19 -14l-12 2q4 23 33 23q25 0 28 -17v-12v-16q0 -25 5 -31h-13q-4 4 -4 8zM4272 158q-12 -2 -22 -4q-16 -4 -17 -13q0 -12 17 -12 q25 0 22 25v4zM4303 121v74h12v-13q6 14 14 15q8 0 15 -4l-4 -13q-6 2 -11 2q-14 0 -14 -22v-39h-12zM4377 131l2 -10h-9q-18 0 -18 20v43h-8v11h8v18l12 6v-24h13v-11h-13v-43q0 -10 8 -10h5zM4385 143l12 2q2 -16 18 -16t17 12q0 6 -17 11q-29 8 -28 22q0 23 26 23 q27 0 29 -21l-12 -2q-2 12 -15 12q-16 0 -16 -10q0 -6 16 -10q31 -8 31 -23q0 -25 -31 -24q-26 -1 -30 24zM4461 186l-5 19v16h15v-16l-2 -19h-8zM4483 186l-2 19v16h12v-16l-2 -19h-8z" />
<glyph unicode="}" horiz-adv-x="6727" d="M6232 662l-135 16l-141 -29l-142 6l-137 -34l-141 26l-135 -10l-152 31l43 -140l59 -116l144 -4l135 -13l137 37l133 -43l138 23l135 16l2 -123l-158 41l-152 -29l-149 13l-147 -17l-150 31l-147 -41l-52 121l-28 123l-68 98l4 2l-61 139l-56 144l-43 145l-63 135 l-39 148l-49 141l-203 49l25 90h139l137 -36l27 -191l168 21l147 16l150 -8l147 -37l148 41l149 -29l148 10h147l145 5l115 -17l-2 -108l-51 -129l-6 -140l-27 -133l-63 -121zM5018 1309l12 -95l-12 -6l86 -118l90 -17l-17 137l9 150zM5167 915l6 121l-76 -2zM5394 1313 l-168 12l-28 -121l39 -96l178 -37v141zM5226 788l162 -6l19 117l14 156l-195 -25l-16 -133l39 -129zM5317 248l-37 -101l39 -100l106 -47l86 66l25 81l-17 89l-94 14zM5458 1081l182 11l-26 118l12 93l-148 2l13 -101zM5478 1012l-41 -117l17 -145l192 8l17 141l-19 133z M5863 1300l-157 23l-23 -119l4 -137l213 -6l-20 149zM5708 772l172 -8v135l4 135l-180 -6l28 -133zM5886 256l-12 -109l10 -114l117 -2l118 2l43 114l-81 70l-80 33zM5939 1090l166 18l21 102l10 144l-213 -2l10 -148zM5933 754l195 -2l-29 147l16 127l-188 23zM6296 1333 l-127 4l-5 -133l17 -117h47l61 115zM6177 905l6 129l24 -10zM8 653l-8 84l25 353zM55 518l-37 86l54 -88zM86 518l-66 111l21 487l111 80l167 -25l7 -241l-226 -2l-16 -72l20 -74l220 -12l2 -244zM43 1145l37 55l53 6zM117 889l-6 -41l8 -19l160 -26l-164 6l-15 39l13 59 h204zM254 475l-150 23l215 2zM317 1219l2 -23l-161 16zM621 471l-7 74l-108 -13l-144 64l-18 172l29 145l133 35l98 2v29l-82 25l-143 -23l-6 229l45 15l209 -25l45 -160v-551zM356 985l-6 168l8 41l4 -199zM600 498l-98 -6l-72 28l-55 41l125 -53l102 10zM381 936l2 22 l147 21zM483 840l-51 -37q2 -2 10 -19l162 -22q0 55 2 72zM432 1247l49 10l74 -4l57 -30zM455 803l53 12l86 -10v-14zM645 1196l31 -66l2 -63zM707 1108l10 74l2 -418zM713 610l8 133v-233zM823 911l-16 -237l6 -158l-80 -10l2 170l-8 516l76 6l12 -37l139 37l4 -280z M735 1212l41 27l17 -25zM848 864l-29 -180l19 199l112 6zM823 524l-4 133l10 -57zM825 1188l-6 24l123 7zM1217 510h-37q-66 0 -103 -2q-10 31 -43 154l-2 253q-25 0 -55 7l2 249l2 5q0 -6 4 -7l55 11l7 180l65 6l2 -209q49 -6 119 -16v-213h-127l2 -164l41 -39l55 33 l-8 129l61 -4l9 -203zM1028 1204l-45 -10l37 31l12 123zM1020 684l-8 197l-29 20l39 -4zM1036 565l-8 78l31 -123zM1147 756l-33 35l2 108l10 4l-4 -96l29 -35l37 10l4 -12zM1126 1180l-4 174l13 -158l63 -12l23 -23zM1257 580l-26 -68l33 131zM1245 948l-2 189l8 -101z M1294 944l9 66v-117zM1315 885l-2 145l213 4v-155zM1323 1051l90 24l94 -24h-184zM1417 829l-90 29l174 -2zM1573 631l-14 239l30 -282zM1882 580l-70 -50l-180 11l-28 26l-39 336l47 266l180 45l74 -26l53 -434zM1567 989l18 162l12 10zM1845 971l-53 10l-31 4l-78 -10 l-45 -27l-6 -117l74 -43l143 25l17 59zM1634 1200l66 39l74 -8zM1769 494l-96 8l-31 16l168 -6zM1704 811l-55 45l12 4l43 -33l68 7zM1849 852l-18 76l-53 18l-49 -12l-60 4l111 20l53 -14l18 -67zM1808 1227l35 6l21 -25zM1882 1165l16 -57l23 -254zM1913 614l-17 -22 l27 119zM1944 944l6 66l2 -117zM1964 885l-2 145l211 4l2 -155zM1972 1051l90 24l92 -24h-182zM2066 829l-92 29l176 -2zM2548 418l-41 -133l-150 -19l-139 8l-10 222l92 -19l172 10l8 27q-4 16 -8 43l-164 -25q-49 51 -70 68l-6 371l52 182l204 47h72zM2208 846l10 53 l8 -276zM2296 498l-84 20l90 -4l156 18l6 -18zM2228 1014l6 65l33 70zM2363 221l-127 27l127 -4l125 18zM2294 1180l43 39l127 4zM2480 948l-100 6l-86 -55l10 -108l145 -21l31 14v164zM2460 821l-2 90l-68 -8l-78 -35l2 21l82 35l68 4l4 -129zM2331 809l45 12l53 -24z M2488 1219l45 20l27 -20h-72zM2589 1108l10 74l2 -418zM2595 610l8 133v-233zM2705 911l-16 -237l4 -158l-80 -10l4 170l-8 516l74 6l12 -37l141 37l5 -280zM2617 1212l41 27l17 -25zM2730 864l-31 -180l21 199l112 6zM2703 524l-4 133l13 -57zM2705 1188l-4 24l121 7z M3127 471l-6 74l-108 -13l-144 64l-20 172l30 145l134 35l98 2v29l-82 25l-145 -23l-5 229l46 15l208 -25l45 -160v-551zM2863 985l-6 168l8 41l4 -199zM3107 498l-98 -6l-72 28l-55 41l124 -53l103 10zM2886 936l4 22l147 21zM2990 840l-51 -37q2 -2 10 -19l162 -22 q0 55 2 72zM2939 1247l49 10l74 -4l57 -30zM2961 803l54 12l86 -10v-14zM3152 1196l31 -66l2 -63zM3219 352l-6 174l19 260zM3232 834l-17 155l4 221zM3308 1184l167 47l64 -29l22 -33l29 -196l-24 -350l-115 -91h-45l-94 29l-4 -24l10 -195l-86 -4l10 483l-10 406l61 8z M3287 1253l-53 -6l28 21zM3318 1227l139 20l-143 -37l-11 35l9 2zM3318 958l-10 -73l4 -90l59 -4l141 34l4 105l-71 31zM3330 922l-4 -48l2 -43l41 -8l102 11l-104 -29l-47 6l-2 70l8 57h117zM3400 514l-70 8l-2 -12l-2 -162l-6 172l4 19zM3504 915l-2 -79l-6 71l-35 25z M3547 555l-72 -29l89 70zM3539 1219l-57 22l39 2zM3594 1081l2 -71l-24 147zM3598 764l-20 -115l20 289v-174zM3637 551l-10 59l8 338l4 -63zM3637 969l-8 139l8 274l8 -45zM3893 524l8 168l-20 246q-20 6 -61 25l-86 -72l-7 -367l-80 4l11 863l76 4l-3 -211l187 16l55 -227 l4 -441zM3664 1411l57 27l13 -21zM3748 553q-2 -16 -8 -29l4 318l10 -82q-6 -109 -6 -207zM3824 915l-19 -8l-47 -45l-14 4l53 49l29 21l37 -12zM3750 1210l47 21l111 -12zM3879 532l-2 150l-10 203l24 -201zM3932 1200l27 -53l8 -41l10 -92zM4006 868l20 279l13 2z M4024 639l-16 156l45 -234zM4299 514l-230 27l-51 274l35 340l217 45l31 -18l43 -279l-4 -125l-37 -6l-17 2l-190 -4l8 -61l58 -11l188 15l18 -13v-178zM4061 1184l4 24l187 6zM4182 483l-88 31l192 -22zM4250 1055l-9 6l-135 -21l-8 -63l57 -6h99l8 8zM4200 727l-63 4 l-18 12l204 9zM4123 999l2 13l112 12v-18zM4344 483l-41 15l65 6zM4315 1176l19 -48l14 -184zM4379 1108l10 74l2 -418zM4385 610l8 133v-233zM4495 911l-16 -237l6 -158l-80 -10l2 170l-8 516l76 6l12 -37l139 37l5 -280zM4407 1212l41 27l17 -25zM4520 864l-29 -180 l19 199l112 6zM4495 524l-4 133l11 -57zM4495 1188l-4 24l123 7zM3428 356l-2 21v16h15v-16l-4 -21h-9zM3453 356l-4 21v16h14v-16l-4 -21h-6zM3482 291v63h-11v11h11v8q0 20 20 20h12l-2 -10h-8q-10 0 -10 -12v-6h14v-11h-14v-63h-12zM3514 328q0 39 33 39q35 0 35 -37 q0 -41 -35 -41q-33 0 -33 39zM3527 328q0 -27 20 -27q23 0 23 27q0 29 -23 28q-20 1 -20 -28zM3596 291v74h13v-11q8 12 22 13q20 0 25 -19v-12v-45h-13v45q0 20 -14 20q-20 0 -20 -24v-41h-13zM3703 303l2 -12h-10q-18 0 -19 22v41h-8v11h8v18l14 8v-26h13v-11h-13v-43 q0 -10 7 -10q2 2 6 2zM3801 291v10q-8 -12 -20 -12q-31 0 -31 39t31 39q12 0 18 -11v37h14v-102h-12zM3762 328q0 -27 21 -27q18 0 18 27q0 29 -20 28q-19 1 -19 -28zM3883 315l12 -2q-6 -25 -32 -24q-35 0 -35 39t35 39q33 0 32 -39v-2h-55q2 -25 23 -25q14 0 20 14z M3842 336h41q-2 20 -20 20q-21 0 -21 -20zM3906 313l12 2q2 -14 18 -14q18 0 19 10q0 6 -17 11q-31 8 -30 24q0 20 26 21q27 0 29 -21l-12 -2q0 12 -15 12q-16 0 -16 -10q0 -6 16 -10q31 -8 31 -23q0 -25 -31 -24q-26 -1 -30 24zM3981 379v14h13v-14h-13zM3981 291v74h13 v-74h-13zM4010 285h12q2 -12 17 -13q16 0 20 13v16q-8 -10 -20 -10q-31 0 -31 37q0 39 31 39q14 0 22 -11v9h10v-64q0 -39 -32 -39q-29 0 -29 23zM4020 330q0 -29 21 -29q20 0 20 29q0 27 -20 26q-21 1 -21 -26zM4092 291v74h10v-11q8 12 23 13q23 0 24 -19q2 -2 2 -12v-45 h-12v45q0 20 -16 20q-18 0 -19 -24v-41h-12zM4219 315l14 -2q-6 -25 -33 -24q-35 0 -34 39q0 39 34 39q33 0 33 -39v-2h-55q2 -25 22 -25q15 0 19 14zM4178 336h43q-2 20 -21 20q-20 0 -22 -20zM4248 291v74h12v-11q6 12 14 13q8 0 15 -5l-5 -12q-6 4 -10 4q-14 0 -14 -24 v-39h-12zM4291 313l12 2q2 -14 18 -14t17 10q0 6 -17 11q-29 8 -28 24q0 20 26 21q27 0 29 -21l-12 -2q-2 12 -17 12q-14 0 -14 -10q0 -6 16 -10q31 -8 31 -23q0 -25 -31 -24q-26 -1 -30 24zM3475 121v10q-6 -12 -20 -12q-31 0 -31 39t31 39q12 0 20 -11v35h13v-100h-13z M3437 158q0 -29 20 -29q18 0 18 27q0 31 -18 30q-20 1 -20 -28zM3502 158q0 39 35 39t35 -39t-35 -39t-35 39zM3514 158q0 -29 23 -29q20 0 20 29t-20 28q-23 1 -23 -28zM3586 121v74h10v-11q8 12 25 13q20 0 24 -19v-12v-45h-12v45q0 18 -16 18q-18 0 -19 -22v-41h-12z M3664 186l-2 19v16h14v-16l-4 -19h-8zM3719 131v-10h-8q-18 0 -18 20v43h-9v11h9v18l12 6v-24h14v-11h-14v-43q0 -10 8 -10h6zM3770 121v74h11v-11q8 12 22 13q16 0 21 -15q8 14 22 15q23 0 23 -25v-51h-13v47q0 16 -12 16q-18 0 -18 -20v-43h-13v47q0 16 -12 16 q-18 0 -18 -24v-39h-13zM3934 129q-12 -10 -26 -10q-25 0 -25 20t29 25q16 0 22 4v2q0 16 -18 16q-14 0 -19 -14l-12 2q4 23 33 23q25 0 28 -17v-12v-16q0 -25 5 -31h-13zM3934 158q-12 -2 -24.5 -5t-12.5 -12q0 -12 15 -12q25 0 22 25v4zM3965 121v100h14v-57l29 31h16 l-28 -29l30 -45h-14l-25 37l-8 -8v-29h-14zM4086 145l14 -2q-6 -25 -33 -24q-35 0 -34 39q0 39 34 39q33 0 33 -39v-4h-55q2 -25 22 -25q15 0 19 16zM4045 164h41q0 23 -19 22q-20 1 -22 -22zM4202 147l13 -2q-4 -27 -31 -26q-33 0 -33 39t33 39q25 0 29 -25l-13 -2 q-2 16 -16 16q-20 0 -20 -28q0 -29 20 -29q16 0 18 18zM4272 129q-12 -10 -26 -10q-25 0 -25 20t29 25q14 0 22 4v2q0 16 -18 16q-14 0 -19 -14l-12 2q4 23 33 23q25 0 28 -17v-12v-16q0 -25 5 -31h-13q-4 4 -4 8zM4272 158q-12 -2 -22 -4q-16 -4 -17 -13q0 -12 17 -12 q25 0 22 25v4zM4303 121v74h12v-13q6 14 14 15q8 0 15 -4l-4 -13q-6 2 -11 2q-14 0 -14 -22v-39h-12zM4377 131l2 -10h-9q-18 0 -18 20v43h-8v11h8v18l12 6v-24h13v-11h-13v-43q0 -10 8 -10h5zM4385 143l12 2q2 -16 18 -16t17 12q0 6 -17 11q-29 8 -28 22q0 23 26 23 q27 0 29 -21l-12 -2q-2 12 -15 12q-16 0 -16 -10q0 -6 16 -10q31 -8 31 -23q0 -25 -31 -24q-26 -1 -30 24zM4461 186l-5 19v16h15v-16l-2 -19h-8zM4483 186l-2 19v16h12v-16l-2 -19h-8z" />
<glyph unicode="~" horiz-adv-x="6727" d="M6232 662l-135 16l-141 -29l-142 6l-137 -34l-141 26l-135 -10l-152 31l43 -140l59 -116l144 -4l135 -13l137 37l133 -43l138 23l135 16l2 -123l-158 41l-152 -29l-149 13l-147 -17l-150 31l-147 -41l-52 121l-28 123l-68 98l4 2l-61 139l-56 144l-43 145l-63 135 l-39 148l-49 141l-203 49l25 90h139l137 -36l27 -191l168 21l147 16l150 -8l147 -37l148 41l149 -29l148 10h147l145 5l115 -17l-2 -108l-51 -129l-6 -140l-27 -133l-63 -121zM5018 1309l12 -95l-12 -6l86 -118l90 -17l-17 137l9 150zM5167 915l6 121l-76 -2zM5394 1313 l-168 12l-28 -121l39 -96l178 -37v141zM5226 788l162 -6l19 117l14 156l-195 -25l-16 -133l39 -129zM5317 248l-37 -101l39 -100l106 -47l86 66l25 81l-17 89l-94 14zM5458 1081l182 11l-26 118l12 93l-148 2l13 -101zM5478 1012l-41 -117l17 -145l192 8l17 141l-19 133z M5863 1300l-157 23l-23 -119l4 -137l213 -6l-20 149zM5708 772l172 -8v135l4 135l-180 -6l28 -133zM5886 256l-12 -109l10 -114l117 -2l118 2l43 114l-81 70l-80 33zM5939 1090l166 18l21 102l10 144l-213 -2l10 -148zM5933 754l195 -2l-29 147l16 127l-188 23zM6296 1333 l-127 4l-5 -133l17 -117h47l61 115zM6177 905l6 129l24 -10zM8 653l-8 84l25 353zM55 518l-37 86l54 -88zM86 518l-66 111l21 487l111 80l167 -25l7 -241l-226 -2l-16 -72l20 -74l220 -12l2 -244zM43 1145l37 55l53 6zM117 889l-6 -41l8 -19l160 -26l-164 6l-15 39l13 59 h204zM254 475l-150 23l215 2zM317 1219l2 -23l-161 16zM621 471l-7 74l-108 -13l-144 64l-18 172l29 145l133 35l98 2v29l-82 25l-143 -23l-6 229l45 15l209 -25l45 -160v-551zM356 985l-6 168l8 41l4 -199zM600 498l-98 -6l-72 28l-55 41l125 -53l102 10zM381 936l2 22 l147 21zM483 840l-51 -37q2 -2 10 -19l162 -22q0 55 2 72zM432 1247l49 10l74 -4l57 -30zM455 803l53 12l86 -10v-14zM645 1196l31 -66l2 -63zM707 1108l10 74l2 -418zM713 610l8 133v-233zM823 911l-16 -237l6 -158l-80 -10l2 170l-8 516l76 6l12 -37l139 37l4 -280z M735 1212l41 27l17 -25zM848 864l-29 -180l19 199l112 6zM823 524l-4 133l10 -57zM825 1188l-6 24l123 7zM1217 510h-37q-66 0 -103 -2q-10 31 -43 154l-2 253q-25 0 -55 7l2 249l2 5q0 -6 4 -7l55 11l7 180l65 6l2 -209q49 -6 119 -16v-213h-127l2 -164l41 -39l55 33 l-8 129l61 -4l9 -203zM1028 1204l-45 -10l37 31l12 123zM1020 684l-8 197l-29 20l39 -4zM1036 565l-8 78l31 -123zM1147 756l-33 35l2 108l10 4l-4 -96l29 -35l37 10l4 -12zM1126 1180l-4 174l13 -158l63 -12l23 -23zM1257 580l-26 -68l33 131zM1245 948l-2 189l8 -101z M1294 944l9 66v-117zM1315 885l-2 145l213 4v-155zM1323 1051l90 24l94 -24h-184zM1417 829l-90 29l174 -2zM1573 631l-14 239l30 -282zM1882 580l-70 -50l-180 11l-28 26l-39 336l47 266l180 45l74 -26l53 -434zM1567 989l18 162l12 10zM1845 971l-53 10l-31 4l-78 -10 l-45 -27l-6 -117l74 -43l143 25l17 59zM1634 1200l66 39l74 -8zM1769 494l-96 8l-31 16l168 -6zM1704 811l-55 45l12 4l43 -33l68 7zM1849 852l-18 76l-53 18l-49 -12l-60 4l111 20l53 -14l18 -67zM1808 1227l35 6l21 -25zM1882 1165l16 -57l23 -254zM1913 614l-17 -22 l27 119zM1944 944l6 66l2 -117zM1964 885l-2 145l211 4l2 -155zM1972 1051l90 24l92 -24h-182zM2066 829l-92 29l176 -2zM2548 418l-41 -133l-150 -19l-139 8l-10 222l92 -19l172 10l8 27q-4 16 -8 43l-164 -25q-49 51 -70 68l-6 371l52 182l204 47h72zM2208 846l10 53 l8 -276zM2296 498l-84 20l90 -4l156 18l6 -18zM2228 1014l6 65l33 70zM2363 221l-127 27l127 -4l125 18zM2294 1180l43 39l127 4zM2480 948l-100 6l-86 -55l10 -108l145 -21l31 14v164zM2460 821l-2 90l-68 -8l-78 -35l2 21l82 35l68 4l4 -129zM2331 809l45 12l53 -24z M2488 1219l45 20l27 -20h-72zM2589 1108l10 74l2 -418zM2595 610l8 133v-233zM2705 911l-16 -237l4 -158l-80 -10l4 170l-8 516l74 6l12 -37l141 37l5 -280zM2617 1212l41 27l17 -25zM2730 864l-31 -180l21 199l112 6zM2703 524l-4 133l13 -57zM2705 1188l-4 24l121 7z M3127 471l-6 74l-108 -13l-144 64l-20 172l30 145l134 35l98 2v29l-82 25l-145 -23l-5 229l46 15l208 -25l45 -160v-551zM2863 985l-6 168l8 41l4 -199zM3107 498l-98 -6l-72 28l-55 41l124 -53l103 10zM2886 936l4 22l147 21zM2990 840l-51 -37q2 -2 10 -19l162 -22 q0 55 2 72zM2939 1247l49 10l74 -4l57 -30zM2961 803l54 12l86 -10v-14zM3152 1196l31 -66l2 -63zM3219 352l-6 174l19 260zM3232 834l-17 155l4 221zM3308 1184l167 47l64 -29l22 -33l29 -196l-24 -350l-115 -91h-45l-94 29l-4 -24l10 -195l-86 -4l10 483l-10 406l61 8z M3287 1253l-53 -6l28 21zM3318 1227l139 20l-143 -37l-11 35l9 2zM3318 958l-10 -73l4 -90l59 -4l141 34l4 105l-71 31zM3330 922l-4 -48l2 -43l41 -8l102 11l-104 -29l-47 6l-2 70l8 57h117zM3400 514l-70 8l-2 -12l-2 -162l-6 172l4 19zM3504 915l-2 -79l-6 71l-35 25z M3547 555l-72 -29l89 70zM3539 1219l-57 22l39 2zM3594 1081l2 -71l-24 147zM3598 764l-20 -115l20 289v-174zM3637 551l-10 59l8 338l4 -63zM3637 969l-8 139l8 274l8 -45zM3893 524l8 168l-20 246q-20 6 -61 25l-86 -72l-7 -367l-80 4l11 863l76 4l-3 -211l187 16l55 -227 l4 -441zM3664 1411l57 27l13 -21zM3748 553q-2 -16 -8 -29l4 318l10 -82q-6 -109 -6 -207zM3824 915l-19 -8l-47 -45l-14 4l53 49l29 21l37 -12zM3750 1210l47 21l111 -12zM3879 532l-2 150l-10 203l24 -201zM3932 1200l27 -53l8 -41l10 -92zM4006 868l20 279l13 2z M4024 639l-16 156l45 -234zM4299 514l-230 27l-51 274l35 340l217 45l31 -18l43 -279l-4 -125l-37 -6l-17 2l-190 -4l8 -61l58 -11l188 15l18 -13v-178zM4061 1184l4 24l187 6zM4182 483l-88 31l192 -22zM4250 1055l-9 6l-135 -21l-8 -63l57 -6h99l8 8zM4200 727l-63 4 l-18 12l204 9zM4123 999l2 13l112 12v-18zM4344 483l-41 15l65 6zM4315 1176l19 -48l14 -184zM4379 1108l10 74l2 -418zM4385 610l8 133v-233zM4495 911l-16 -237l6 -158l-80 -10l2 170l-8 516l76 6l12 -37l139 37l5 -280zM4407 1212l41 27l17 -25zM4520 864l-29 -180 l19 199l112 6zM4495 524l-4 133l11 -57zM4495 1188l-4 24l123 7zM3428 356l-2 21v16h15v-16l-4 -21h-9zM3453 356l-4 21v16h14v-16l-4 -21h-6zM3482 291v63h-11v11h11v8q0 20 20 20h12l-2 -10h-8q-10 0 -10 -12v-6h14v-11h-14v-63h-12zM3514 328q0 39 33 39q35 0 35 -37 q0 -41 -35 -41q-33 0 -33 39zM3527 328q0 -27 20 -27q23 0 23 27q0 29 -23 28q-20 1 -20 -28zM3596 291v74h13v-11q8 12 22 13q20 0 25 -19v-12v-45h-13v45q0 20 -14 20q-20 0 -20 -24v-41h-13zM3703 303l2 -12h-10q-18 0 -19 22v41h-8v11h8v18l14 8v-26h13v-11h-13v-43 q0 -10 7 -10q2 2 6 2zM3801 291v10q-8 -12 -20 -12q-31 0 -31 39t31 39q12 0 18 -11v37h14v-102h-12zM3762 328q0 -27 21 -27q18 0 18 27q0 29 -20 28q-19 1 -19 -28zM3883 315l12 -2q-6 -25 -32 -24q-35 0 -35 39t35 39q33 0 32 -39v-2h-55q2 -25 23 -25q14 0 20 14z M3842 336h41q-2 20 -20 20q-21 0 -21 -20zM3906 313l12 2q2 -14 18 -14q18 0 19 10q0 6 -17 11q-31 8 -30 24q0 20 26 21q27 0 29 -21l-12 -2q0 12 -15 12q-16 0 -16 -10q0 -6 16 -10q31 -8 31 -23q0 -25 -31 -24q-26 -1 -30 24zM3981 379v14h13v-14h-13zM3981 291v74h13 v-74h-13zM4010 285h12q2 -12 17 -13q16 0 20 13v16q-8 -10 -20 -10q-31 0 -31 37q0 39 31 39q14 0 22 -11v9h10v-64q0 -39 -32 -39q-29 0 -29 23zM4020 330q0 -29 21 -29q20 0 20 29q0 27 -20 26q-21 1 -21 -26zM4092 291v74h10v-11q8 12 23 13q23 0 24 -19q2 -2 2 -12v-45 h-12v45q0 20 -16 20q-18 0 -19 -24v-41h-12zM4219 315l14 -2q-6 -25 -33 -24q-35 0 -34 39q0 39 34 39q33 0 33 -39v-2h-55q2 -25 22 -25q15 0 19 14zM4178 336h43q-2 20 -21 20q-20 0 -22 -20zM4248 291v74h12v-11q6 12 14 13q8 0 15 -5l-5 -12q-6 4 -10 4q-14 0 -14 -24 v-39h-12zM4291 313l12 2q2 -14 18 -14t17 10q0 6 -17 11q-29 8 -28 24q0 20 26 21q27 0 29 -21l-12 -2q-2 12 -17 12q-14 0 -14 -10q0 -6 16 -10q31 -8 31 -23q0 -25 -31 -24q-26 -1 -30 24zM3475 121v10q-6 -12 -20 -12q-31 0 -31 39t31 39q12 0 20 -11v35h13v-100h-13z M3437 158q0 -29 20 -29q18 0 18 27q0 31 -18 30q-20 1 -20 -28zM3502 158q0 39 35 39t35 -39t-35 -39t-35 39zM3514 158q0 -29 23 -29q20 0 20 29t-20 28q-23 1 -23 -28zM3586 121v74h10v-11q8 12 25 13q20 0 24 -19v-12v-45h-12v45q0 18 -16 18q-18 0 -19 -22v-41h-12z M3664 186l-2 19v16h14v-16l-4 -19h-8zM3719 131v-10h-8q-18 0 -18 20v43h-9v11h9v18l12 6v-24h14v-11h-14v-43q0 -10 8 -10h6zM3770 121v74h11v-11q8 12 22 13q16 0 21 -15q8 14 22 15q23 0 23 -25v-51h-13v47q0 16 -12 16q-18 0 -18 -20v-43h-13v47q0 16 -12 16 q-18 0 -18 -24v-39h-13zM3934 129q-12 -10 -26 -10q-25 0 -25 20t29 25q16 0 22 4v2q0 16 -18 16q-14 0 -19 -14l-12 2q4 23 33 23q25 0 28 -17v-12v-16q0 -25 5 -31h-13zM3934 158q-12 -2 -24.5 -5t-12.5 -12q0 -12 15 -12q25 0 22 25v4zM3965 121v100h14v-57l29 31h16 l-28 -29l30 -45h-14l-25 37l-8 -8v-29h-14zM4086 145l14 -2q-6 -25 -33 -24q-35 0 -34 39q0 39 34 39q33 0 33 -39v-4h-55q2 -25 22 -25q15 0 19 16zM4045 164h41q0 23 -19 22q-20 1 -22 -22zM4202 147l13 -2q-4 -27 -31 -26q-33 0 -33 39t33 39q25 0 29 -25l-13 -2 q-2 16 -16 16q-20 0 -20 -28q0 -29 20 -29q16 0 18 18zM4272 129q-12 -10 -26 -10q-25 0 -25 20t29 25q14 0 22 4v2q0 16 -18 16q-14 0 -19 -14l-12 2q4 23 33 23q25 0 28 -17v-12v-16q0 -25 5 -31h-13q-4 4 -4 8zM4272 158q-12 -2 -22 -4q-16 -4 -17 -13q0 -12 17 -12 q25 0 22 25v4zM4303 121v74h12v-13q6 14 14 15q8 0 15 -4l-4 -13q-6 2 -11 2q-14 0 -14 -22v-39h-12zM4377 131l2 -10h-9q-18 0 -18 20v43h-8v11h8v18l12 6v-24h13v-11h-13v-43q0 -10 8 -10h5zM4385 143l12 2q2 -16 18 -16t17 12q0 6 -17 11q-29 8 -28 22q0 23 26 23 q27 0 29 -21l-12 -2q-2 12 -15 12q-16 0 -16 -10q0 -6 16 -10q31 -8 31 -23q0 -25 -31 -24q-26 -1 -30 24zM4461 186l-5 19v16h15v-16l-2 -19h-8zM4483 186l-2 19v16h12v-16l-2 -19h-8z" />
<glyph unicode="&#xad;" d="M119 1638l-119 -43l385 -1048h2l84 -228q-49 -55 -49 -129q0 -78 56.5 -134t135.5 -56q63 0 114.5 39t68.5 100h387q18 -61 68.5 -100t115.5 -39q80 0 135.5 56.5t55.5 133.5q0 39 -15 74v4v0q-51 113 -176 113t-174 -113h-406q-51 113 -174 113q-14 0 -28 -2l-64 168 h1102l221 942h-1671zM1686 1362l-162 -688h-1047l-205 557h-2l-49 131h1465zM1491 1057q49 0 82 33.5t33 80.5t-33 81t-82 34q-47 0 -81 -33.5t-34 -81.5q0 -47 34 -80.5t81 -33.5zM1149 1057q47 0 80 33.5t33 80.5t-33 81t-80 34q-49 0 -82 -33.5t-33 -81.5q0 -47 33 -80.5 t82 -33.5zM805 1057q47 0 81 33.5t34 80.5t-34 81t-81 34t-81 -33.5t-34 -81.5q0 -47 34 -80.5t81 -33.5zM461 1057q47 0 80.5 33.5t33.5 80.5t-33.5 81t-80.5 34t-81 -33.5t-34 -81.5q0 -47 34 -80.5t81 -33.5zM1206 866q0 -49 33 -81.5t80 -32.5q49 0 82 32.5t33 81.5 q0 47 -33 81t-82 34q-47 0 -80 -34t-33 -81zM862 866q0 -49 33 -81.5t82 -32.5q47 0 81 32.5t34 81.5q0 47 -34 81t-81 34q-49 0 -82 -34t-33 -81zM518 866q0 -49 34 -81.5t81 -32.5t81 32.5t34 81.5q0 47 -34 81t-81 34t-81 -34t-34 -81z" />
<glyph unicode="&#x2000;" horiz-adv-x="819" />
<glyph unicode="&#x2001;" horiz-adv-x="1638" />
<glyph unicode="&#x2002;" horiz-adv-x="819" />
<glyph unicode="&#x2003;" horiz-adv-x="1638" />
<glyph unicode="&#x2004;" horiz-adv-x="546" />
<glyph unicode="&#x2005;" horiz-adv-x="409" />
<glyph unicode="&#x2006;" horiz-adv-x="273" />
<glyph unicode="&#x2007;" horiz-adv-x="273" />
<glyph unicode="&#x2008;" horiz-adv-x="204" />
<glyph unicode="&#x2009;" horiz-adv-x="327" />
<glyph unicode="&#x200a;" horiz-adv-x="91" />
<glyph unicode="&#x2010;" d="M119 1638l-119 -43l385 -1048h2l84 -228q-49 -55 -49 -129q0 -78 56.5 -134t135.5 -56q63 0 114.5 39t68.5 100h387q18 -61 68.5 -100t115.5 -39q80 0 135.5 56.5t55.5 133.5q0 39 -15 74v4v0q-51 113 -176 113t-174 -113h-406q-51 113 -174 113q-14 0 -28 -2l-64 168 h1102l221 942h-1671zM1686 1362l-162 -688h-1047l-205 557h-2l-49 131h1465zM1491 1057q49 0 82 33.5t33 80.5t-33 81t-82 34q-47 0 -81 -33.5t-34 -81.5q0 -47 34 -80.5t81 -33.5zM1149 1057q47 0 80 33.5t33 80.5t-33 81t-80 34q-49 0 -82 -33.5t-33 -81.5q0 -47 33 -80.5 t82 -33.5zM805 1057q47 0 81 33.5t34 80.5t-34 81t-81 34t-81 -33.5t-34 -81.5q0 -47 34 -80.5t81 -33.5zM461 1057q47 0 80.5 33.5t33.5 80.5t-33.5 81t-80.5 34t-81 -33.5t-34 -81.5q0 -47 34 -80.5t81 -33.5zM1206 866q0 -49 33 -81.5t80 -32.5q49 0 82 32.5t33 81.5 q0 47 -33 81t-82 34q-47 0 -80 -34t-33 -81zM862 866q0 -49 33 -81.5t82 -32.5q47 0 81 32.5t34 81.5q0 47 -34 81t-81 34q-49 0 -82 -34t-33 -81zM518 866q0 -49 34 -81.5t81 -32.5t81 32.5t34 81.5q0 47 -34 81t-81 34t-81 -34t-34 -81z" />
<glyph unicode="&#x2011;" d="M119 1638l-119 -43l385 -1048h2l84 -228q-49 -55 -49 -129q0 -78 56.5 -134t135.5 -56q63 0 114.5 39t68.5 100h387q18 -61 68.5 -100t115.5 -39q80 0 135.5 56.5t55.5 133.5q0 39 -15 74v4v0q-51 113 -176 113t-174 -113h-406q-51 113 -174 113q-14 0 -28 -2l-64 168 h1102l221 942h-1671zM1686 1362l-162 -688h-1047l-205 557h-2l-49 131h1465zM1491 1057q49 0 82 33.5t33 80.5t-33 81t-82 34q-47 0 -81 -33.5t-34 -81.5q0 -47 34 -80.5t81 -33.5zM1149 1057q47 0 80 33.5t33 80.5t-33 81t-80 34q-49 0 -82 -33.5t-33 -81.5q0 -47 33 -80.5 t82 -33.5zM805 1057q47 0 81 33.5t34 80.5t-34 81t-81 34t-81 -33.5t-34 -81.5q0 -47 34 -80.5t81 -33.5zM461 1057q47 0 80.5 33.5t33.5 80.5t-33.5 81t-80.5 34t-81 -33.5t-34 -81.5q0 -47 34 -80.5t81 -33.5zM1206 866q0 -49 33 -81.5t80 -32.5q49 0 82 32.5t33 81.5 q0 47 -33 81t-82 34q-47 0 -80 -34t-33 -81zM862 866q0 -49 33 -81.5t82 -32.5q47 0 81 32.5t34 81.5q0 47 -34 81t-81 34q-49 0 -82 -34t-33 -81zM518 866q0 -49 34 -81.5t81 -32.5t81 32.5t34 81.5q0 47 -34 81t-81 34t-81 -34t-34 -81z" />
<glyph unicode="&#x2012;" d="M119 1638l-119 -43l385 -1048h2l84 -228q-49 -55 -49 -129q0 -78 56.5 -134t135.5 -56q63 0 114.5 39t68.5 100h387q18 -61 68.5 -100t115.5 -39q80 0 135.5 56.5t55.5 133.5q0 39 -15 74v4v0q-51 113 -176 113t-174 -113h-406q-51 113 -174 113q-14 0 -28 -2l-64 168 h1102l221 942h-1671zM1686 1362l-162 -688h-1047l-205 557h-2l-49 131h1465zM1491 1057q49 0 82 33.5t33 80.5t-33 81t-82 34q-47 0 -81 -33.5t-34 -81.5q0 -47 34 -80.5t81 -33.5zM1149 1057q47 0 80 33.5t33 80.5t-33 81t-80 34q-49 0 -82 -33.5t-33 -81.5q0 -47 33 -80.5 t82 -33.5zM805 1057q47 0 81 33.5t34 80.5t-34 81t-81 34t-81 -33.5t-34 -81.5q0 -47 34 -80.5t81 -33.5zM461 1057q47 0 80.5 33.5t33.5 80.5t-33.5 81t-80.5 34t-81 -33.5t-34 -81.5q0 -47 34 -80.5t81 -33.5zM1206 866q0 -49 33 -81.5t80 -32.5q49 0 82 32.5t33 81.5 q0 47 -33 81t-82 34q-47 0 -80 -34t-33 -81zM862 866q0 -49 33 -81.5t82 -32.5q47 0 81 32.5t34 81.5q0 47 -34 81t-81 34q-49 0 -82 -34t-33 -81zM518 866q0 -49 34 -81.5t81 -32.5t81 32.5t34 81.5q0 47 -34 81t-81 34t-81 -34t-34 -81z" />
<glyph unicode="&#x2013;" horiz-adv-x="1116" d="M66 1638l-66 -43l214 -1048h1l46 -228q-27 -55 -27 -129q0 -78 31.5 -134t75.5 -56q35 0 63.5 39t37.5 100h215q10 -61 38 -100t64 -39q45 0 75.5 56.5t30.5 133.5q0 39 -8 74v4v0q-28 113 -98 113q-69 0 -96 -113h-226q-28 113 -96 113q-8 0 -16 -2l-35 168h611l123 942 h-927zM936 1362l-90 -688h-581l-114 557h-1l-27 131h813zM828 1057q27 0 45 33.5t18 80.5t-18 81t-45 34t-45.5 -33.5t-18.5 -81.5q0 -47 18.5 -80.5t45.5 -33.5zM638 1057q26 0 44 33.5t18 80.5t-18 81t-44 34q-27 0 -45.5 -33.5t-18.5 -81.5q0 -47 18.5 -80.5t45.5 -33.5z M447 1057q26 0 45 33.5t19 80.5t-19 81t-45 34t-45 -33.5t-19 -81.5q0 -47 19 -80.5t45 -33.5zM256 1057q26 0 44.5 33.5t18.5 80.5t-18.5 81t-44.5 34t-45 -33.5t-19 -81.5q0 -47 19 -80.5t45 -33.5zM669 866q0 -49 18.5 -81.5t44.5 -32.5q27 0 45.5 32.5t18.5 81.5 q0 47 -18.5 81t-45.5 34q-26 0 -44.5 -34t-18.5 -81zM478 866q0 -49 18.5 -81.5t45.5 -32.5q26 0 45 32.5t19 81.5q0 47 -19 81t-45 34q-27 0 -45.5 -34t-18.5 -81zM287 866q0 -49 19 -81.5t45 -32.5t45 32.5t19 81.5q0 47 -19 81t-45 34t-45 -34t-19 -81z" />
<glyph unicode="&#x2014;" horiz-adv-x="2140" d="M132 1638l-132 -43l427 -1048h3l93 -228q-55 -55 -55 -129q0 -78 63 -134t151 -56q69 0 126.5 39t76.5 100h429q20 -61 76 -100t129 -39q88 0 150 56.5t62 133.5q0 39 -17 74v4v0q-57 113 -195 113q-139 0 -194 -113h-450q-57 113 -193 113q-16 0 -32 -2l-71 168h1224 l245 942h-1855zM1872 1362l-180 -688h-1163l-227 557h-2l-55 131h1627zM1655 1057q54 0 91 33.5t37 80.5t-37 81t-91 34q-52 0 -90 -33.5t-38 -81.5q0 -47 38 -80.5t90 -33.5zM1275 1057q53 0 89.5 33.5t36.5 80.5t-36.5 81t-89.5 34q-54 0 -90.5 -33.5t-36.5 -81.5 q0 -47 36.5 -80.5t90.5 -33.5zM894 1057q52 0 89.5 33.5t37.5 80.5t-37.5 81t-89.5 34q-53 0 -90.5 -33.5t-37.5 -81.5q0 -47 37.5 -80.5t90.5 -33.5zM512 1057q52 0 89 33.5t37 80.5t-37 81t-89 34t-90 -33.5t-38 -81.5q0 -47 38 -80.5t90 -33.5zM1339 866 q0 -49 36.5 -81.5t88.5 -32.5q55 0 91.5 32.5t36.5 81.5q0 47 -36.5 81t-91.5 34q-52 0 -88.5 -34t-36.5 -81zM957 866q0 -49 36.5 -81.5t90.5 -32.5q53 0 90.5 32.5t37.5 81.5q0 47 -37.5 81t-90.5 34q-54 0 -90.5 -34t-36.5 -81zM575 866q0 -49 37.5 -81.5t90.5 -32.5 q52 0 89.5 32.5t37.5 81.5q0 47 -37.5 81t-89.5 34q-53 0 -90.5 -34t-37.5 -81z" />
<glyph unicode="&#x202f;" horiz-adv-x="327" />
<glyph unicode="&#x205f;" horiz-adv-x="409" />
<glyph unicode="&#x25fc;" horiz-adv-x="1638" d="M0 1638h1638v-1638h-1638v1638z" />
</font>
</defs>
</svg>
